<?xml version="1.0" encoding="UTF-8" standalone="no"?><svg xmlns="http://www.w3.org/2000/svg" xmlns:xlink="http://www.w3.org/1999/xlink" contentStyleType="text/css" height="824px" preserveAspectRatio="none" style="width:543px;height:824px;background:#FFFFFF;" version="1.1" viewBox="0 0 543 824" width="543px" zoomAndPan="magnify"><defs/><g><rect height="26.2969" style="stroke:#00000000;stroke-width:1.0;fill:none;" width="203" x="163.25" y="5"/><text fill="#000000" font-family="sans-serif" font-size="14" font-weight="bold" lengthAdjust="spacing" textLength="193" x="168.25" y="22.9951">Classes - Class Diagram</text><!--MD5=[09ce52be0ee7de43c61b6e2d59bf108b]
class Person--><g id="elem_Person"><rect codeLine="3" fill="#F1F1F1" height="178.375" id="Person" rx="2.5" ry="2.5" style="stroke:#181818;stroke-width:0.5;" width="157" x="163" y="44.2969"/><ellipse cx="212.75" cy="60.2969" fill="#ADD1B2" rx="11" ry="11" style="stroke:#181818;stroke-width:1.0;"/><path d="M215.0938,55.9688 C214.1563,55.5313 213.5625,55.3906 212.6875,55.3906 C210.0625,55.3906 208.0625,57.4688 208.0625,60.1875 L208.0625,61.3125 C208.0625,63.8906 210.1719,65.7813 213.0625,65.7813 C214.2813,65.7813 215.4375,65.4844 216.1875,64.9375 C216.7656,64.5313 217.0938,64.0781 217.0938,63.6875 C217.0938,63.2344 216.7031,62.8438 216.2344,62.8438 C216.0156,62.8438 215.8125,62.9219 215.625,63.1094 C215.1719,63.5938 215.1719,63.5938 214.9844,63.6875 C214.5625,63.9531 213.875,64.0781 213.1094,64.0781 C211.0625,64.0781 209.7656,62.9844 209.7656,61.2813 L209.7656,60.1875 C209.7656,58.4063 211.0156,57.0938 212.75,57.0938 C213.3281,57.0938 213.9375,57.25 214.4063,57.5 C214.8906,57.7813 215.0625,58 215.1563,58.4063 C215.2188,58.8125 215.25,58.9375 215.3906,59.0625 C215.5313,59.2031 215.7656,59.3125 215.9844,59.3125 C216.25,59.3125 216.5156,59.1719 216.6875,58.9531 C216.7969,58.7969 216.8281,58.6094 216.8281,58.1875 L216.8281,56.7656 C216.8281,56.3281 216.8125,56.2031 216.7188,56.0469 C216.5625,55.7813 216.2813,55.6406 215.9844,55.6406 C215.6875,55.6406 215.4844,55.7344 215.2656,56.0469 L215.0938,55.9688 Z " fill="#000000"/><text fill="#000000" font-family="sans-serif" font-size="14" lengthAdjust="spacing" textLength="49" x="233.25" y="65.1436">Person</text><line style="stroke:#181818;stroke-width:0.5;" x1="164" x2="319" y1="76.2969" y2="76.2969"/><text fill="#000000" font-family="sans-serif" font-size="14" lengthAdjust="spacing" textLength="88" x="169" y="93.292">String name</text><text fill="#000000" font-family="sans-serif" font-size="14" lengthAdjust="spacing" textLength="109" x="169" y="109.5889">String surname</text><text fill="#000000" font-family="sans-serif" font-size="14" lengthAdjust="spacing" textLength="103" x="169" y="125.8857">String address</text><text fill="#000000" font-family="sans-serif" font-size="14" lengthAdjust="spacing" textLength="125" x="169" y="142.1826">Date dateOfBirth</text><text fill="#000000" font-family="sans-serif" font-size="14" lengthAdjust="spacing" textLength="84" x="169" y="158.4795">String telNr</text><text fill="#000000" font-family="sans-serif" font-size="14" lengthAdjust="spacing" textLength="87" x="169" y="174.7764">String email</text><text fill="#000000" font-family="sans-serif" font-size="14" lengthAdjust="spacing" textLength="133" x="169" y="191.0732">boolean isMember</text><text fill="#000000" font-family="sans-serif" font-size="14" lengthAdjust="spacing" textLength="145" x="169" y="207.3701">int donationAmount</text><line style="stroke:#181818;stroke-width:0.5;" x1="164" x2="319" y1="214.6719" y2="214.6719"/></g><!--MD5=[26df59e6d290f1279cec908f1e9a1b5f]
class Observation--><g id="elem_Observation"><rect codeLine="14" fill="#F1F1F1" height="80.5938" id="Observation" rx="2.5" ry="2.5" style="stroke:#181818;stroke-width:0.5;" width="120" x="181.5" y="282.2969"/><ellipse cx="196.5" cy="298.2969" fill="#ADD1B2" rx="11" ry="11" style="stroke:#181818;stroke-width:1.0;"/><path d="M198.8438,293.9688 C197.9063,293.5313 197.3125,293.3906 196.4375,293.3906 C193.8125,293.3906 191.8125,295.4688 191.8125,298.1875 L191.8125,299.3125 C191.8125,301.8906 193.9219,303.7813 196.8125,303.7813 C198.0313,303.7813 199.1875,303.4844 199.9375,302.9375 C200.5156,302.5313 200.8438,302.0781 200.8438,301.6875 C200.8438,301.2344 200.4531,300.8438 199.9844,300.8438 C199.7656,300.8438 199.5625,300.9219 199.375,301.1094 C198.9219,301.5938 198.9219,301.5938 198.7344,301.6875 C198.3125,301.9531 197.625,302.0781 196.8594,302.0781 C194.8125,302.0781 193.5156,300.9844 193.5156,299.2813 L193.5156,298.1875 C193.5156,296.4063 194.7656,295.0938 196.5,295.0938 C197.0781,295.0938 197.6875,295.25 198.1563,295.5 C198.6406,295.7813 198.8125,296 198.9063,296.4063 C198.9688,296.8125 199,296.9375 199.1406,297.0625 C199.2813,297.2031 199.5156,297.3125 199.7344,297.3125 C200,297.3125 200.2656,297.1719 200.4375,296.9531 C200.5469,296.7969 200.5781,296.6094 200.5781,296.1875 L200.5781,294.7656 C200.5781,294.3281 200.5625,294.2031 200.4688,294.0469 C200.3125,293.7813 200.0313,293.6406 199.7344,293.6406 C199.4375,293.6406 199.2344,293.7344 199.0156,294.0469 L198.8438,293.9688 Z " fill="#000000"/><text fill="#000000" font-family="sans-serif" font-size="14" lengthAdjust="spacing" textLength="88" x="210.5" y="303.1436">Observation</text><line style="stroke:#181818;stroke-width:0.5;" x1="182.5" x2="300.5" y1="314.2969" y2="314.2969"/><text fill="#000000" font-family="sans-serif" font-size="14" lengthAdjust="spacing" textLength="64" x="187.5" y="331.292">Date day</text><text fill="#000000" font-family="sans-serif" font-size="14" lengthAdjust="spacing" textLength="87" x="187.5" y="347.5889">Time period</text><line style="stroke:#181818;stroke-width:0.5;" x1="182.5" x2="300.5" y1="354.8906" y2="354.8906"/></g><!--MD5=[c4d681900983498091bbbc67674786ba]
class District--><g id="elem_District"><rect codeLine="19" fill="#F1F1F1" height="64.2969" id="District" rx="2.5" ry="2.5" style="stroke:#181818;stroke-width:0.5;" width="139" x="7" y="290.7969"/><ellipse cx="45.85" cy="306.7969" fill="#ADD1B2" rx="11" ry="11" style="stroke:#181818;stroke-width:1.0;"/><path d="M48.1938,302.4688 C47.2563,302.0313 46.6625,301.8906 45.7875,301.8906 C43.1625,301.8906 41.1625,303.9688 41.1625,306.6875 L41.1625,307.8125 C41.1625,310.3906 43.2719,312.2813 46.1625,312.2813 C47.3813,312.2813 48.5375,311.9844 49.2875,311.4375 C49.8656,311.0313 50.1938,310.5781 50.1938,310.1875 C50.1938,309.7344 49.8031,309.3438 49.3344,309.3438 C49.1156,309.3438 48.9125,309.4219 48.725,309.6094 C48.2719,310.0938 48.2719,310.0938 48.0844,310.1875 C47.6625,310.4531 46.975,310.5781 46.2094,310.5781 C44.1625,310.5781 42.8656,309.4844 42.8656,307.7813 L42.8656,306.6875 C42.8656,304.9063 44.1156,303.5938 45.85,303.5938 C46.4281,303.5938 47.0375,303.75 47.5063,304 C47.9906,304.2813 48.1625,304.5 48.2563,304.9063 C48.3188,305.3125 48.35,305.4375 48.4906,305.5625 C48.6313,305.7031 48.8656,305.8125 49.0844,305.8125 C49.35,305.8125 49.6156,305.6719 49.7875,305.4531 C49.8969,305.2969 49.9281,305.1094 49.9281,304.6875 L49.9281,303.2656 C49.9281,302.8281 49.9125,302.7031 49.8188,302.5469 C49.6625,302.2813 49.3813,302.1406 49.0844,302.1406 C48.7875,302.1406 48.5844,302.2344 48.3656,302.5469 L48.1938,302.4688 Z " fill="#000000"/><text fill="#000000" font-family="sans-serif" font-size="14" lengthAdjust="spacing" textLength="54" x="65.15" y="311.6436">District</text><line style="stroke:#181818;stroke-width:0.5;" x1="8" x2="145" y1="322.7969" y2="322.7969"/><text fill="#000000" font-family="sans-serif" font-size="14" lengthAdjust="spacing" textLength="127" x="13" y="339.792">«PK» String name</text><line style="stroke:#181818;stroke-width:0.5;" x1="8" x2="145" y1="347.0938" y2="347.0938"/></g><!--MD5=[351f7be4e9faa11c70c07bc07c344380]
class Province--><g id="elem_Province"><rect codeLine="23" fill="#F1F1F1" height="64.2969" id="Province" rx="2.5" ry="2.5" style="stroke:#181818;stroke-width:0.5;" width="139" x="36" y="431.7969"/><ellipse cx="71.25" cy="447.7969" fill="#ADD1B2" rx="11" ry="11" style="stroke:#181818;stroke-width:1.0;"/><path d="M73.5938,443.4688 C72.6563,443.0313 72.0625,442.8906 71.1875,442.8906 C68.5625,442.8906 66.5625,444.9688 66.5625,447.6875 L66.5625,448.8125 C66.5625,451.3906 68.6719,453.2813 71.5625,453.2813 C72.7813,453.2813 73.9375,452.9844 74.6875,452.4375 C75.2656,452.0313 75.5938,451.5781 75.5938,451.1875 C75.5938,450.7344 75.2031,450.3438 74.7344,450.3438 C74.5156,450.3438 74.3125,450.4219 74.125,450.6094 C73.6719,451.0938 73.6719,451.0938 73.4844,451.1875 C73.0625,451.4531 72.375,451.5781 71.6094,451.5781 C69.5625,451.5781 68.2656,450.4844 68.2656,448.7813 L68.2656,447.6875 C68.2656,445.9063 69.5156,444.5938 71.25,444.5938 C71.8281,444.5938 72.4375,444.75 72.9063,445 C73.3906,445.2813 73.5625,445.5 73.6563,445.9063 C73.7188,446.3125 73.75,446.4375 73.8906,446.5625 C74.0313,446.7031 74.2656,446.8125 74.4844,446.8125 C74.75,446.8125 75.0156,446.6719 75.1875,446.4531 C75.2969,446.2969 75.3281,446.1094 75.3281,445.6875 L75.3281,444.2656 C75.3281,443.8281 75.3125,443.7031 75.2188,443.5469 C75.0625,443.2813 74.7813,443.1406 74.4844,443.1406 C74.1875,443.1406 73.9844,443.2344 73.7656,443.5469 L73.5938,443.4688 Z " fill="#000000"/><text fill="#000000" font-family="sans-serif" font-size="14" lengthAdjust="spacing" textLength="62" x="89.75" y="452.6436">Province</text><line style="stroke:#181818;stroke-width:0.5;" x1="37" x2="174" y1="463.7969" y2="463.7969"/><text fill="#000000" font-family="sans-serif" font-size="14" lengthAdjust="spacing" textLength="127" x="42" y="480.792">«PK» String name</text><line style="stroke:#181818;stroke-width:0.5;" x1="37" x2="174" y1="488.0938" y2="488.0938"/></g><!--MD5=[f3d1356aba08e5323d0044b15abb886b]
class Family--><g id="elem_Family"><rect codeLine="27" fill="#F1F1F1" height="64.2969" id="Family" rx="2.5" ry="2.5" style="stroke:#181818;stroke-width:0.5;" width="139" x="157" y="753.2969"/><ellipse cx="199.45" cy="769.2969" fill="#ADD1B2" rx="11" ry="11" style="stroke:#181818;stroke-width:1.0;"/><path d="M201.7938,764.9688 C200.8563,764.5313 200.2625,764.3906 199.3875,764.3906 C196.7625,764.3906 194.7625,766.4688 194.7625,769.1875 L194.7625,770.3125 C194.7625,772.8906 196.8719,774.7813 199.7625,774.7813 C200.9813,774.7813 202.1375,774.4844 202.8875,773.9375 C203.4656,773.5313 203.7938,773.0781 203.7938,772.6875 C203.7938,772.2344 203.4031,771.8438 202.9344,771.8438 C202.7156,771.8438 202.5125,771.9219 202.325,772.1094 C201.8719,772.5938 201.8719,772.5938 201.6844,772.6875 C201.2625,772.9531 200.575,773.0781 199.8094,773.0781 C197.7625,773.0781 196.4656,771.9844 196.4656,770.2813 L196.4656,769.1875 C196.4656,767.4063 197.7156,766.0938 199.45,766.0938 C200.0281,766.0938 200.6375,766.25 201.1063,766.5 C201.5906,766.7813 201.7625,767 201.8563,767.4063 C201.9188,767.8125 201.95,767.9375 202.0906,768.0625 C202.2313,768.2031 202.4656,768.3125 202.6844,768.3125 C202.95,768.3125 203.2156,768.1719 203.3875,767.9531 C203.4969,767.7969 203.5281,767.6094 203.5281,767.1875 L203.5281,765.7656 C203.5281,765.3281 203.5125,765.2031 203.4188,765.0469 C203.2625,764.7813 202.9813,764.6406 202.6844,764.6406 C202.3875,764.6406 202.1844,764.7344 201.9656,765.0469 L201.7938,764.9688 Z " fill="#000000"/><text fill="#000000" font-family="sans-serif" font-size="14" lengthAdjust="spacing" textLength="46" x="219.55" y="774.1436">Family</text><line style="stroke:#181818;stroke-width:0.5;" x1="158" x2="295" y1="785.2969" y2="785.2969"/><text fill="#000000" font-family="sans-serif" font-size="14" lengthAdjust="spacing" textLength="127" x="163" y="802.292">«PK» String name</text><line style="stroke:#181818;stroke-width:0.5;" x1="158" x2="295" y1="809.5938" y2="809.5938"/></g><!--MD5=[5d0a77e8f66918aa15fe0099dd6d4ba9]
class Environment--><g id="elem_Environment"><rect codeLine="31" fill="#F1F1F1" height="80.5938" id="Environment" rx="2.5" ry="2.5" style="stroke:#181818;stroke-width:0.5;" width="142" x="394.5" y="423.2969"/><ellipse cx="417.15" cy="439.2969" fill="#ADD1B2" rx="11" ry="11" style="stroke:#181818;stroke-width:1.0;"/><path d="M419.4938,434.9688 C418.5563,434.5313 417.9625,434.3906 417.0875,434.3906 C414.4625,434.3906 412.4625,436.4688 412.4625,439.1875 L412.4625,440.3125 C412.4625,442.8906 414.5719,444.7813 417.4625,444.7813 C418.6813,444.7813 419.8375,444.4844 420.5875,443.9375 C421.1656,443.5313 421.4938,443.0781 421.4938,442.6875 C421.4938,442.2344 421.1031,441.8438 420.6344,441.8438 C420.4156,441.8438 420.2125,441.9219 420.025,442.1094 C419.5719,442.5938 419.5719,442.5938 419.3844,442.6875 C418.9625,442.9531 418.275,443.0781 417.5094,443.0781 C415.4625,443.0781 414.1656,441.9844 414.1656,440.2813 L414.1656,439.1875 C414.1656,437.4063 415.4156,436.0938 417.15,436.0938 C417.7281,436.0938 418.3375,436.25 418.8063,436.5 C419.2906,436.7813 419.4625,437 419.5563,437.4063 C419.6188,437.8125 419.65,437.9375 419.7906,438.0625 C419.9313,438.2031 420.1656,438.3125 420.3844,438.3125 C420.65,438.3125 420.9156,438.1719 421.0875,437.9531 C421.1969,437.7969 421.2281,437.6094 421.2281,437.1875 L421.2281,435.7656 C421.2281,435.3281 421.2125,435.2031 421.1188,435.0469 C420.9625,434.7813 420.6813,434.6406 420.3844,434.6406 C420.0875,434.6406 419.8844,434.7344 419.6656,435.0469 L419.4938,434.9688 Z " fill="#000000"/><text fill="#000000" font-family="sans-serif" font-size="14" lengthAdjust="spacing" textLength="93" x="432.85" y="444.1436">Environment</text><line style="stroke:#181818;stroke-width:0.5;" x1="395.5" x2="535.5" y1="455.2969" y2="455.2969"/><text fill="#000000" font-family="sans-serif" font-size="14" lengthAdjust="spacing" textLength="127" x="400.5" y="472.292">«PK» String name</text><text fill="#000000" font-family="sans-serif" font-size="14" lengthAdjust="spacing" textLength="130" x="400.5" y="488.5889">String description</text><line style="stroke:#181818;stroke-width:0.5;" x1="395.5" x2="535.5" y1="495.8906" y2="495.8906"/></g><!--MD5=[4b1bbb36bf22db452d2f18c9a96e40ec]
class Species--><g id="elem_Species"><rect codeLine="36" fill="#F1F1F1" height="129.4844" id="Species" rx="2.5" ry="2.5" style="stroke:#181818;stroke-width:0.5;" width="167" x="143" y="564.2969"/><ellipse cx="194.25" cy="580.2969" fill="#ADD1B2" rx="11" ry="11" style="stroke:#181818;stroke-width:1.0;"/><path d="M196.5938,575.9688 C195.6563,575.5313 195.0625,575.3906 194.1875,575.3906 C191.5625,575.3906 189.5625,577.4688 189.5625,580.1875 L189.5625,581.3125 C189.5625,583.8906 191.6719,585.7813 194.5625,585.7813 C195.7813,585.7813 196.9375,585.4844 197.6875,584.9375 C198.2656,584.5313 198.5938,584.0781 198.5938,583.6875 C198.5938,583.2344 198.2031,582.8438 197.7344,582.8438 C197.5156,582.8438 197.3125,582.9219 197.125,583.1094 C196.6719,583.5938 196.6719,583.5938 196.4844,583.6875 C196.0625,583.9531 195.375,584.0781 194.6094,584.0781 C192.5625,584.0781 191.2656,582.9844 191.2656,581.2813 L191.2656,580.1875 C191.2656,578.4063 192.5156,577.0938 194.25,577.0938 C194.8281,577.0938 195.4375,577.25 195.9063,577.5 C196.3906,577.7813 196.5625,578 196.6563,578.4063 C196.7188,578.8125 196.75,578.9375 196.8906,579.0625 C197.0313,579.2031 197.2656,579.3125 197.4844,579.3125 C197.75,579.3125 198.0156,579.1719 198.1875,578.9531 C198.2969,578.7969 198.3281,578.6094 198.3281,578.1875 L198.3281,576.7656 C198.3281,576.3281 198.3125,576.2031 198.2188,576.0469 C198.0625,575.7813 197.7813,575.6406 197.4844,575.6406 C197.1875,575.6406 196.9844,575.7344 196.7656,576.0469 L196.5938,575.9688 Z " fill="#000000"/><text fill="#000000" font-family="sans-serif" font-size="14" lengthAdjust="spacing" textLength="56" x="214.75" y="585.1436">Species</text><line style="stroke:#181818;stroke-width:0.5;" x1="144" x2="309" y1="596.2969" y2="596.2969"/><text fill="#000000" font-family="sans-serif" font-size="14" lengthAdjust="spacing" textLength="127" x="149" y="613.292">«PK» String name</text><text fill="#000000" font-family="sans-serif" font-size="14" lengthAdjust="spacing" textLength="155" x="149" y="629.5889">String scientificName</text><text fill="#000000" font-family="sans-serif" font-size="14" lengthAdjust="spacing" textLength="130" x="149" y="645.8857">String description</text><text fill="#000000" font-family="sans-serif" font-size="14" lengthAdjust="spacing" textLength="142" x="149" y="662.1826">boolean isMigratory</text><text fill="#000000" font-family="sans-serif" font-size="14" lengthAdjust="spacing" textLength="108" x="149" y="678.4795">String webLink</text><line style="stroke:#181818;stroke-width:0.5;" x1="144" x2="309" y1="685.7813" y2="685.7813"/></g><!--MD5=[8dd69abe0a0990be8af5a76a28248f99]
class Contains--><g id="elem_Contains"><rect codeLine="45" fill="#F1F1F1" height="64.2969" id="Contains" rx="2.5" ry="2.5" style="stroke:#181818;stroke-width:0.5;" width="95" x="264" y="431.7969"/><ellipse cx="279" cy="447.7969" fill="#ADD1B2" rx="11" ry="11" style="stroke:#181818;stroke-width:1.0;"/><path d="M281.3438,443.4688 C280.4063,443.0313 279.8125,442.8906 278.9375,442.8906 C276.3125,442.8906 274.3125,444.9688 274.3125,447.6875 L274.3125,448.8125 C274.3125,451.3906 276.4219,453.2813 279.3125,453.2813 C280.5313,453.2813 281.6875,452.9844 282.4375,452.4375 C283.0156,452.0313 283.3438,451.5781 283.3438,451.1875 C283.3438,450.7344 282.9531,450.3438 282.4844,450.3438 C282.2656,450.3438 282.0625,450.4219 281.875,450.6094 C281.4219,451.0938 281.4219,451.0938 281.2344,451.1875 C280.8125,451.4531 280.125,451.5781 279.3594,451.5781 C277.3125,451.5781 276.0156,450.4844 276.0156,448.7813 L276.0156,447.6875 C276.0156,445.9063 277.2656,444.5938 279,444.5938 C279.5781,444.5938 280.1875,444.75 280.6563,445 C281.1406,445.2813 281.3125,445.5 281.4063,445.9063 C281.4688,446.3125 281.5,446.4375 281.6406,446.5625 C281.7813,446.7031 282.0156,446.8125 282.2344,446.8125 C282.5,446.8125 282.7656,446.6719 282.9375,446.4531 C283.0469,446.2969 283.0781,446.1094 283.0781,445.6875 L283.0781,444.2656 C283.0781,443.8281 283.0625,443.7031 282.9688,443.5469 C282.8125,443.2813 282.5313,443.1406 282.2344,443.1406 C281.9375,443.1406 281.7344,443.2344 281.5156,443.5469 L281.3438,443.4688 Z " fill="#000000"/><text fill="#000000" font-family="sans-serif" font-size="14" lengthAdjust="spacing" textLength="63" x="293" y="452.6436">Contains</text><line style="stroke:#181818;stroke-width:0.5;" x1="265" x2="358" y1="463.7969" y2="463.7969"/><text fill="#000000" font-family="sans-serif" font-size="14" lengthAdjust="spacing" textLength="79" x="270" y="480.792">int amount</text><line style="stroke:#181818;stroke-width:0.5;" x1="265" x2="358" y1="488.0938" y2="488.0938"/></g><ellipse cx="226.5" cy="463.7969" fill="#000000" rx="2" ry="2" style="stroke:none;stroke-width:1.0;"/><!--MD5=[b8520bacc38aa793ad172b486fc0ca31]
link Person to Observation--><g id="link_Person_Observation"><path codeLine="49" d="M241.5,222.5569 C241.5,243.4529 241.5,264.7149 241.5,282.1689 " fill="none" id="Person-Observation" style="stroke:#181818;stroke-width:1.0;"/><text fill="#000000" font-family="sans-serif" font-size="13" lengthAdjust="spacing" textLength="8" x="233.1688" y="242.6267">1</text><text fill="#000000" font-family="sans-serif" font-size="13" lengthAdjust="spacing" textLength="23" x="216.5953" y="271.3092">1..*</text></g><!--MD5=[38791a080360d6e62b496d3f37116fdf]
link Observation to Environment--><g id="link_Observation_Environment"><path codeLine="51" d="M301.528,361.0459 C332.501,380.2659 370.287,403.7139 401.776,423.2539 " fill="none" id="Observation-Environment" style="stroke:#181818;stroke-width:1.0;"/><text fill="#000000" font-family="sans-serif" font-size="13" lengthAdjust="spacing" textLength="7" x="309.6675" y="362.087">*</text><text fill="#000000" font-family="sans-serif" font-size="13" lengthAdjust="spacing" textLength="8" x="382.1359" y="412.1097">1</text></g><!--MD5=[9cc9043c8df3bf1421df2d2891f0f789]
link Observation to Province--><g id="link_Observation_Province"><path codeLine="52" d="M202.528,363.6289 C181.335,385.2889 155.511,411.6819 135.835,431.7929 " fill="none" id="Observation-Province" style="stroke:#181818;stroke-width:1.0;"/><text fill="#000000" font-family="sans-serif" font-size="13" lengthAdjust="spacing" textLength="7" x="189.2899" y="382.8341">*</text><text fill="#000000" font-family="sans-serif" font-size="13" lengthAdjust="spacing" textLength="8" x="133.2666" y="420.6952">1</text></g><!--MD5=[99bb0b43d346e31daed353149f04bf45]
link District to Province--><g id="link_District_Province"><path codeLine="54" d="M83.0082,354.9909 C87.7842,377.8839 94.2426,408.8389 99.0136,431.7069 " fill="none" id="District-Province" style="stroke:#181818;stroke-width:1.0;"/><text fill="#000000" font-family="sans-serif" font-size="13" lengthAdjust="spacing" textLength="8" x="75.5255" y="375.2277">1</text><text fill="#000000" font-family="sans-serif" font-size="13" lengthAdjust="spacing" textLength="23" x="72.3039" y="420.5914">1..*</text></g><!--MD5=[15641f55c099e8df74f1e9757e17c2e6]
link Observation to apoint1208810--><g id="link_Observation_apoint1208810"><path d="M237.202,363.6289 C233.115,401.4939 227.468,453.8239 226.611,461.7689 " fill="none" id="Observation-apoint1208810" style="stroke:#181818;stroke-width:1.0;"/><text fill="#000000" font-family="sans-serif" font-size="13" lengthAdjust="spacing" textLength="23" x="211.8817" y="382.8341">1..*</text></g><!--MD5=[bdcf62c3d28a0137100dd36a4f3762a1]
link apoint1208810 to Species--><g id="link_apoint1208810_Species"><path d="M226.5,465.8379 C226.5,473.5109 226.5,522.1829 226.5,564.1859 " fill="none" id="apoint1208810-Species" style="stroke:#181818;stroke-width:1.0;"/><text fill="#000000" font-family="sans-serif" font-size="13" lengthAdjust="spacing" textLength="23" x="202.2422" y="553.3464">1..*</text></g><!--MD5=[9be7588696586ce486c55ecbc1ed12f2]
link apoint1208810 to Contains--><g id="link_apoint1208810_Contains"><path d="M228.824,463.7969 C240.451,463.7969 252.077,463.7969 263.703,463.7969 " fill="none" id="apoint1208810-Contains" style="stroke:#181818;stroke-width:1.0;stroke-dasharray:7.0,7.0;"/></g><!--MD5=[50d2aa6690780c115027f820f97e0fb4]
link Species to Family--><g id="link_Species_Family"><path codeLine="59" d="M226.5,693.5299 C226.5,714.1439 226.5,736.0842 226.5,753.229 " fill="none" id="Species-Family" style="stroke:#181818;stroke-width:1.0;"/><text fill="#000000" font-family="sans-serif" font-size="13" lengthAdjust="spacing" textLength="23" x="202.1703" y="713.9284">1..*</text><text fill="#000000" font-family="sans-serif" font-size="13" lengthAdjust="spacing" textLength="8" x="217.675" y="742.1181">1</text></g><!--MD5=[a9b813bb02366459df4cdcbfc45233a8]
@startuml
title Classes - Class Diagram

    class Person {
        String name
        String surname
        String address
        Date dateOfBirth
        String telNr
        String email
        boolean isMember
        int donationAmount
    }
    
    class Observation {
      Date day
      Time period
    }
    
    class District {
      <<PK>> String name
    }
    
    class Province {
      <<PK>> String name
    }
    
    class Family {
      <<PK>> String name
    }
    
    class Environment {
      <<PK>> String name
      String description
    }

    class Species {
        <<PK>> String name
        String scientificName
        String description
        boolean isMigratory
        String webLink
    }
    
    
    class Contains {
      int amount
    }

    Person "1" - - "1..*" Observation

    Observation "*" - - "1" Environment
    Observation "*" - - "1" Province
    
    District "1" - - "1..*" Province

    Observation "1..*" - - "1..*" Species
    (Observation, Species) .. Contains

    Species "1..*" - - "1" Family
@enduml

PlantUML version 1.2022.2(Sat Mar 05 16:30:19 UTC 2022)
(GPL source distribution)
Java Runtime: Java(TM) SE Runtime Environment
JVM: Java HotSpot(TM) 64-Bit Server VM
Default Encoding: UTF-8
Language: en
Country: US
--></g></svg>