<?xml version="1.0" encoding="UTF-8" standalone="no"?><svg xmlns="http://www.w3.org/2000/svg" xmlns:xlink="http://www.w3.org/1999/xlink" contentStyleType="text/css" height="338px" preserveAspectRatio="none" style="width:950px;height:338px;background:#FFFFFF;" version="1.1" viewBox="0 0 950 338" width="950px" zoomAndPan="magnify"><defs/><g><!--MD5=[3400392e798d1742d69710e26f28944e]
class Gruppe--><g id="elem_Gruppe"><rect codeLine="15" fill="#F1F1F1" height="80.5938" id="Gruppe" rx="2.5" ry="2.5" style="stroke:#181818;stroke-width:0.5;" width="165" x="7" y="181"/><ellipse cx="58.25" cy="197" fill="#ADD1B2" rx="11" ry="11" style="stroke:#181818;stroke-width:1.0;"/><path d="M60.5938,192.6719 C59.6563,192.2344 59.0625,192.0938 58.1875,192.0938 C55.5625,192.0938 53.5625,194.1719 53.5625,196.8906 L53.5625,198.0156 C53.5625,200.5938 55.6719,202.4844 58.5625,202.4844 C59.7813,202.4844 60.9375,202.1875 61.6875,201.6406 C62.2656,201.2344 62.5938,200.7813 62.5938,200.3906 C62.5938,199.9375 62.2031,199.5469 61.7344,199.5469 C61.5156,199.5469 61.3125,199.625 61.125,199.8125 C60.6719,200.2969 60.6719,200.2969 60.4844,200.3906 C60.0625,200.6563 59.375,200.7813 58.6094,200.7813 C56.5625,200.7813 55.2656,199.6875 55.2656,197.9844 L55.2656,196.8906 C55.2656,195.1094 56.5156,193.7969 58.25,193.7969 C58.8281,193.7969 59.4375,193.9531 59.9063,194.2031 C60.3906,194.4844 60.5625,194.7031 60.6563,195.1094 C60.7188,195.5156 60.75,195.6406 60.8906,195.7656 C61.0313,195.9063 61.2656,196.0156 61.4844,196.0156 C61.75,196.0156 62.0156,195.875 62.1875,195.6563 C62.2969,195.5 62.3281,195.3125 62.3281,194.8906 L62.3281,193.4688 C62.3281,193.0313 62.3125,192.9063 62.2188,192.75 C62.0625,192.4844 61.7813,192.3438 61.4844,192.3438 C61.1875,192.3438 60.9844,192.4375 60.7656,192.75 L60.5938,192.6719 Z " fill="#000000"/><text fill="#000000" font-family="sans-serif" font-size="14" lengthAdjust="spacing" textLength="54" x="78.75" y="201.8467">Gruppe</text><line style="stroke:#181818;stroke-width:0.5;" x1="8" x2="171" y1="213" y2="213"/><text fill="#000000" font-family="sans-serif" font-size="14" lengthAdjust="spacing" textLength="134" x="13" y="229.9951">«PK» name : string</text><text fill="#000000" font-family="sans-serif" font-size="14" lengthAdjust="spacing" textLength="153" x="13" y="246.292">beschreibung : string</text><line style="stroke:#181818;stroke-width:0.5;" x1="8" x2="171" y1="253.5938" y2="253.5938"/></g><!--MD5=[09ce52be0ee7de43c61b6e2d59bf108b]
class Person--><g id="elem_Person"><rect codeLine="20" fill="#F1F1F1" height="129.4844" id="Person" rx="2.5" ry="2.5" style="stroke:#181818;stroke-width:0.5;" width="160" x="417.5" y="157"/><ellipse cx="468.75" cy="173" fill="#ADD1B2" rx="11" ry="11" style="stroke:#181818;stroke-width:1.0;"/><path d="M471.0938,168.6719 C470.1563,168.2344 469.5625,168.0938 468.6875,168.0938 C466.0625,168.0938 464.0625,170.1719 464.0625,172.8906 L464.0625,174.0156 C464.0625,176.5938 466.1719,178.4844 469.0625,178.4844 C470.2813,178.4844 471.4375,178.1875 472.1875,177.6406 C472.7656,177.2344 473.0938,176.7813 473.0938,176.3906 C473.0938,175.9375 472.7031,175.5469 472.2344,175.5469 C472.0156,175.5469 471.8125,175.625 471.625,175.8125 C471.1719,176.2969 471.1719,176.2969 470.9844,176.3906 C470.5625,176.6563 469.875,176.7813 469.1094,176.7813 C467.0625,176.7813 465.7656,175.6875 465.7656,173.9844 L465.7656,172.8906 C465.7656,171.1094 467.0156,169.7969 468.75,169.7969 C469.3281,169.7969 469.9375,169.9531 470.4063,170.2031 C470.8906,170.4844 471.0625,170.7031 471.1563,171.1094 C471.2188,171.5156 471.25,171.6406 471.3906,171.7656 C471.5313,171.9063 471.7656,172.0156 471.9844,172.0156 C472.25,172.0156 472.5156,171.875 472.6875,171.6563 C472.7969,171.5 472.8281,171.3125 472.8281,170.8906 L472.8281,169.4688 C472.8281,169.0313 472.8125,168.9063 472.7188,168.75 C472.5625,168.4844 472.2813,168.3438 471.9844,168.3438 C471.6875,168.3438 471.4844,168.4375 471.2656,168.75 L471.0938,168.6719 Z " fill="#000000"/><text fill="#000000" font-family="sans-serif" font-size="14" lengthAdjust="spacing" textLength="49" x="489.25" y="177.8467">Person</text><line style="stroke:#181818;stroke-width:0.5;" x1="418.5" x2="576.5" y1="189" y2="189"/><text fill="#000000" font-family="sans-serif" font-size="14" lengthAdjust="spacing" textLength="133" x="423.5" y="205.9951">«PK» email : string</text><text fill="#000000" font-family="sans-serif" font-size="14" lengthAdjust="spacing" textLength="118" x="423.5" y="222.292">vorname : string</text><text fill="#000000" font-family="sans-serif" font-size="14" lengthAdjust="spacing" textLength="129" x="423.5" y="238.5889">nachname : string</text><text fill="#000000" font-family="sans-serif" font-size="14" lengthAdjust="spacing" textLength="148" x="423.5" y="254.8857">geburtsdatum : date</text><text fill="#000000" font-family="sans-serif" font-size="14" lengthAdjust="spacing" textLength="134" x="423.5" y="271.1826">geschlecht : string</text><line style="stroke:#181818;stroke-width:0.5;" x1="418.5" x2="576.5" y1="278.4844" y2="278.4844"/></g><!--MD5=[daaef5bbea0dcc8788823256e0b44269]
class Nachricht--><g id="elem_Nachricht"><rect codeLine="34" fill="#F1F1F1" height="113.1875" id="Nachricht" rx="2.5" ry="2.5" style="stroke:#181818;stroke-width:0.5;" width="120" x="823" y="165"/><ellipse cx="846.55" cy="181" fill="#ADD1B2" rx="11" ry="11" style="stroke:#181818;stroke-width:1.0;"/><path d="M848.8938,176.6719 C847.9563,176.2344 847.3625,176.0938 846.4875,176.0938 C843.8625,176.0938 841.8625,178.1719 841.8625,180.8906 L841.8625,182.0156 C841.8625,184.5938 843.9719,186.4844 846.8625,186.4844 C848.0813,186.4844 849.2375,186.1875 849.9875,185.6406 C850.5656,185.2344 850.8938,184.7813 850.8938,184.3906 C850.8938,183.9375 850.5031,183.5469 850.0344,183.5469 C849.8156,183.5469 849.6125,183.625 849.425,183.8125 C848.9719,184.2969 848.9719,184.2969 848.7844,184.3906 C848.3625,184.6563 847.675,184.7813 846.9094,184.7813 C844.8625,184.7813 843.5656,183.6875 843.5656,181.9844 L843.5656,180.8906 C843.5656,179.1094 844.8156,177.7969 846.55,177.7969 C847.1281,177.7969 847.7375,177.9531 848.2063,178.2031 C848.6906,178.4844 848.8625,178.7031 848.9563,179.1094 C849.0188,179.5156 849.05,179.6406 849.1906,179.7656 C849.3313,179.9063 849.5656,180.0156 849.7844,180.0156 C850.05,180.0156 850.3156,179.875 850.4875,179.6563 C850.5969,179.5 850.6281,179.3125 850.6281,178.8906 L850.6281,177.4688 C850.6281,177.0313 850.6125,176.9063 850.5188,176.75 C850.3625,176.4844 850.0813,176.3438 849.7844,176.3438 C849.4875,176.3438 849.2844,176.4375 849.0656,176.75 L848.8938,176.6719 Z " fill="#000000"/><text fill="#000000" font-family="sans-serif" font-size="14" lengthAdjust="spacing" textLength="69" x="862.45" y="185.8467">Nachricht</text><line style="stroke:#181818;stroke-width:0.5;" x1="824" x2="942" y1="197" y2="197"/><text fill="#000000" font-family="sans-serif" font-size="14" lengthAdjust="spacing" textLength="85" x="829" y="213.9951">«PK» id : int</text><text fill="#000000" font-family="sans-serif" font-size="14" lengthAdjust="spacing" textLength="108" x="829" y="230.292">betreff : string</text><text fill="#000000" font-family="sans-serif" font-size="14" lengthAdjust="spacing" textLength="92" x="829" y="246.5889">datum : date</text><text fill="#000000" font-family="sans-serif" font-size="14" lengthAdjust="spacing" textLength="86" x="829" y="262.8857">text : string</text><line style="stroke:#181818;stroke-width:0.5;" x1="824" x2="942" y1="270.1875" y2="270.1875"/></g><!--MD5=[a805b40f8193e3b705560a3818c5c109]
class Photo--><g id="elem_Photo"><rect codeLine="28" fill="#F1F1F1" height="96.8906" id="Photo" rx="2.5" ry="2.5" style="stroke:#181818;stroke-width:0.5;" width="165" x="415" y="7"/><ellipse cx="471.75" cy="23" fill="#ADD1B2" rx="11" ry="11" style="stroke:#181818;stroke-width:1.0;"/><path d="M474.0938,18.6719 C473.1563,18.2344 472.5625,18.0938 471.6875,18.0938 C469.0625,18.0938 467.0625,20.1719 467.0625,22.8906 L467.0625,24.0156 C467.0625,26.5938 469.1719,28.4844 472.0625,28.4844 C473.2813,28.4844 474.4375,28.1875 475.1875,27.6406 C475.7656,27.2344 476.0938,26.7813 476.0938,26.3906 C476.0938,25.9375 475.7031,25.5469 475.2344,25.5469 C475.0156,25.5469 474.8125,25.625 474.625,25.8125 C474.1719,26.2969 474.1719,26.2969 473.9844,26.3906 C473.5625,26.6563 472.875,26.7813 472.1094,26.7813 C470.0625,26.7813 468.7656,25.6875 468.7656,23.9844 L468.7656,22.8906 C468.7656,21.1094 470.0156,19.7969 471.75,19.7969 C472.3281,19.7969 472.9375,19.9531 473.4063,20.2031 C473.8906,20.4844 474.0625,20.7031 474.1563,21.1094 C474.2188,21.5156 474.25,21.6406 474.3906,21.7656 C474.5313,21.9063 474.7656,22.0156 474.9844,22.0156 C475.25,22.0156 475.5156,21.875 475.6875,21.6563 C475.7969,21.5 475.8281,21.3125 475.8281,20.8906 L475.8281,19.4688 C475.8281,19.0313 475.8125,18.9063 475.7188,18.75 C475.5625,18.4844 475.2813,18.3438 474.9844,18.3438 C474.6875,18.3438 474.4844,18.4375 474.2656,18.75 L474.0938,18.6719 Z " fill="#000000"/><text fill="#000000" font-family="sans-serif" font-size="14" lengthAdjust="spacing" textLength="43" x="492.25" y="27.8467">Photo</text><line style="stroke:#181818;stroke-width:0.5;" x1="416" x2="579" y1="39" y2="39"/><text fill="#000000" font-family="sans-serif" font-size="14" lengthAdjust="spacing" textLength="112" x="421" y="55.9951">«PK» url : string</text><text fill="#000000" font-family="sans-serif" font-size="14" lengthAdjust="spacing" textLength="86" x="421" y="72.292">title : string</text><text fill="#000000" font-family="sans-serif" font-size="14" lengthAdjust="spacing" textLength="153" x="421" y="88.5889">beschreibung : string</text><line style="stroke:#181818;stroke-width:0.5;" x1="416" x2="579" y1="95.8906" y2="95.8906"/></g><!--MD5=[b3431eb37e762f28856d2b4fb5a0b7bc]
link Gruppe to Person--><g id="link_Gruppe_Person"><path codeLine="4" d="M172.065,235 C243.666,235 346.647,235 417.489,235 " fill="none" id="Gruppe-Person" style="stroke:#181818;stroke-width:1.0;"/><polygon fill="#000000" points="249.777,243.5664,258.8221,246.5053,258.8221,240.6275,249.777,243.5664" style="stroke:#000000;stroke-width:1.0;"/><text fill="#000000" font-family="sans-serif" font-size="13" lengthAdjust="spacing" textLength="30" x="263.777" y="248.0669">ist in</text><text fill="#000000" font-family="sans-serif" font-size="13" lengthAdjust="spacing" textLength="7" x="179.9991" y="249.0277">*</text><text fill="#000000" font-family="sans-serif" font-size="13" lengthAdjust="spacing" textLength="7" x="402.5294" y="249.0517">*</text></g><!--MD5=[b3431eb37e762f28856d2b4fb5a0b7bc]
link Gruppe to Person--><g id="link_Gruppe_Person"><path codeLine="5" d="M172.065,208 C243.666,208 346.647,208 417.489,208 " fill="none" id="Gruppe-Person-1" style="stroke:#181818;stroke-width:1.0;"/><polygon fill="#000000" points="220.777,216.5664,229.8221,219.5053,229.8221,213.6275,220.777,216.5664" style="stroke:#000000;stroke-width:1.0;"/><text fill="#000000" font-family="sans-serif" font-size="13" lengthAdjust="spacing" textLength="59" x="234.777" y="221.0669">ist admin</text><text fill="#000000" font-family="sans-serif" font-size="13" lengthAdjust="spacing" textLength="7" x="179.9991" y="219.5386">*</text><text fill="#000000" font-family="sans-serif" font-size="13" lengthAdjust="spacing" textLength="8" x="401.4817" y="219.4783">1</text></g><!--MD5=[0c117e7e2003580479440821e80903bd]
link Person to Nachricht--><g id="link_Person_Nachricht"><path codeLine="7" d="M577.844,240.3333 C650.883,240.3333 757.023,240.3333 822.938,240.3333 " fill="none" id="Person-Nachricht" style="stroke:#181818;stroke-width:1.0;"/><polygon fill="#000000" points="651.391,248.8997,642.3459,245.9608,642.3459,251.8386,651.391,248.8997" style="stroke:#000000;stroke-width:1.0;"/><text fill="#000000" font-family="sans-serif" font-size="13" lengthAdjust="spacing" textLength="44" x="655.391" y="253.4002">sendet</text><text fill="#000000" font-family="sans-serif" font-size="13" lengthAdjust="spacing" textLength="8" x="585.6195" y="254.8116">1</text><text fill="#000000" font-family="sans-serif" font-size="13" lengthAdjust="spacing" textLength="7" x="808.1914" y="255.6062">*</text></g><!--MD5=[0c117e7e2003580479440821e80903bd]
link Person to Nachricht--><g id="link_Person_Nachricht"><path codeLine="8" d="M577.844,202.667 C650.883,202.667 757.023,202.667 822.938,202.667 " fill="none" id="Person-Nachricht-1" style="stroke:#181818;stroke-width:1.0;"/><polygon fill="#000000" points="633.391,211.2334,624.3459,208.2945,624.3459,214.1723,633.391,211.2334" style="stroke:#000000;stroke-width:1.0;"/><text fill="#000000" font-family="sans-serif" font-size="13" lengthAdjust="spacing" textLength="62" x="637.391" y="215.7339">bekommt</text><text fill="#000000" font-family="sans-serif" font-size="13" lengthAdjust="spacing" textLength="8" x="585.6195" y="213.6729">1</text><text fill="#000000" font-family="sans-serif" font-size="13" lengthAdjust="spacing" textLength="7" x="808.1914" y="213.3494">*</text></g><!--MD5=[6729febe466e5eabda758e1fc7b722d3]
link Photo to Person--><g id="link_Photo_Person"><path codeLine="10" d="M471,104.408 C471,120.857 471,139.469 471,156.934 " fill="none" id="Photo-Person" style="stroke:#181818;stroke-width:1.0;"/><polygon fill="#000000" points="476,134.2374,473.0611,143.2825,478.9389,143.2825,476,134.2374" style="stroke:#000000;stroke-width:1.0;"/><text fill="#000000" font-family="sans-serif" font-size="13" lengthAdjust="spacing" textLength="41" x="485" y="143.7379">macht</text><text fill="#000000" font-family="sans-serif" font-size="13" lengthAdjust="spacing" textLength="7" x="459.9688" y="124.071">*</text><text fill="#000000" font-family="sans-serif" font-size="13" lengthAdjust="spacing" textLength="8" x="459.6641" y="146.0994">1</text></g><!--MD5=[6729febe466e5eabda758e1fc7b722d3]
link Photo to Person--><g id="link_Photo_Person"><path codeLine="11" d="M525,104.408 C525,120.857 525,139.469 525,156.934 " fill="none" id="Photo-Person-1" style="stroke:#181818;stroke-width:1.0;"/><polygon fill="#000000" points="530,117.2374,527.0611,126.2825,532.9389,126.2825,530,117.2374" style="stroke:#000000;stroke-width:1.0;"/><text fill="#000000" font-family="sans-serif" font-size="13" lengthAdjust="spacing" textLength="86" x="539" y="126.7379">ist abgebildet</text><text fill="#000000" font-family="sans-serif" font-size="13" lengthAdjust="spacing" textLength="7" x="521.225" y="124.071">*</text><text fill="#000000" font-family="sans-serif" font-size="13" lengthAdjust="spacing" textLength="7" x="528.3906" y="146.0994">*</text></g><!--MD5=[0931c9952d205bd1deb8f05c118202b2]
link Person to Person--><g id="link_Person_Person"><path codeLine="13" d="M417.364,274 C360.417,274 294,274 294,274 C294,274 294,304 294,304 C294,304 702,304 702,304 C702,304 702,282 702,282 C702,282 635.029,282 577.737,282 " fill="none" id="Person-Person" style="stroke:#181818;stroke-width:1.0;"/><polygon fill="#000000" points="407.45,312.5664,404.5111,321.6115,410.3889,321.6115,407.45,312.5664" style="stroke:#000000;stroke-width:1.0;"/><text fill="#000000" font-family="sans-serif" font-size="13" lengthAdjust="spacing" textLength="67" x="421.45" y="322.0669">hat freund</text><text fill="#000000" font-family="sans-serif" font-size="13" lengthAdjust="spacing" textLength="23" x="386.489" y="291.208">1..*</text><text fill="#000000" font-family="sans-serif" font-size="13" lengthAdjust="spacing" textLength="23" x="585.6206" y="299.8955">0..*</text></g><!--MD5=[ddf2016624fe2784430cb316b3612625]
@startuml
left to right direction
skinparam linetype ortho

Gruppe "*" - - - - - "*" Person : < ist in
Gruppe "*" - - - - - "1" Person : < ist admin

Person "1" - - - - - "*" Nachricht : sendet >
Person "1" - - - - - "*" Nachricht : bekommt >

Photo "*" - "1" Person : < macht 
Photo "*" - "*" Person : < ist abgebildet

Person "1..*" - "0..*" Person : hat freund >

class Gruppe {
  <<PK>> name : string
  beschreibung : string
}

class Person {
  <<PK>> email : string
  vorname : string
  nachname : string
  geburtsdatum : date
  geschlecht : string
}

class Photo {
  <<PK>> url : string
  title : string
  beschreibung : string
}

class Nachricht {
  <<PK>> id : int
  betreff : string
  datum : date
  text : string
}
@enduml

PlantUML version 1.2022.4beta1(Unknown compile time)
(GPL source distribution)
Java Runtime: Java(TM) SE Runtime Environment
JVM: Java HotSpot(TM) 64-Bit Server VM
Default Encoding: UTF-8
Language: en
Country: US
--></g></svg>