<?xml version="1.0" encoding="UTF-8" standalone="no"?><svg xmlns="http://www.w3.org/2000/svg" xmlns:xlink="http://www.w3.org/1999/xlink" contentScriptType="application/ecmascript" contentStyleType="text/css" height="859px" preserveAspectRatio="none" style="width:513px;height:859px;background:#FFFFFF;" version="1.1" viewBox="0 0 513 859" width="513px" zoomAndPan="magnify"><defs><filter height="300%" id="f1ho8jr1xlff1u" width="300%" x="-1" y="-1"><feGaussianBlur result="blurOut" stdDeviation="2.0"/><feColorMatrix in="blurOut" result="blurOut2" type="matrix" values="0 0 0 0 0 0 0 0 0 0 0 0 0 0 0 0 0 0 .4 0"/><feOffset dx="4.0" dy="4.0" in="blurOut2" result="blurOut3"/><feBlend in="SourceGraphic" in2="blurOut3" mode="normal"/></filter></defs><g><!--MD5=[72136138052d025cffdce3c22fbd185f]
class Product--><rect codeLine="1" fill="#FEFECE" filter="url(#f1ho8jr1xlff1u)" height="137.8913" id="Product" style="stroke:#A80036;stroke-width:1.5;" width="137" x="7" y="382"/><ellipse cx="49.9" cy="398" fill="#ADD1B2" rx="11" ry="11" style="stroke:#A80036;stroke-width:1.0;"/><path d="M49.3688,404.9219 Q47.6188,404.9219 46.4781,404.1875 Q45.3531,403.4375 44.7906,402.0938 Q44.2438,400.7344 44.2438,398.9375 Q44.2438,396.9063 44.9,395.4531 Q45.5563,394 46.8375,393.2188 Q48.1188,392.4375 49.9938,392.4375 Q50.8844,392.4375 51.5563,392.625 Q52.2281,392.7969 52.9156,393.1406 L52.1031,395.1563 Q51.4781,394.8438 50.9313,394.7188 Q50.4,394.5938 49.9156,394.5938 Q48.7438,394.5938 48.0406,395.125 Q47.3375,395.6563 47.0406,396.6094 Q46.7438,397.5625 46.7438,398.8281 Q46.7438,400.8438 47.4625,401.8125 Q48.1813,402.7656 49.775,402.7656 Q50.3688,402.7656 50.9938,402.6094 Q51.6188,402.4531 52.4469,402.0781 L52.4469,404.2969 Q51.7125,404.6094 50.9156,404.7656 Q50.1344,404.9219 49.3688,404.9219 Z " fill="#000000"/><text fill="#000000" font-family="sans-serif" font-size="12" lengthAdjust="spacing" textLength="43" x="70.1" y="402.656">Product</text><line style="stroke:#A80036;stroke-width:1.5;" x1="8" x2="143" y1="414" y2="414"/><text fill="#000000" font-family="sans-serif" font-size="11" lengthAdjust="spacing" textLength="93" x="13" y="429.7589">«PK» String name</text><text fill="#000000" font-family="sans-serif" font-size="11" lengthAdjust="spacing" textLength="81" x="13" y="444.7408">String category</text><text fill="#000000" font-family="sans-serif" font-size="11" lengthAdjust="spacing" textLength="47" x="13" y="459.7227">int count</text><text fill="#000000" font-family="sans-serif" font-size="11" lengthAdjust="spacing" textLength="125" x="13" y="474.7046">double productionPrice</text><text fill="#000000" font-family="sans-serif" font-size="11" lengthAdjust="spacing" textLength="114" x="13" y="489.6865">double purchasePrice</text><text fill="#000000" font-family="sans-serif" font-size="11" lengthAdjust="spacing" textLength="116" x="13" y="504.6684">double grossSalePrice</text><line style="stroke:#A80036;stroke-width:1.5;" x1="8" x2="143" y1="511.8913" y2="511.8913"/><!--MD5=[e460c25590b156c4aeacdc7160c20043]
class GiftBasket--><rect codeLine="10" fill="#FEFECE" filter="url(#f1ho8jr1xlff1u)" height="77.9638" id="GiftBasket" style="stroke:#A80036;stroke-width:1.5;" width="98" x="211" y="8"/><ellipse cx="229.6" cy="24" fill="#ADD1B2" rx="11" ry="11" style="stroke:#A80036;stroke-width:1.0;"/><path d="M229.0688,30.9219 Q227.3188,30.9219 226.1781,30.1875 Q225.0531,29.4375 224.4906,28.0938 Q223.9438,26.7344 223.9438,24.9375 Q223.9438,22.9063 224.6,21.4531 Q225.2563,20 226.5375,19.2188 Q227.8188,18.4375 229.6938,18.4375 Q230.5844,18.4375 231.2563,18.625 Q231.9281,18.7969 232.6156,19.1406 L231.8031,21.1563 Q231.1781,20.8438 230.6313,20.7188 Q230.1,20.5938 229.6156,20.5938 Q228.4438,20.5938 227.7406,21.125 Q227.0375,21.6563 226.7406,22.6094 Q226.4438,23.5625 226.4438,24.8281 Q226.4438,26.8438 227.1625,27.8125 Q227.8813,28.7656 229.475,28.7656 Q230.0688,28.7656 230.6938,28.6094 Q231.3188,28.4531 232.1469,28.0781 L232.1469,30.2969 Q231.4125,30.6094 230.6156,30.7656 Q229.8344,30.9219 229.0688,30.9219 Z " fill="#000000"/><text fill="#000000" font-family="sans-serif" font-size="12" lengthAdjust="spacing" textLength="58" x="244.4" y="28.656">GiftBasket</text><line style="stroke:#A80036;stroke-width:1.5;" x1="212" x2="308" y1="40" y2="40"/><text fill="#000000" font-family="sans-serif" font-size="11" lengthAdjust="spacing" textLength="86" x="217" y="55.7589">double salePrice</text><text fill="#000000" font-family="sans-serif" font-size="11" lengthAdjust="spacing" textLength="76" x="217" y="70.7408">double weight</text><line style="stroke:#A80036;stroke-width:1.5;" x1="212" x2="308" y1="77.9638" y2="77.9638"/><!--MD5=[91ffdd76f1c8795364bfc7c752e5da6a]
class Ingredient--><rect codeLine="15" fill="#FEFECE" filter="url(#f1ho8jr1xlff1u)" height="62.9819" id="Ingredient" style="stroke:#A80036;stroke-width:1.5;" width="105" x="23" y="619.5"/><ellipse cx="44.75" cy="635.5" fill="#ADD1B2" rx="11" ry="11" style="stroke:#A80036;stroke-width:1.0;"/><path d="M44.2188,642.4219 Q42.4688,642.4219 41.3281,641.6875 Q40.2031,640.9375 39.6406,639.5938 Q39.0938,638.2344 39.0938,636.4375 Q39.0938,634.4063 39.75,632.9531 Q40.4063,631.5 41.6875,630.7188 Q42.9688,629.9375 44.8438,629.9375 Q45.7344,629.9375 46.4063,630.125 Q47.0781,630.2969 47.7656,630.6406 L46.9531,632.6563 Q46.3281,632.3438 45.7813,632.2188 Q45.25,632.0938 44.7656,632.0938 Q43.5938,632.0938 42.8906,632.625 Q42.1875,633.1563 41.8906,634.1094 Q41.5938,635.0625 41.5938,636.3281 Q41.5938,638.3438 42.3125,639.3125 Q43.0313,640.2656 44.625,640.2656 Q45.2188,640.2656 45.8438,640.1094 Q46.4688,639.9531 47.2969,639.5781 L47.2969,641.7969 Q46.5625,642.1094 45.7656,642.2656 Q44.9844,642.4219 44.2188,642.4219 Z " fill="#000000"/><text fill="#000000" font-family="sans-serif" font-size="12" lengthAdjust="spacing" textLength="58" x="60.25" y="640.156">Ingredient</text><line style="stroke:#A80036;stroke-width:1.5;" x1="24" x2="127" y1="651.5" y2="651.5"/><text fill="#000000" font-family="sans-serif" font-size="11" lengthAdjust="spacing" textLength="93" x="29" y="667.2589">«PK» String name</text><line style="stroke:#A80036;stroke-width:1.5;" x1="24" x2="127" y1="674.4819" y2="674.4819"/><!--MD5=[3ea633b366b7e3c88379499281652b08]
class Allergen--><rect codeLine="18" fill="#FEFECE" filter="url(#f1ho8jr1xlff1u)" height="62.9819" id="Allergen" style="stroke:#A80036;stroke-width:1.5;" width="105" x="23" y="782.5"/><ellipse cx="49.7" cy="798.5" fill="#ADD1B2" rx="11" ry="11" style="stroke:#A80036;stroke-width:1.0;"/><path d="M49.1688,805.4219 Q47.4188,805.4219 46.2781,804.6875 Q45.1531,803.9375 44.5906,802.5938 Q44.0438,801.2344 44.0438,799.4375 Q44.0438,797.4063 44.7,795.9531 Q45.3563,794.5 46.6375,793.7188 Q47.9188,792.9375 49.7938,792.9375 Q50.6844,792.9375 51.3563,793.125 Q52.0281,793.2969 52.7156,793.6406 L51.9031,795.6563 Q51.2781,795.3438 50.7313,795.2188 Q50.2,795.0938 49.7156,795.0938 Q48.5438,795.0938 47.8406,795.625 Q47.1375,796.1563 46.8406,797.1094 Q46.5438,798.0625 46.5438,799.3281 Q46.5438,801.3438 47.2625,802.3125 Q47.9813,803.2656 49.575,803.2656 Q50.1688,803.2656 50.7938,803.1094 Q51.4188,802.9531 52.2469,802.5781 L52.2469,804.7969 Q51.5125,805.1094 50.7156,805.2656 Q49.9344,805.4219 49.1688,805.4219 Z " fill="#000000"/><text fill="#000000" font-family="sans-serif" font-size="12" lengthAdjust="spacing" textLength="47" x="66.3" y="803.156">Allergen</text><line style="stroke:#A80036;stroke-width:1.5;" x1="24" x2="127" y1="814.5" y2="814.5"/><text fill="#000000" font-family="sans-serif" font-size="11" lengthAdjust="spacing" textLength="93" x="29" y="830.2589">«PK» String name</text><line style="stroke:#A80036;stroke-width:1.5;" x1="24" x2="127" y1="837.4819" y2="837.4819"/><!--MD5=[6d7d587a021629470fd0d5f8ef3407c9]
class Branch--><rect codeLine="22" fill="#FEFECE" filter="url(#f1ho8jr1xlff1u)" height="77.9638" id="Branch" style="stroke:#A80036;stroke-width:1.5;" width="110" x="18" y="8"/><ellipse cx="50.1" cy="24" fill="#ADD1B2" rx="11" ry="11" style="stroke:#A80036;stroke-width:1.0;"/><path d="M49.5688,30.9219 Q47.8188,30.9219 46.6781,30.1875 Q45.5531,29.4375 44.9906,28.0938 Q44.4438,26.7344 44.4438,24.9375 Q44.4438,22.9063 45.1,21.4531 Q45.7563,20 47.0375,19.2188 Q48.3188,18.4375 50.1938,18.4375 Q51.0844,18.4375 51.7563,18.625 Q52.4281,18.7969 53.1156,19.1406 L52.3031,21.1563 Q51.6781,20.8438 51.1313,20.7188 Q50.6,20.5938 50.1156,20.5938 Q48.9438,20.5938 48.2406,21.125 Q47.5375,21.6563 47.2406,22.6094 Q46.9438,23.5625 46.9438,24.8281 Q46.9438,26.8438 47.6625,27.8125 Q48.3813,28.7656 49.975,28.7656 Q50.5688,28.7656 51.1938,28.6094 Q51.8188,28.4531 52.6469,28.0781 L52.6469,30.2969 Q51.9125,30.6094 51.1156,30.7656 Q50.3344,30.9219 49.5688,30.9219 Z " fill="#000000"/><text fill="#000000" font-family="sans-serif" font-size="12" lengthAdjust="spacing" textLength="40" x="67.9" y="28.656">Branch</text><line style="stroke:#A80036;stroke-width:1.5;" x1="19" x2="127" y1="40" y2="40"/><text fill="#000000" font-family="sans-serif" font-size="11" lengthAdjust="spacing" textLength="98" x="24" y="55.7589">«PK» long number</text><text fill="#000000" font-family="sans-serif" font-size="11" lengthAdjust="spacing" textLength="76" x="24" y="70.7408">String address</text><line style="stroke:#A80036;stroke-width:1.5;" x1="19" x2="127" y1="77.9638" y2="77.9638"/><!--MD5=[d218c48b946d362ff1ecd879cabebcad]
class Room--><rect codeLine="26" fill="#FEFECE" filter="url(#f1ho8jr1xlff1u)" height="77.9638" id="Room" style="stroke:#A80036;stroke-width:1.5;" width="91" x="136" y="204"/><ellipse cx="163.15" cy="220" fill="#ADD1B2" rx="11" ry="11" style="stroke:#A80036;stroke-width:1.0;"/><path d="M162.6188,226.9219 Q160.8688,226.9219 159.7281,226.1875 Q158.6031,225.4375 158.0406,224.0938 Q157.4938,222.7344 157.4938,220.9375 Q157.4938,218.9063 158.15,217.4531 Q158.8063,216 160.0875,215.2188 Q161.3688,214.4375 163.2438,214.4375 Q164.1344,214.4375 164.8063,214.625 Q165.4781,214.7969 166.1656,215.1406 L165.3531,217.1563 Q164.7281,216.8438 164.1813,216.7188 Q163.65,216.5938 163.1656,216.5938 Q161.9938,216.5938 161.2906,217.125 Q160.5875,217.6563 160.2906,218.6094 Q159.9938,219.5625 159.9938,220.8281 Q159.9938,222.8438 160.7125,223.8125 Q161.4313,224.7656 163.025,224.7656 Q163.6188,224.7656 164.2438,224.6094 Q164.8688,224.4531 165.6969,224.0781 L165.6969,226.2969 Q164.9625,226.6094 164.1656,226.7656 Q163.3844,226.9219 162.6188,226.9219 Z " fill="#000000"/><text fill="#000000" font-family="sans-serif" font-size="12" lengthAdjust="spacing" textLength="32" x="179.85" y="224.656">Room</text><line style="stroke:#A80036;stroke-width:1.5;" x1="137" x2="226" y1="236" y2="236"/><text fill="#000000" font-family="sans-serif" font-size="11" lengthAdjust="spacing" textLength="59" x="142" y="251.7589">double size</text><text fill="#000000" font-family="sans-serif" font-size="11" lengthAdjust="spacing" textLength="79" x="142" y="266.7408">String purpose</text><line style="stroke:#A80036;stroke-width:1.5;" x1="137" x2="226" y1="273.9638" y2="273.9638"/><!--MD5=[c10c36ce2c02dedc3d02a76c5154070d]
class Quantity--><rect codeLine="31" fill="#FEFECE" filter="url(#f1ho8jr1xlff1u)" height="62.9819" id="Quantity" style="stroke:#A80036;stroke-width:1.5;" width="79" x="325.5" y="210.5"/><ellipse cx="340.5" cy="226.5" fill="#ADD1B2" rx="11" ry="11" style="stroke:#A80036;stroke-width:1.0;"/><path d="M339.9688,233.4219 Q338.2188,233.4219 337.0781,232.6875 Q335.9531,231.9375 335.3906,230.5938 Q334.8438,229.2344 334.8438,227.4375 Q334.8438,225.4063 335.5,223.9531 Q336.1563,222.5 337.4375,221.7188 Q338.7188,220.9375 340.5938,220.9375 Q341.4844,220.9375 342.1563,221.125 Q342.8281,221.2969 343.5156,221.6406 L342.7031,223.6563 Q342.0781,223.3438 341.5313,223.2188 Q341,223.0938 340.5156,223.0938 Q339.3438,223.0938 338.6406,223.625 Q337.9375,224.1563 337.6406,225.1094 Q337.3438,226.0625 337.3438,227.3281 Q337.3438,229.3438 338.0625,230.3125 Q338.7813,231.2656 340.375,231.2656 Q340.9688,231.2656 341.5938,231.1094 Q342.2188,230.9531 343.0469,230.5781 L343.0469,232.7969 Q342.3125,233.1094 341.5156,233.2656 Q340.7344,233.4219 339.9688,233.4219 Z " fill="#000000"/><text fill="#000000" font-family="sans-serif" font-size="12" lengthAdjust="spacing" textLength="47" x="354.5" y="231.156">Quantity</text><line style="stroke:#A80036;stroke-width:1.5;" x1="326.5" x2="403.5" y1="242.5" y2="242.5"/><text fill="#000000" font-family="sans-serif" font-size="11" lengthAdjust="spacing" textLength="61" x="331.5" y="258.2589">int quantity</text><line style="stroke:#A80036;stroke-width:1.5;" x1="326.5" x2="403.5" y1="265.4819" y2="265.4819"/><!--MD5=[e0bd77868626c22cfc0c5aeed1b8d67f]
class Sale--><rect codeLine="35" fill="#FEFECE" filter="url(#f1ho8jr1xlff1u)" height="77.9638" id="Sale" style="stroke:#A80036;stroke-width:1.5;" width="131" x="368.5" y="7"/><ellipse cx="417.75" cy="23" fill="#ADD1B2" rx="11" ry="11" style="stroke:#A80036;stroke-width:1.0;"/><path d="M417.2188,29.9219 Q415.4688,29.9219 414.3281,29.1875 Q413.2031,28.4375 412.6406,27.0938 Q412.0938,25.7344 412.0938,23.9375 Q412.0938,21.9063 412.75,20.4531 Q413.4063,19 414.6875,18.2188 Q415.9688,17.4375 417.8438,17.4375 Q418.7344,17.4375 419.4063,17.625 Q420.0781,17.7969 420.7656,18.1406 L419.9531,20.1563 Q419.3281,19.8438 418.7813,19.7188 Q418.25,19.5938 417.7656,19.5938 Q416.5938,19.5938 415.8906,20.125 Q415.1875,20.6563 414.8906,21.6094 Q414.5938,22.5625 414.5938,23.8281 Q414.5938,25.8438 415.3125,26.8125 Q416.0313,27.7656 417.625,27.7656 Q418.2188,27.7656 418.8438,27.6094 Q419.4688,27.4531 420.2969,27.0781 L420.2969,29.2969 Q419.5625,29.6094 418.7656,29.7656 Q417.9844,29.9219 417.2188,29.9219 Z " fill="#000000"/><text fill="#000000" font-family="sans-serif" font-size="12" lengthAdjust="spacing" textLength="24" x="438.25" y="27.656">Sale</text><line style="stroke:#A80036;stroke-width:1.5;" x1="369.5" x2="498.5" y1="39" y2="39"/><text fill="#000000" font-family="sans-serif" font-size="11" lengthAdjust="spacing" textLength="50" x="374.5" y="54.7589">Date date</text><text fill="#000000" font-family="sans-serif" font-size="11" lengthAdjust="spacing" textLength="119" x="374.5" y="69.7408">double invoiceAmount</text><line style="stroke:#A80036;stroke-width:1.5;" x1="369.5" x2="498.5" y1="76.9638" y2="76.9638"/><ellipse cx="35" cy="242" fill="#000000" rx="2" ry="2" style="stroke:none;stroke-width:1.0;"/><ellipse cx="74" cy="242" fill="#000000" rx="2" ry="2" style="stroke:none;stroke-width:1.0;"/><ellipse cx="288" cy="242" fill="#000000" rx="2" ry="2" style="stroke:none;stroke-width:1.0;"/><!--MD5=[af55f375173b73d4c4014e6557584672]
link Product to Ingredient--><path codeLine="40" d="M76,519.14 C76,553.14 76,592.72 76,619.27 " fill="none" id="Product-Ingredient" style="stroke:#A80036;stroke-width:1.0;"/><text fill="#000000" font-family="sans-serif" font-size="13" lengthAdjust="spacing" textLength="20" x="51.8438" y="542.3077">1..*</text><text fill="#000000" font-family="sans-serif" font-size="13" lengthAdjust="spacing" textLength="7" x="68.3438" y="607.4459">*</text><!--MD5=[f4f95e323f3a06f9b86c93fdb0d68f6e]
link Ingredient to Allergen--><path codeLine="41" d="M76,681.78 C76,710.57 76,753.61 76,782.35 " fill="none" id="Ingredient-Allergen" style="stroke:#A80036;stroke-width:1.0;"/><text fill="#000000" font-family="sans-serif" font-size="13" lengthAdjust="spacing" textLength="7" x="65.625" y="704.1493">*</text><text fill="#000000" font-family="sans-serif" font-size="13" lengthAdjust="spacing" textLength="7" x="68.3438" y="770.5434">*</text><!--MD5=[1e90a0be23b1552bea1c56a79bf0a26e]
link Sale to Quantity--><path codeLine="46" d="M420.37,85.33 C409.57,115.69 394.4,158.33 382.67,191.31 " fill="none" id="Sale-to-Quantity" style="stroke:#A80036;stroke-width:1.0;"/><polygon fill="none" points="389.18,193.9,375.88,210.4,375.99,189.21,389.18,193.9" style="stroke:#A80036;stroke-width:1.0;"/><!--MD5=[468b4acc7e989b3e61bccdfd60e957df]
link Branch to apoint15--><path d="M47.6,85.05 C38.96,99.77 30.38,117.27 26,134.5 C15.21,176.94 31.96,231.64 34.65,239.93 " fill="none" id="Branch-apoint15" style="stroke:#A80036;stroke-width:1.0;"/><polygon fill="#000000" points="30.5834,149.3356,34.2658,140.5669,28.4083,140.0771,30.5834,149.3356" style="stroke:#000000;stroke-width:1.0;"/><text fill="#000000" font-family="sans-serif" font-size="13" lengthAdjust="spacing" textLength="25" x="40" y="149.397">sells</text><text fill="#000000" font-family="sans-serif" font-size="13" lengthAdjust="spacing" textLength="7" x="15.3125" y="108.128">*</text><!--MD5=[013bf9f7e8fbdbe6ee2c4ce89e3fb0f5]
link apoint15 to Product--><path d="M35.26,244.32 C37.35,254.84 51.45,326.03 62.48,381.75 " fill="none" id="apoint15-Product" style="stroke:#A80036;stroke-width:1.0;"/><text fill="#000000" font-family="sans-serif" font-size="13" lengthAdjust="spacing" textLength="20" x="39.9622" y="370.1877">1..*</text><!--MD5=[936d5c7915e69601f5ad05f2b5ddf589]
link Branch to apoint20--><path d="M73.19,85.21 C73.47,137.79 73.94,228.71 73.99,239.87 " fill="none" id="Branch-apoint20" style="stroke:#A80036;stroke-width:1.0;"/><text fill="#000000" font-family="sans-serif" font-size="13" lengthAdjust="spacing" textLength="37" x="75" y="149.397">stores</text><text fill="#000000" font-family="sans-serif" font-size="13" lengthAdjust="spacing" textLength="7" x="63.2937" y="108.428">*</text><!--MD5=[58f23b9d40d8e137fcb887818782845d]
link apoint20 to Product--><path d="M74.01,244.32 C74.11,254.84 74.8,326.03 75.34,381.75 " fill="none" id="apoint20-Product" style="stroke:#A80036;stroke-width:1.0;"/><text fill="#000000" font-family="sans-serif" font-size="13" lengthAdjust="spacing" textLength="7" x="67.9397" y="370.1877">*</text><!--MD5=[9e50fb2bfe8738d196aa1653f792014f]
link Sale to apoint15--><path d="M384.76,85.21 C374.03,92.34 362.46,99.21 351,104.5 C320,118.83 78.85,160.08 54,183.5 C36.56,199.94 35.11,232.71 35.01,239.68 " fill="none" id="Sale-apoint15" style="stroke:#A80036;stroke-width:1.0;stroke-dasharray:7.0,7.0;"/><!--MD5=[a1fbdccb73683b91f97b4a752289471c]
link apoint20 to Quantity--><path d="M74,239.88 C74.1,227.75 76.38,166.85 111.5,144 C178.18,100.61 219.23,108.65 290.5,144 C318.26,157.77 338.48,187.38 350.79,210.47 " fill="none" id="apoint20-Quantity" style="stroke:#A80036;stroke-width:1.0;stroke-dasharray:7.0,7.0;"/><!--MD5=[55606a46212994dd107db88d7fb58916]
link apoint15 to apoint20--><!--MD5=[de96acf8ec3f490922830a93ad7a7fcd]
reverse link Branch to Room--><path codeLine="51" d="M100.59,97.1 C119.17,130.18 143.33,173.17 160.49,203.72 " fill="none" id="Branch-backto-Room" style="stroke:#A80036;stroke-width:1.0;"/><polygon fill="#A80036" points="94.02,85.41,93.4748,92.6005,99.9025,95.8693,100.4477,88.6788,94.02,85.41" style="stroke:#A80036;stroke-width:1.0;"/><text fill="#000000" font-family="sans-serif" font-size="13" lengthAdjust="spacing" textLength="7" x="101.474" y="107.2889">1</text><text fill="#000000" font-family="sans-serif" font-size="13" lengthAdjust="spacing" textLength="20" x="134.9663" y="192.1723">1..*</text><!--MD5=[ff3e9fa146407017679b4a253737620a]
link GiftBasket to apoint29--><path d="M265.4,85.21 C273.03,137.79 286.22,228.71 287.84,239.87 " fill="none" id="GiftBasket-apoint29" style="stroke:#A80036;stroke-width:1.0;"/><text fill="#000000" font-family="sans-serif" font-size="13" lengthAdjust="spacing" textLength="7" x="260.0625" y="108.428">*</text><!--MD5=[21cf080555d379f177369521f8c0bfbb]
link apoint29 to Product--><path d="M287.79,244.57 C286.76,251.67 281.79,281.26 268,300.5 C238.32,341.91 193.99,377.48 155.41,403.52 " fill="none" id="apoint29-to-Product" style="stroke:#A80036;stroke-width:1.0;"/><polygon fill="#A80036" points="144.17,410.95,151.3811,410.9764,154.1789,404.3302,146.9678,404.3038,144.17,410.95" style="stroke:#A80036;stroke-width:1.0;"/><text fill="#000000" font-family="sans-serif" font-size="13" lengthAdjust="spacing" textLength="20" x="151.3049" y="385.581">5..*</text><!--MD5=[c2d6de4951c68a2413d580a517263ea1]
link apoint29 to Quantity--><path d="M290.11,242 C301.81,242 313.51,242 325.21,242 " fill="none" id="apoint29-Quantity" style="stroke:#A80036;stroke-width:1.0;stroke-dasharray:7.0,7.0;"/><!--MD5=[28e4b9fce7263b8b4f3e42a3f969edd3]
@startuml
class Product {
  <<PK>> String name
  String category
  int count
  double productionPrice
  double purchasePrice
  double grossSalePrice
}

class GiftBasket {
  double salePrice
  double weight
}

class Ingredient {
  <<PK>> String name
}
class Allergen {
  <<PK>> String name
}

class Branch {
  <<PK>> long number
  String address
}
class Room {
  double size
  String purpose
}

class Quantity {
  int quantity
}

class Sale {
  Date date
  double invoiceAmount
}
  
Product "1..*" - - "*" Ingredient
Ingredient "*" - - "*" Allergen

Branch "*" - - "*" Product : stores >
Branch "*" - - "1..*" Product : sells >

Sale - -|> Quantity

(Branch, Product) .. Sale
(Branch, Product) .. Quantity

Branch "1" *- - "1..*" Room

GiftBasket "*" - -* "5..*" Product
(GiftBasket, Product) .. Quantity
@enduml

PlantUML version 1.2021.16(Wed Dec 08 18:25:22 CET 2021)
(GPL source distribution)
Java Runtime: OpenJDK Runtime Environment
JVM: OpenJDK 64-Bit Server VM
Default Encoding: UTF-8
Language: en
Country: US
--></g></svg>