<?xml version="1.0" encoding="UTF-8" standalone="no"?><svg xmlns="http://www.w3.org/2000/svg" xmlns:xlink="http://www.w3.org/1999/xlink" contentScriptType="application/ecmascript" contentStyleType="text/css" height="1111px" preserveAspectRatio="none" style="width:944px;height:1111px;background:#FFFFFF;" version="1.1" viewBox="0 0 944 1111" width="944px" zoomAndPan="magnify"><defs><filter height="300%" id="f9ynxe86pdf65" width="300%" x="-1" y="-1"><feGaussianBlur result="blurOut" stdDeviation="2.0"/><feColorMatrix in="blurOut" result="blurOut2" type="matrix" values="0 0 0 0 0 0 0 0 0 0 0 0 0 0 0 0 0 0 .4 0"/><feOffset dx="4.0" dy="4.0" in="blurOut2" result="blurOut3"/><feBlend in="SourceGraphic" in2="blurOut3" mode="normal"/></filter></defs><g><!--MD5=[72136138052d025cffdce3c22fbd185f]
class Product--><rect codeLine="1" fill="#FEFECE" filter="url(#f9ynxe86pdf65)" height="137.8913" id="Product" style="stroke:#A80036;stroke-width:1.5;" width="137" x="7" y="634"/><ellipse cx="49.9" cy="650" fill="#ADD1B2" rx="11" ry="11" style="stroke:#A80036;stroke-width:1.0;"/><path d="M49.3688,656.9219 Q47.6188,656.9219 46.4781,656.1875 Q45.3531,655.4375 44.7906,654.0938 Q44.2438,652.7344 44.2438,650.9375 Q44.2438,648.9063 44.9,647.4531 Q45.5563,646 46.8375,645.2188 Q48.1188,644.4375 49.9938,644.4375 Q50.8844,644.4375 51.5563,644.625 Q52.2281,644.7969 52.9156,645.1406 L52.1031,647.1563 Q51.4781,646.8438 50.9313,646.7188 Q50.4,646.5938 49.9156,646.5938 Q48.7438,646.5938 48.0406,647.125 Q47.3375,647.6563 47.0406,648.6094 Q46.7438,649.5625 46.7438,650.8281 Q46.7438,652.8438 47.4625,653.8125 Q48.1813,654.7656 49.775,654.7656 Q50.3688,654.7656 50.9938,654.6094 Q51.6188,654.4531 52.4469,654.0781 L52.4469,656.2969 Q51.7125,656.6094 50.9156,656.7656 Q50.1344,656.9219 49.3688,656.9219 Z " fill="#000000"/><text fill="#000000" font-family="sans-serif" font-size="12" lengthAdjust="spacing" textLength="43" x="70.1" y="654.656">Product</text><line style="stroke:#A80036;stroke-width:1.5;" x1="8" x2="143" y1="666" y2="666"/><text fill="#000000" font-family="sans-serif" font-size="11" lengthAdjust="spacing" textLength="93" x="13" y="681.7589">«PK» String name</text><text fill="#000000" font-family="sans-serif" font-size="11" lengthAdjust="spacing" textLength="81" x="13" y="696.7408">String category</text><text fill="#000000" font-family="sans-serif" font-size="11" lengthAdjust="spacing" textLength="47" x="13" y="711.7227">int count</text><text fill="#000000" font-family="sans-serif" font-size="11" lengthAdjust="spacing" textLength="125" x="13" y="726.7046">double productionPrice</text><text fill="#000000" font-family="sans-serif" font-size="11" lengthAdjust="spacing" textLength="114" x="13" y="741.6865">double purchasePrice</text><text fill="#000000" font-family="sans-serif" font-size="11" lengthAdjust="spacing" textLength="116" x="13" y="756.6684">double grossSalePrice</text><line style="stroke:#A80036;stroke-width:1.5;" x1="8" x2="143" y1="763.8913" y2="763.8913"/><!--MD5=[e460c25590b156c4aeacdc7160c20043]
class GiftBasket--><rect codeLine="10" fill="#FEFECE" filter="url(#f9ynxe86pdf65)" height="77.9638" id="GiftBasket" style="stroke:#A80036;stroke-width:1.5;" width="98" x="211" y="252.5"/><ellipse cx="229.6" cy="268.5" fill="#ADD1B2" rx="11" ry="11" style="stroke:#A80036;stroke-width:1.0;"/><path d="M229.0688,275.4219 Q227.3188,275.4219 226.1781,274.6875 Q225.0531,273.9375 224.4906,272.5938 Q223.9438,271.2344 223.9438,269.4375 Q223.9438,267.4063 224.6,265.9531 Q225.2563,264.5 226.5375,263.7188 Q227.8188,262.9375 229.6938,262.9375 Q230.5844,262.9375 231.2563,263.125 Q231.9281,263.2969 232.6156,263.6406 L231.8031,265.6563 Q231.1781,265.3438 230.6313,265.2188 Q230.1,265.0938 229.6156,265.0938 Q228.4438,265.0938 227.7406,265.625 Q227.0375,266.1563 226.7406,267.1094 Q226.4438,268.0625 226.4438,269.3281 Q226.4438,271.3438 227.1625,272.3125 Q227.8813,273.2656 229.475,273.2656 Q230.0688,273.2656 230.6938,273.1094 Q231.3188,272.9531 232.1469,272.5781 L232.1469,274.7969 Q231.4125,275.1094 230.6156,275.2656 Q229.8344,275.4219 229.0688,275.4219 Z " fill="#000000"/><text fill="#000000" font-family="sans-serif" font-size="12" lengthAdjust="spacing" textLength="58" x="244.4" y="273.156">GiftBasket</text><line style="stroke:#A80036;stroke-width:1.5;" x1="212" x2="308" y1="284.5" y2="284.5"/><text fill="#000000" font-family="sans-serif" font-size="11" lengthAdjust="spacing" textLength="86" x="217" y="300.2589">double salePrice</text><text fill="#000000" font-family="sans-serif" font-size="11" lengthAdjust="spacing" textLength="76" x="217" y="315.2408">double weight</text><line style="stroke:#A80036;stroke-width:1.5;" x1="212" x2="308" y1="322.4638" y2="322.4638"/><!--MD5=[91ffdd76f1c8795364bfc7c752e5da6a]
class Ingredient--><rect codeLine="15" fill="#FEFECE" filter="url(#f9ynxe86pdf65)" height="62.9819" id="Ingredient" style="stroke:#A80036;stroke-width:1.5;" width="105" x="23" y="871.5"/><ellipse cx="44.75" cy="887.5" fill="#ADD1B2" rx="11" ry="11" style="stroke:#A80036;stroke-width:1.0;"/><path d="M44.2188,894.4219 Q42.4688,894.4219 41.3281,893.6875 Q40.2031,892.9375 39.6406,891.5938 Q39.0938,890.2344 39.0938,888.4375 Q39.0938,886.4063 39.75,884.9531 Q40.4063,883.5 41.6875,882.7188 Q42.9688,881.9375 44.8438,881.9375 Q45.7344,881.9375 46.4063,882.125 Q47.0781,882.2969 47.7656,882.6406 L46.9531,884.6563 Q46.3281,884.3438 45.7813,884.2188 Q45.25,884.0938 44.7656,884.0938 Q43.5938,884.0938 42.8906,884.625 Q42.1875,885.1563 41.8906,886.1094 Q41.5938,887.0625 41.5938,888.3281 Q41.5938,890.3438 42.3125,891.3125 Q43.0313,892.2656 44.625,892.2656 Q45.2188,892.2656 45.8438,892.1094 Q46.4688,891.9531 47.2969,891.5781 L47.2969,893.7969 Q46.5625,894.1094 45.7656,894.2656 Q44.9844,894.4219 44.2188,894.4219 Z " fill="#000000"/><text fill="#000000" font-family="sans-serif" font-size="12" lengthAdjust="spacing" textLength="58" x="60.25" y="892.156">Ingredient</text><line style="stroke:#A80036;stroke-width:1.5;" x1="24" x2="127" y1="903.5" y2="903.5"/><text fill="#000000" font-family="sans-serif" font-size="11" lengthAdjust="spacing" textLength="93" x="29" y="919.2589">«PK» String name</text><line style="stroke:#A80036;stroke-width:1.5;" x1="24" x2="127" y1="926.4819" y2="926.4819"/><!--MD5=[3ea633b366b7e3c88379499281652b08]
class Allergen--><rect codeLine="18" fill="#FEFECE" filter="url(#f9ynxe86pdf65)" height="62.9819" id="Allergen" style="stroke:#A80036;stroke-width:1.5;" width="105" x="23" y="1034.5"/><ellipse cx="49.7" cy="1050.5" fill="#ADD1B2" rx="11" ry="11" style="stroke:#A80036;stroke-width:1.0;"/><path d="M49.1688,1057.4219 Q47.4188,1057.4219 46.2781,1056.6875 Q45.1531,1055.9375 44.5906,1054.5938 Q44.0438,1053.2344 44.0438,1051.4375 Q44.0438,1049.4063 44.7,1047.9531 Q45.3563,1046.5 46.6375,1045.7188 Q47.9188,1044.9375 49.7938,1044.9375 Q50.6844,1044.9375 51.3563,1045.125 Q52.0281,1045.2969 52.7156,1045.6406 L51.9031,1047.6563 Q51.2781,1047.3438 50.7313,1047.2188 Q50.2,1047.0938 49.7156,1047.0938 Q48.5438,1047.0938 47.8406,1047.625 Q47.1375,1048.1563 46.8406,1049.1094 Q46.5438,1050.0625 46.5438,1051.3281 Q46.5438,1053.3438 47.2625,1054.3125 Q47.9813,1055.2656 49.575,1055.2656 Q50.1688,1055.2656 50.7938,1055.1094 Q51.4188,1054.9531 52.2469,1054.5781 L52.2469,1056.7969 Q51.5125,1057.1094 50.7156,1057.2656 Q49.9344,1057.4219 49.1688,1057.4219 Z " fill="#000000"/><text fill="#000000" font-family="sans-serif" font-size="12" lengthAdjust="spacing" textLength="47" x="66.3" y="1055.156">Allergen</text><line style="stroke:#A80036;stroke-width:1.5;" x1="24" x2="127" y1="1066.5" y2="1066.5"/><text fill="#000000" font-family="sans-serif" font-size="11" lengthAdjust="spacing" textLength="93" x="29" y="1082.2589">«PK» String name</text><line style="stroke:#A80036;stroke-width:1.5;" x1="24" x2="127" y1="1089.4819" y2="1089.4819"/><!--MD5=[6d7d587a021629470fd0d5f8ef3407c9]
class Branch--><rect codeLine="22" fill="#FEFECE" filter="url(#f9ynxe86pdf65)" height="77.9638" id="Branch" style="stroke:#A80036;stroke-width:1.5;" width="110" x="18" y="252.5"/><ellipse cx="50.1" cy="268.5" fill="#ADD1B2" rx="11" ry="11" style="stroke:#A80036;stroke-width:1.0;"/><path d="M49.5688,275.4219 Q47.8188,275.4219 46.6781,274.6875 Q45.5531,273.9375 44.9906,272.5938 Q44.4438,271.2344 44.4438,269.4375 Q44.4438,267.4063 45.1,265.9531 Q45.7563,264.5 47.0375,263.7188 Q48.3188,262.9375 50.1938,262.9375 Q51.0844,262.9375 51.7563,263.125 Q52.4281,263.2969 53.1156,263.6406 L52.3031,265.6563 Q51.6781,265.3438 51.1313,265.2188 Q50.6,265.0938 50.1156,265.0938 Q48.9438,265.0938 48.2406,265.625 Q47.5375,266.1563 47.2406,267.1094 Q46.9438,268.0625 46.9438,269.3281 Q46.9438,271.3438 47.6625,272.3125 Q48.3813,273.2656 49.975,273.2656 Q50.5688,273.2656 51.1938,273.1094 Q51.8188,272.9531 52.6469,272.5781 L52.6469,274.7969 Q51.9125,275.1094 51.1156,275.2656 Q50.3344,275.4219 49.5688,275.4219 Z " fill="#000000"/><text fill="#000000" font-family="sans-serif" font-size="12" lengthAdjust="spacing" textLength="40" x="67.9" y="273.156">Branch</text><line style="stroke:#A80036;stroke-width:1.5;" x1="19" x2="127" y1="284.5" y2="284.5"/><text fill="#000000" font-family="sans-serif" font-size="11" lengthAdjust="spacing" textLength="98" x="24" y="300.2589">«PK» long number</text><text fill="#000000" font-family="sans-serif" font-size="11" lengthAdjust="spacing" textLength="86" x="24" y="315.2408">Address address</text><line style="stroke:#A80036;stroke-width:1.5;" x1="19" x2="127" y1="322.4638" y2="322.4638"/><!--MD5=[d218c48b946d362ff1ecd879cabebcad]
class Room--><rect codeLine="26" fill="#FEFECE" filter="url(#f9ynxe86pdf65)" height="77.9638" id="Room" style="stroke:#A80036;stroke-width:1.5;" width="91" x="136" y="456"/><ellipse cx="163.15" cy="472" fill="#ADD1B2" rx="11" ry="11" style="stroke:#A80036;stroke-width:1.0;"/><path d="M162.6188,478.9219 Q160.8688,478.9219 159.7281,478.1875 Q158.6031,477.4375 158.0406,476.0938 Q157.4938,474.7344 157.4938,472.9375 Q157.4938,470.9063 158.15,469.4531 Q158.8063,468 160.0875,467.2188 Q161.3688,466.4375 163.2438,466.4375 Q164.1344,466.4375 164.8063,466.625 Q165.4781,466.7969 166.1656,467.1406 L165.3531,469.1563 Q164.7281,468.8438 164.1813,468.7188 Q163.65,468.5938 163.1656,468.5938 Q161.9938,468.5938 161.2906,469.125 Q160.5875,469.6563 160.2906,470.6094 Q159.9938,471.5625 159.9938,472.8281 Q159.9938,474.8438 160.7125,475.8125 Q161.4313,476.7656 163.025,476.7656 Q163.6188,476.7656 164.2438,476.6094 Q164.8688,476.4531 165.6969,476.0781 L165.6969,478.2969 Q164.9625,478.6094 164.1656,478.7656 Q163.3844,478.9219 162.6188,478.9219 Z " fill="#000000"/><text fill="#000000" font-family="sans-serif" font-size="12" lengthAdjust="spacing" textLength="32" x="179.85" y="476.656">Room</text><line style="stroke:#A80036;stroke-width:1.5;" x1="137" x2="226" y1="488" y2="488"/><text fill="#000000" font-family="sans-serif" font-size="11" lengthAdjust="spacing" textLength="59" x="142" y="503.7589">double size</text><text fill="#000000" font-family="sans-serif" font-size="11" lengthAdjust="spacing" textLength="79" x="142" y="518.7408">String purpose</text><line style="stroke:#A80036;stroke-width:1.5;" x1="137" x2="226" y1="525.9638" y2="525.9638"/><!--MD5=[c10c36ce2c02dedc3d02a76c5154070d]
class Quantity--><rect codeLine="31" fill="#FEFECE" filter="url(#f9ynxe86pdf65)" height="62.9819" id="Quantity" style="stroke:#A80036;stroke-width:1.5;" width="79" x="325.5" y="462.5"/><ellipse cx="340.5" cy="478.5" fill="#ADD1B2" rx="11" ry="11" style="stroke:#A80036;stroke-width:1.0;"/><path d="M339.9688,485.4219 Q338.2188,485.4219 337.0781,484.6875 Q335.9531,483.9375 335.3906,482.5938 Q334.8438,481.2344 334.8438,479.4375 Q334.8438,477.4063 335.5,475.9531 Q336.1563,474.5 337.4375,473.7188 Q338.7188,472.9375 340.5938,472.9375 Q341.4844,472.9375 342.1563,473.125 Q342.8281,473.2969 343.5156,473.6406 L342.7031,475.6563 Q342.0781,475.3438 341.5313,475.2188 Q341,475.0938 340.5156,475.0938 Q339.3438,475.0938 338.6406,475.625 Q337.9375,476.1563 337.6406,477.1094 Q337.3438,478.0625 337.3438,479.3281 Q337.3438,481.3438 338.0625,482.3125 Q338.7813,483.2656 340.375,483.2656 Q340.9688,483.2656 341.5938,483.1094 Q342.2188,482.9531 343.0469,482.5781 L343.0469,484.7969 Q342.3125,485.1094 341.5156,485.2656 Q340.7344,485.4219 339.9688,485.4219 Z " fill="#000000"/><text fill="#000000" font-family="sans-serif" font-size="12" lengthAdjust="spacing" textLength="47" x="354.5" y="483.156">Quantity</text><line style="stroke:#A80036;stroke-width:1.5;" x1="326.5" x2="403.5" y1="494.5" y2="494.5"/><text fill="#000000" font-family="sans-serif" font-size="11" lengthAdjust="spacing" textLength="61" x="331.5" y="510.2589">int quantity</text><line style="stroke:#A80036;stroke-width:1.5;" x1="326.5" x2="403.5" y1="517.4819" y2="517.4819"/><!--MD5=[e0bd77868626c22cfc0c5aeed1b8d67f]
class Sale--><rect codeLine="35" fill="#FEFECE" filter="url(#f9ynxe86pdf65)" height="77.9638" id="Sale" style="stroke:#A80036;stroke-width:1.5;" width="131" x="393" y="252.5"/><ellipse cx="442.25" cy="268.5" fill="#ADD1B2" rx="11" ry="11" style="stroke:#A80036;stroke-width:1.0;"/><path d="M441.7188,275.4219 Q439.9688,275.4219 438.8281,274.6875 Q437.7031,273.9375 437.1406,272.5938 Q436.5938,271.2344 436.5938,269.4375 Q436.5938,267.4063 437.25,265.9531 Q437.9063,264.5 439.1875,263.7188 Q440.4688,262.9375 442.3438,262.9375 Q443.2344,262.9375 443.9063,263.125 Q444.5781,263.2969 445.2656,263.6406 L444.4531,265.6563 Q443.8281,265.3438 443.2813,265.2188 Q442.75,265.0938 442.2656,265.0938 Q441.0938,265.0938 440.3906,265.625 Q439.6875,266.1563 439.3906,267.1094 Q439.0938,268.0625 439.0938,269.3281 Q439.0938,271.3438 439.8125,272.3125 Q440.5313,273.2656 442.125,273.2656 Q442.7188,273.2656 443.3438,273.1094 Q443.9688,272.9531 444.7969,272.5781 L444.7969,274.7969 Q444.0625,275.1094 443.2656,275.2656 Q442.4844,275.4219 441.7188,275.4219 Z " fill="#000000"/><text fill="#000000" font-family="sans-serif" font-size="12" lengthAdjust="spacing" textLength="24" x="462.75" y="273.156">Sale</text><line style="stroke:#A80036;stroke-width:1.5;" x1="394" x2="523" y1="284.5" y2="284.5"/><text fill="#000000" font-family="sans-serif" font-size="11" lengthAdjust="spacing" textLength="50" x="399" y="300.2589">Date date</text><text fill="#000000" font-family="sans-serif" font-size="11" lengthAdjust="spacing" textLength="119" x="399" y="315.2408">double invoiceAmount</text><line style="stroke:#A80036;stroke-width:1.5;" x1="394" x2="523" y1="322.4638" y2="322.4638"/><!--MD5=[7421f545a0d8420c5bec41e74b387d9c]
class Employee--><rect codeLine="40" fill="#FEFECE" filter="url(#f9ynxe86pdf65)" height="137.8913" id="Employee" style="stroke:#A80036;stroke-width:1.5;" width="113" x="617" y="7"/><ellipse cx="643.7" cy="23" fill="#ADD1B2" rx="11" ry="11" style="stroke:#A80036;stroke-width:1.0;"/><path d="M643.1688,29.9219 Q641.4188,29.9219 640.2781,29.1875 Q639.1531,28.4375 638.5906,27.0938 Q638.0438,25.7344 638.0438,23.9375 Q638.0438,21.9063 638.7,20.4531 Q639.3563,19 640.6375,18.2188 Q641.9188,17.4375 643.7938,17.4375 Q644.6844,17.4375 645.3563,17.625 Q646.0281,17.7969 646.7156,18.1406 L645.9031,20.1563 Q645.2781,19.8438 644.7313,19.7188 Q644.2,19.5938 643.7156,19.5938 Q642.5438,19.5938 641.8406,20.125 Q641.1375,20.6563 640.8406,21.6094 Q640.5438,22.5625 640.5438,23.8281 Q640.5438,25.8438 641.2625,26.8125 Q641.9813,27.7656 643.575,27.7656 Q644.1688,27.7656 644.7938,27.6094 Q645.4188,27.4531 646.2469,27.0781 L646.2469,29.2969 Q645.5125,29.6094 644.7156,29.7656 Q643.9344,29.9219 643.1688,29.9219 Z " fill="#000000"/><text fill="#000000" font-family="sans-serif" font-size="12" lengthAdjust="spacing" textLength="55" x="660.3" y="27.656">Employee</text><line style="stroke:#A80036;stroke-width:1.5;" x1="618" x2="729" y1="39" y2="39"/><text fill="#000000" font-family="sans-serif" font-size="11" lengthAdjust="spacing" textLength="98" x="623" y="54.7589">«PK» long number</text><text fill="#000000" font-family="sans-serif" font-size="11" lengthAdjust="spacing" textLength="86" x="623" y="69.7408">String firstName</text><text fill="#000000" font-family="sans-serif" font-size="11" lengthAdjust="spacing" textLength="83" x="623" y="84.7227">String lastName</text><text fill="#000000" font-family="sans-serif" font-size="11" lengthAdjust="spacing" textLength="89" x="623" y="99.7046">Date dateOfBirth</text><text fill="#000000" font-family="sans-serif" font-size="11" lengthAdjust="spacing" textLength="86" x="623" y="114.6865">Address address</text><text fill="#000000" font-family="sans-serif" font-size="11" lengthAdjust="spacing" textLength="101" x="623" y="129.6684">double grossSalary</text><line style="stroke:#A80036;stroke-width:1.5;" x1="618" x2="729" y1="136.8913" y2="136.8913"/><!--MD5=[4ed6547aebc3816e0d05d6d072e09e7c]
class EmployeeCard--><rect codeLine="49" fill="#FEFECE" filter="url(#f9ynxe86pdf65)" height="92.9457" id="EmployeeCard" style="stroke:#A80036;stroke-width:1.5;" width="134" x="607" y="244.5"/><ellipse cx="631" cy="260.5" fill="#ADD1B2" rx="11" ry="11" style="stroke:#A80036;stroke-width:1.0;"/><path d="M630.4688,267.4219 Q628.7188,267.4219 627.5781,266.6875 Q626.4531,265.9375 625.8906,264.5938 Q625.3438,263.2344 625.3438,261.4375 Q625.3438,259.4063 626,257.9531 Q626.6563,256.5 627.9375,255.7188 Q629.2188,254.9375 631.0938,254.9375 Q631.9844,254.9375 632.6563,255.125 Q633.3281,255.2969 634.0156,255.6406 L633.2031,257.6563 Q632.5781,257.3438 632.0313,257.2188 Q631.5,257.0938 631.0156,257.0938 Q629.8438,257.0938 629.1406,257.625 Q628.4375,258.1563 628.1406,259.1094 Q627.8438,260.0625 627.8438,261.3281 Q627.8438,263.3438 628.5625,264.3125 Q629.2813,265.2656 630.875,265.2656 Q631.4688,265.2656 632.0938,265.1094 Q632.7188,264.9531 633.5469,264.5781 L633.5469,266.7969 Q632.8125,267.1094 632.0156,267.2656 Q631.2344,267.4219 630.4688,267.4219 Z " fill="#000000"/><text fill="#000000" font-family="sans-serif" font-size="12" lengthAdjust="spacing" textLength="82" x="647" y="265.156">EmployeeCard</text><line style="stroke:#A80036;stroke-width:1.5;" x1="608" x2="740" y1="276.5" y2="276.5"/><text fill="#000000" font-family="sans-serif" font-size="11" lengthAdjust="spacing" textLength="98" x="613" y="292.2589">«PK» long number</text><text fill="#000000" font-family="sans-serif" font-size="11" lengthAdjust="spacing" textLength="122" x="613" y="307.2408">Date authorizationDate</text><text fill="#000000" font-family="sans-serif" font-size="11" lengthAdjust="spacing" textLength="105" x="613" y="322.2227">Date expirationDate</text><line style="stroke:#A80036;stroke-width:1.5;" x1="608" x2="740" y1="329.4457" y2="329.4457"/><!--MD5=[c881b25adf3665c6568c9693d41a70f3]
class Activity--><rect codeLine="55" fill="#FEFECE" filter="url(#f9ynxe86pdf65)" height="62.9819" id="Activity" style="stroke:#A80036;stroke-width:1.5;" width="105" x="825" y="259.5"/><ellipse cx="854.85" cy="275.5" fill="#ADD1B2" rx="11" ry="11" style="stroke:#A80036;stroke-width:1.0;"/><path d="M854.3188,282.4219 Q852.5688,282.4219 851.4281,281.6875 Q850.3031,280.9375 849.7406,279.5938 Q849.1938,278.2344 849.1938,276.4375 Q849.1938,274.4063 849.85,272.9531 Q850.5063,271.5 851.7875,270.7188 Q853.0688,269.9375 854.9438,269.9375 Q855.8344,269.9375 856.5063,270.125 Q857.1781,270.2969 857.8656,270.6406 L857.0531,272.6563 Q856.4281,272.3438 855.8813,272.2188 Q855.35,272.0938 854.8656,272.0938 Q853.6938,272.0938 852.9906,272.625 Q852.2875,273.1563 851.9906,274.1094 Q851.6938,275.0625 851.6938,276.3281 Q851.6938,278.3438 852.4125,279.3125 Q853.1313,280.2656 854.725,280.2656 Q855.3188,280.2656 855.9438,280.1094 Q856.5688,279.9531 857.3969,279.5781 L857.3969,281.7969 Q856.6625,282.1094 855.8656,282.2656 Q855.0844,282.4219 854.3188,282.4219 Z " fill="#000000"/><text fill="#000000" font-family="sans-serif" font-size="12" lengthAdjust="spacing" textLength="40" x="872.15" y="280.156">Activity</text><line style="stroke:#A80036;stroke-width:1.5;" x1="826" x2="929" y1="291.5" y2="291.5"/><text fill="#000000" font-family="sans-serif" font-size="11" lengthAdjust="spacing" textLength="93" x="831" y="307.2589">«PK» String name</text><line style="stroke:#A80036;stroke-width:1.5;" x1="826" x2="929" y1="314.4819" y2="314.4819"/><ellipse cx="35" cy="494" fill="#000000" rx="2" ry="2" style="stroke:none;stroke-width:1.0;"/><ellipse cx="74" cy="494" fill="#000000" rx="2" ry="2" style="stroke:none;stroke-width:1.0;"/><ellipse cx="288" cy="494" fill="#000000" rx="2" ry="2" style="stroke:none;stroke-width:1.0;"/><!--MD5=[af55f375173b73d4c4014e6557584672]
link Product to Ingredient--><path codeLine="59" d="M76,771.14 C76,805.14 76,844.72 76,871.27 " fill="none" id="Product-Ingredient" style="stroke:#A80036;stroke-width:1.0;"/><text fill="#000000" font-family="sans-serif" font-size="13" lengthAdjust="spacing" textLength="20" x="51.8438" y="794.3077">1..*</text><text fill="#000000" font-family="sans-serif" font-size="13" lengthAdjust="spacing" textLength="7" x="68.3438" y="859.4459">*</text><!--MD5=[f4f95e323f3a06f9b86c93fdb0d68f6e]
link Ingredient to Allergen--><path codeLine="60" d="M76,933.78 C76,962.57 76,1005.61 76,1034.35 " fill="none" id="Ingredient-Allergen" style="stroke:#A80036;stroke-width:1.0;"/><text fill="#000000" font-family="sans-serif" font-size="13" lengthAdjust="spacing" textLength="7" x="65.625" y="956.1493">*</text><text fill="#000000" font-family="sans-serif" font-size="13" lengthAdjust="spacing" textLength="7" x="68.3438" y="1022.5434">*</text><!--MD5=[1e90a0be23b1552bea1c56a79bf0a26e]
link Sale to Quantity--><path codeLine="65" d="M441.54,329.74 C426.44,361.94 404.51,408.73 387.99,443.97 " fill="none" id="Sale-to-Quantity" style="stroke:#A80036;stroke-width:1.0;"/><polygon fill="none" points="394.27,447.06,379.44,462.2,381.59,441.12,394.27,447.06" style="stroke:#A80036;stroke-width:1.0;"/><!--MD5=[025396336d624764797833187a59eb2a]
link Branch to apoint18--><path d="M49.32,329.84 C40.11,346.5 30.65,366.79 26,386.5 C15.94,429.12 32.08,483.67 34.66,491.93 " fill="none" id="Branch-apoint18" style="stroke:#A80036;stroke-width:1.0;"/><polygon fill="#000000" points="30.5496,401.3327,34.2913,392.5891,28.4374,392.0596,30.5496,401.3327" style="stroke:#000000;stroke-width:1.0;"/><text fill="#000000" font-family="sans-serif" font-size="13" lengthAdjust="spacing" textLength="25" x="40" y="401.397">sells</text><text fill="#000000" font-family="sans-serif" font-size="13" lengthAdjust="spacing" textLength="7" x="19.8965" y="351.6612">*</text><!--MD5=[db62f7e31a5dffb9534c6608d044b297]
link apoint18 to Product--><path d="M35.26,496.32 C37.35,506.84 51.45,578.03 62.48,633.75 " fill="none" id="apoint18-Product" style="stroke:#A80036;stroke-width:1.0;"/><text fill="#000000" font-family="sans-serif" font-size="13" lengthAdjust="spacing" textLength="20" x="39.9622" y="622.1877">1..*</text><!--MD5=[b820018a29695f2d0a3e8d05f22d2b61]
link Branch to apoint23--><path d="M73.19,329.74 C73.46,384.1 73.94,480.03 73.99,491.8 " fill="none" id="Branch-apoint23" style="stroke:#A80036;stroke-width:1.0;"/><text fill="#000000" font-family="sans-serif" font-size="13" lengthAdjust="spacing" textLength="37" x="75" y="401.397">stores</text><text fill="#000000" font-family="sans-serif" font-size="13" lengthAdjust="spacing" textLength="7" x="63.2937" y="352.9842">*</text><!--MD5=[bdaaafe3686e0823b83435a8309d4eba]
link apoint23 to Product--><path d="M74.01,496.32 C74.11,506.84 74.8,578.03 75.34,633.75 " fill="none" id="apoint23-Product" style="stroke:#A80036;stroke-width:1.0;"/><text fill="#000000" font-family="sans-serif" font-size="13" lengthAdjust="spacing" textLength="7" x="67.9397" y="622.1877">*</text><!--MD5=[45acfaac76b66132b68831a6082fff8c]
link Sale to apoint18--><path d="M402.52,329.56 C386.06,339.28 367.72,349.1 350,356.5 C318.59,369.63 78.76,412.14 54,435.5 C36.56,451.95 35.11,484.71 35.01,491.68 " fill="none" id="Sale-apoint18" style="stroke:#A80036;stroke-width:1.0;stroke-dasharray:7.0,7.0;"/><!--MD5=[9c91e0fe8d3c89f65006dca7ae0c6d55]
link apoint23 to Quantity--><path d="M74,491.88 C74.1,479.75 76.38,418.85 111.5,396 C177.81,352.85 218.51,361.08 289.5,396 C317.44,409.75 337.95,439.36 350.49,462.46 " fill="none" id="apoint23-Quantity" style="stroke:#A80036;stroke-width:1.0;stroke-dasharray:7.0,7.0;"/><!--MD5=[14cd9e0840a655fcc1597e4c0540648a]
link apoint18 to apoint23--><!--MD5=[de96acf8ec3f490922830a93ad7a7fcd]
reverse link Branch to Room--><path codeLine="70" d="M99.44,341.37 C118.46,376.53 143.75,423.29 161.31,455.74 " fill="none" id="Branch-backto-Room" style="stroke:#A80036;stroke-width:1.0;"/><polygon fill="#A80036" points="93.25,329.93,92.5882,337.1107,98.962,340.4833,99.6238,333.3027,93.25,329.93" style="stroke:#A80036;stroke-width:1.0;"/><text fill="#000000" font-family="sans-serif" font-size="13" lengthAdjust="spacing" textLength="7" x="100.0688" y="351.8254">1</text><text fill="#000000" font-family="sans-serif" font-size="13" lengthAdjust="spacing" textLength="20" x="135.9324" y="444.1959">1..*</text><!--MD5=[6f9ef3bbcfbe50da603fe1c0e5bf0f64]
link GiftBasket to apoint32--><path d="M265.2,329.74 C272.79,384.1 286.19,480.03 287.83,491.8 " fill="none" id="GiftBasket-apoint32" style="stroke:#A80036;stroke-width:1.0;"/><text fill="#000000" font-family="sans-serif" font-size="13" lengthAdjust="spacing" textLength="7" x="259.6875" y="352.9842">*</text><!--MD5=[6cfaea7d9bd23d9040fe4f0ff2c46560]
link apoint32 to Product--><path d="M287.79,496.57 C286.76,503.67 281.79,533.26 268,552.5 C238.32,593.91 193.99,629.48 155.41,655.52 " fill="none" id="apoint32-to-Product" style="stroke:#A80036;stroke-width:1.0;"/><polygon fill="#A80036" points="144.17,662.95,151.3811,662.9764,154.1789,656.3302,146.9678,656.3038,144.17,662.95" style="stroke:#A80036;stroke-width:1.0;"/><text fill="#000000" font-family="sans-serif" font-size="13" lengthAdjust="spacing" textLength="20" x="151.3049" y="637.581">5..*</text><!--MD5=[4f76cde1a9087f38db513cd5ceb2f6cd]
link apoint32 to Quantity--><path d="M290.11,494 C301.81,494 313.51,494 325.21,494 " fill="none" id="apoint32-Quantity" style="stroke:#A80036;stroke-width:1.0;stroke-dasharray:7.0,7.0;"/><!--MD5=[ebd5b617384ba00a53f064cf9872e493]
link Employee to Sale--><path codeLine="75" d="M616.95,133.65 C579.13,171.21 530.54,219.46 497.3,252.47 " fill="none" id="Employee-Sale" style="stroke:#A80036;stroke-width:1.0;"/><text fill="#000000" font-family="sans-serif" font-size="13" lengthAdjust="spacing" textLength="7" x="601.8808" y="137.2063">1</text><text fill="#000000" font-family="sans-serif" font-size="13" lengthAdjust="spacing" textLength="7" x="496.8084" y="240.6721">*</text><!--MD5=[085d8705ee596d9a6bd3a9846a00aabf]
link Employee to Activity--><path codeLine="76" d="M730.01,135.35 C768.58,175.53 818.25,227.26 849.11,259.4 " fill="none" id="Employee-Activity" style="stroke:#A80036;stroke-width:1.0;"/><text fill="#000000" font-family="sans-serif" font-size="13" lengthAdjust="spacing" textLength="7" x="737.9191" y="146.6631">*</text><text fill="#000000" font-family="sans-serif" font-size="13" lengthAdjust="spacing" textLength="7" x="835.1341" y="247.6043">1</text><!--MD5=[df2423c8ead969905cdd2471a2cfeae3]
reverse link Employee to EmployeeCard--><path codeLine="77" d="M674,157.54 C674,186.99 674,219.25 674,244.5 " fill="none" id="Employee-backto-EmployeeCard" style="stroke:#A80036;stroke-width:1.0;"/><polygon fill="#A80036" points="674,144.24,670,150.24,674,156.24,678,150.24,674,144.24" style="stroke:#A80036;stroke-width:1.0;"/><text fill="#000000" font-family="sans-serif" font-size="13" lengthAdjust="spacing" textLength="7" x="665.6875" y="167.4515">1</text><text fill="#000000" font-family="sans-serif" font-size="13" lengthAdjust="spacing" textLength="7" x="666.4422" y="232.692">1</text><!--MD5=[b6077a670c218bf10052da06896afaee]
@startuml
class Product {
  <<PK>> String name
  String category
  int count
  double productionPrice
  double purchasePrice
  double grossSalePrice
}

class GiftBasket {
  double salePrice
  double weight
}

class Ingredient {
  <<PK>> String name
}
class Allergen {
  <<PK>> String name
}

class Branch {
  <<PK>> long number
  Address address
}
class Room {
  double size
  String purpose
}

class Quantity {
  int quantity
}

class Sale {
  Date date
  double invoiceAmount
}

class Employee {
  <<PK>> long number
  String firstName
  String lastName
  Date dateOfBirth
  Address address
  double grossSalary
}

class EmployeeCard {
  <<PK>> long number
  Date authorizationDate
  Date expirationDate
}

class Activity {
  <<PK>> String name
}
  
Product "1..*" - - "*" Ingredient
Ingredient "*" - - "*" Allergen

Branch "*" - - "*" Product : stores >
Branch "*" - - "1..*" Product : sells >

Sale - -|> Quantity

(Branch, Product) .. Sale
(Branch, Product) .. Quantity

Branch "1" *- - "1..*" Room

GiftBasket "*" - -* "5..*" Product
(GiftBasket, Product) .. Quantity

Employee "1" - - "*" Sale
Employee "*" - - "1" Activity
Employee "1" *- - "1" EmployeeCard
@enduml

PlantUML version 1.2021.16(Wed Dec 08 18:25:22 CET 2021)
(GPL source distribution)
Java Runtime: OpenJDK Runtime Environment
JVM: OpenJDK 64-Bit Server VM
Default Encoding: UTF-8
Language: en
Country: US
--></g></svg>