<?xml version="1.0" encoding="UTF-8" standalone="no"?><svg xmlns="http://www.w3.org/2000/svg" xmlns:xlink="http://www.w3.org/1999/xlink" contentScriptType="application/ecmascript" contentStyleType="text/css" height="1251px" preserveAspectRatio="none" style="width:1534px;height:1251px;background:#FFFFFF;" version="1.1" viewBox="0 0 1534 1251" width="1534px" zoomAndPan="magnify"><defs><filter height="300%" id="fy3w5vearusjg" width="300%" x="-1" y="-1"><feGaussianBlur result="blurOut" stdDeviation="2.0"/><feColorMatrix in="blurOut" result="blurOut2" type="matrix" values="0 0 0 0 0 0 0 0 0 0 0 0 0 0 0 0 0 0 .4 0"/><feOffset dx="4.0" dy="4.0" in="blurOut2" result="blurOut3"/><feBlend in="SourceGraphic" in2="blurOut3" mode="normal"/></filter></defs><g><!--MD5=[72136138052d025cffdce3c22fbd185f]
class Product--><rect codeLine="1" fill="#FEFECE" filter="url(#fy3w5vearusjg)" height="137.8913" id="Product" style="stroke:#A80036;stroke-width:1.5;" width="137" x="1067" y="774.5"/><ellipse cx="1109.9" cy="790.5" fill="#ADD1B2" rx="11" ry="11" style="stroke:#A80036;stroke-width:1.0;"/><path d="M1109.3688,797.4219 Q1107.6188,797.4219 1106.4781,796.6875 Q1105.3531,795.9375 1104.7906,794.5938 Q1104.2438,793.2344 1104.2438,791.4375 Q1104.2438,789.4063 1104.9,787.9531 Q1105.5563,786.5 1106.8375,785.7188 Q1108.1188,784.9375 1109.9938,784.9375 Q1110.8844,784.9375 1111.5563,785.125 Q1112.2281,785.2969 1112.9156,785.6406 L1112.1031,787.6563 Q1111.4781,787.3438 1110.9313,787.2188 Q1110.4,787.0938 1109.9156,787.0938 Q1108.7438,787.0938 1108.0406,787.625 Q1107.3375,788.1563 1107.0406,789.1094 Q1106.7438,790.0625 1106.7438,791.3281 Q1106.7438,793.3438 1107.4625,794.3125 Q1108.1813,795.2656 1109.775,795.2656 Q1110.3688,795.2656 1110.9938,795.1094 Q1111.6188,794.9531 1112.4469,794.5781 L1112.4469,796.7969 Q1111.7125,797.1094 1110.9156,797.2656 Q1110.1344,797.4219 1109.3688,797.4219 Z " fill="#000000"/><text fill="#000000" font-family="sans-serif" font-size="12" lengthAdjust="spacing" textLength="43" x="1130.1" y="795.156">Product</text><line style="stroke:#A80036;stroke-width:1.5;" x1="1068" x2="1203" y1="806.5" y2="806.5"/><text fill="#000000" font-family="sans-serif" font-size="11" lengthAdjust="spacing" textLength="93" x="1073" y="822.2589">«PK» String name</text><text fill="#000000" font-family="sans-serif" font-size="11" lengthAdjust="spacing" textLength="81" x="1073" y="837.2408">String category</text><text fill="#000000" font-family="sans-serif" font-size="11" lengthAdjust="spacing" textLength="47" x="1073" y="852.2227">int count</text><text fill="#000000" font-family="sans-serif" font-size="11" lengthAdjust="spacing" textLength="125" x="1073" y="867.2046">double productionPrice</text><text fill="#000000" font-family="sans-serif" font-size="11" lengthAdjust="spacing" textLength="114" x="1073" y="882.1865">double purchasePrice</text><text fill="#000000" font-family="sans-serif" font-size="11" lengthAdjust="spacing" textLength="116" x="1073" y="897.1684">double grossSalePrice</text><line style="stroke:#A80036;stroke-width:1.5;" x1="1068" x2="1203" y1="904.3913" y2="904.3913"/><!--MD5=[e460c25590b156c4aeacdc7160c20043]
class GiftBasket--><rect codeLine="10" fill="#FEFECE" filter="url(#fy3w5vearusjg)" height="77.9638" id="GiftBasket" style="stroke:#A80036;stroke-width:1.5;" width="98" x="1012" y="393"/><ellipse cx="1030.6" cy="409" fill="#ADD1B2" rx="11" ry="11" style="stroke:#A80036;stroke-width:1.0;"/><path d="M1030.0688,415.9219 Q1028.3188,415.9219 1027.1781,415.1875 Q1026.0531,414.4375 1025.4906,413.0938 Q1024.9438,411.7344 1024.9438,409.9375 Q1024.9438,407.9063 1025.6,406.4531 Q1026.2563,405 1027.5375,404.2188 Q1028.8188,403.4375 1030.6938,403.4375 Q1031.5844,403.4375 1032.2563,403.625 Q1032.9281,403.7969 1033.6156,404.1406 L1032.8031,406.1563 Q1032.1781,405.8438 1031.6313,405.7188 Q1031.1,405.5938 1030.6156,405.5938 Q1029.4438,405.5938 1028.7406,406.125 Q1028.0375,406.6563 1027.7406,407.6094 Q1027.4438,408.5625 1027.4438,409.8281 Q1027.4438,411.8438 1028.1625,412.8125 Q1028.8813,413.7656 1030.475,413.7656 Q1031.0688,413.7656 1031.6938,413.6094 Q1032.3188,413.4531 1033.1469,413.0781 L1033.1469,415.2969 Q1032.4125,415.6094 1031.6156,415.7656 Q1030.8344,415.9219 1030.0688,415.9219 Z " fill="#000000"/><text fill="#000000" font-family="sans-serif" font-size="12" lengthAdjust="spacing" textLength="58" x="1045.4" y="413.656">GiftBasket</text><line style="stroke:#A80036;stroke-width:1.5;" x1="1013" x2="1109" y1="425" y2="425"/><text fill="#000000" font-family="sans-serif" font-size="11" lengthAdjust="spacing" textLength="86" x="1018" y="440.7589">double salePrice</text><text fill="#000000" font-family="sans-serif" font-size="11" lengthAdjust="spacing" textLength="76" x="1018" y="455.7408">double weight</text><line style="stroke:#A80036;stroke-width:1.5;" x1="1013" x2="1109" y1="462.9638" y2="462.9638"/><!--MD5=[91ffdd76f1c8795364bfc7c752e5da6a]
class Ingredient--><rect codeLine="15" fill="#FEFECE" filter="url(#fy3w5vearusjg)" height="62.9819" id="Ingredient" style="stroke:#A80036;stroke-width:1.5;" width="105" x="1083" y="1012"/><ellipse cx="1104.75" cy="1028" fill="#ADD1B2" rx="11" ry="11" style="stroke:#A80036;stroke-width:1.0;"/><path d="M1104.2188,1034.9219 Q1102.4688,1034.9219 1101.3281,1034.1875 Q1100.2031,1033.4375 1099.6406,1032.0938 Q1099.0938,1030.7344 1099.0938,1028.9375 Q1099.0938,1026.9063 1099.75,1025.4531 Q1100.4063,1024 1101.6875,1023.2188 Q1102.9688,1022.4375 1104.8438,1022.4375 Q1105.7344,1022.4375 1106.4063,1022.625 Q1107.0781,1022.7969 1107.7656,1023.1406 L1106.9531,1025.1563 Q1106.3281,1024.8438 1105.7813,1024.7188 Q1105.25,1024.5938 1104.7656,1024.5938 Q1103.5938,1024.5938 1102.8906,1025.125 Q1102.1875,1025.6563 1101.8906,1026.6094 Q1101.5938,1027.5625 1101.5938,1028.8281 Q1101.5938,1030.8438 1102.3125,1031.8125 Q1103.0313,1032.7656 1104.625,1032.7656 Q1105.2188,1032.7656 1105.8438,1032.6094 Q1106.4688,1032.4531 1107.2969,1032.0781 L1107.2969,1034.2969 Q1106.5625,1034.6094 1105.7656,1034.7656 Q1104.9844,1034.9219 1104.2188,1034.9219 Z " fill="#000000"/><text fill="#000000" font-family="sans-serif" font-size="12" lengthAdjust="spacing" textLength="58" x="1120.25" y="1032.656">Ingredient</text><line style="stroke:#A80036;stroke-width:1.5;" x1="1084" x2="1187" y1="1044" y2="1044"/><text fill="#000000" font-family="sans-serif" font-size="11" lengthAdjust="spacing" textLength="93" x="1089" y="1059.7589">«PK» String name</text><line style="stroke:#A80036;stroke-width:1.5;" x1="1084" x2="1187" y1="1066.9819" y2="1066.9819"/><!--MD5=[3ea633b366b7e3c88379499281652b08]
class Allergen--><rect codeLine="18" fill="#FEFECE" filter="url(#fy3w5vearusjg)" height="62.9819" id="Allergen" style="stroke:#A80036;stroke-width:1.5;" width="105" x="1083" y="1175"/><ellipse cx="1109.7" cy="1191" fill="#ADD1B2" rx="11" ry="11" style="stroke:#A80036;stroke-width:1.0;"/><path d="M1109.1688,1197.9219 Q1107.4188,1197.9219 1106.2781,1197.1875 Q1105.1531,1196.4375 1104.5906,1195.0938 Q1104.0438,1193.7344 1104.0438,1191.9375 Q1104.0438,1189.9063 1104.7,1188.4531 Q1105.3563,1187 1106.6375,1186.2188 Q1107.9188,1185.4375 1109.7938,1185.4375 Q1110.6844,1185.4375 1111.3563,1185.625 Q1112.0281,1185.7969 1112.7156,1186.1406 L1111.9031,1188.1563 Q1111.2781,1187.8438 1110.7313,1187.7188 Q1110.2,1187.5938 1109.7156,1187.5938 Q1108.5438,1187.5938 1107.8406,1188.125 Q1107.1375,1188.6563 1106.8406,1189.6094 Q1106.5438,1190.5625 1106.5438,1191.8281 Q1106.5438,1193.8438 1107.2625,1194.8125 Q1107.9813,1195.7656 1109.575,1195.7656 Q1110.1688,1195.7656 1110.7938,1195.6094 Q1111.4188,1195.4531 1112.2469,1195.0781 L1112.2469,1197.2969 Q1111.5125,1197.6094 1110.7156,1197.7656 Q1109.9344,1197.9219 1109.1688,1197.9219 Z " fill="#000000"/><text fill="#000000" font-family="sans-serif" font-size="12" lengthAdjust="spacing" textLength="47" x="1126.3" y="1195.656">Allergen</text><line style="stroke:#A80036;stroke-width:1.5;" x1="1084" x2="1187" y1="1207" y2="1207"/><text fill="#000000" font-family="sans-serif" font-size="11" lengthAdjust="spacing" textLength="93" x="1089" y="1222.7589">«PK» String name</text><line style="stroke:#A80036;stroke-width:1.5;" x1="1084" x2="1187" y1="1229.9819" y2="1229.9819"/><!--MD5=[6d7d587a021629470fd0d5f8ef3407c9]
class Branch--><rect codeLine="22" fill="#FEFECE" filter="url(#fy3w5vearusjg)" height="77.9638" id="Branch" style="stroke:#A80036;stroke-width:1.5;" width="110" x="1193" y="393"/><ellipse cx="1225.1" cy="409" fill="#ADD1B2" rx="11" ry="11" style="stroke:#A80036;stroke-width:1.0;"/><path d="M1224.5688,415.9219 Q1222.8188,415.9219 1221.6781,415.1875 Q1220.5531,414.4375 1219.9906,413.0938 Q1219.4438,411.7344 1219.4438,409.9375 Q1219.4438,407.9063 1220.1,406.4531 Q1220.7563,405 1222.0375,404.2188 Q1223.3188,403.4375 1225.1938,403.4375 Q1226.0844,403.4375 1226.7563,403.625 Q1227.4281,403.7969 1228.1156,404.1406 L1227.3031,406.1563 Q1226.6781,405.8438 1226.1313,405.7188 Q1225.6,405.5938 1225.1156,405.5938 Q1223.9438,405.5938 1223.2406,406.125 Q1222.5375,406.6563 1222.2406,407.6094 Q1221.9438,408.5625 1221.9438,409.8281 Q1221.9438,411.8438 1222.6625,412.8125 Q1223.3813,413.7656 1224.975,413.7656 Q1225.5688,413.7656 1226.1938,413.6094 Q1226.8188,413.4531 1227.6469,413.0781 L1227.6469,415.2969 Q1226.9125,415.6094 1226.1156,415.7656 Q1225.3344,415.9219 1224.5688,415.9219 Z " fill="#000000"/><text fill="#000000" font-family="sans-serif" font-size="12" lengthAdjust="spacing" textLength="40" x="1242.9" y="413.656">Branch</text><line style="stroke:#A80036;stroke-width:1.5;" x1="1194" x2="1302" y1="425" y2="425"/><text fill="#000000" font-family="sans-serif" font-size="11" lengthAdjust="spacing" textLength="98" x="1199" y="440.7589">«PK» long number</text><text fill="#000000" font-family="sans-serif" font-size="11" lengthAdjust="spacing" textLength="86" x="1199" y="455.7408">Address address</text><line style="stroke:#A80036;stroke-width:1.5;" x1="1194" x2="1302" y1="462.9638" y2="462.9638"/><!--MD5=[d218c48b946d362ff1ecd879cabebcad]
class Room--><rect codeLine="26" fill="#FEFECE" filter="url(#fy3w5vearusjg)" height="77.9638" id="Room" style="stroke:#A80036;stroke-width:1.5;" width="91" x="1152" y="596.5"/><ellipse cx="1179.15" cy="612.5" fill="#ADD1B2" rx="11" ry="11" style="stroke:#A80036;stroke-width:1.0;"/><path d="M1178.6188,619.4219 Q1176.8688,619.4219 1175.7281,618.6875 Q1174.6031,617.9375 1174.0406,616.5938 Q1173.4938,615.2344 1173.4938,613.4375 Q1173.4938,611.4063 1174.15,609.9531 Q1174.8063,608.5 1176.0875,607.7188 Q1177.3688,606.9375 1179.2438,606.9375 Q1180.1344,606.9375 1180.8063,607.125 Q1181.4781,607.2969 1182.1656,607.6406 L1181.3531,609.6563 Q1180.7281,609.3438 1180.1813,609.2188 Q1179.65,609.0938 1179.1656,609.0938 Q1177.9938,609.0938 1177.2906,609.625 Q1176.5875,610.1563 1176.2906,611.1094 Q1175.9938,612.0625 1175.9938,613.3281 Q1175.9938,615.3438 1176.7125,616.3125 Q1177.4313,617.2656 1179.025,617.2656 Q1179.6188,617.2656 1180.2438,617.1094 Q1180.8688,616.9531 1181.6969,616.5781 L1181.6969,618.7969 Q1180.9625,619.1094 1180.1656,619.2656 Q1179.3844,619.4219 1178.6188,619.4219 Z " fill="#000000"/><text fill="#000000" font-family="sans-serif" font-size="12" lengthAdjust="spacing" textLength="32" x="1195.85" y="617.156">Room</text><line style="stroke:#A80036;stroke-width:1.5;" x1="1153" x2="1242" y1="628.5" y2="628.5"/><text fill="#000000" font-family="sans-serif" font-size="11" lengthAdjust="spacing" textLength="59" x="1158" y="644.2589">double size</text><text fill="#000000" font-family="sans-serif" font-size="11" lengthAdjust="spacing" textLength="79" x="1158" y="659.2408">String purpose</text><line style="stroke:#A80036;stroke-width:1.5;" x1="1153" x2="1242" y1="666.4638" y2="666.4638"/><!--MD5=[c10c36ce2c02dedc3d02a76c5154070d]
class Quantity--><rect codeLine="31" fill="#FEFECE" filter="url(#fy3w5vearusjg)" height="62.9819" id="Quantity" style="stroke:#A80036;stroke-width:1.5;" width="79" x="928.5" y="811"/><ellipse cx="943.5" cy="827" fill="#ADD1B2" rx="11" ry="11" style="stroke:#A80036;stroke-width:1.0;"/><path d="M942.9688,833.9219 Q941.2188,833.9219 940.0781,833.1875 Q938.9531,832.4375 938.3906,831.0938 Q937.8438,829.7344 937.8438,827.9375 Q937.8438,825.9063 938.5,824.4531 Q939.1563,823 940.4375,822.2188 Q941.7188,821.4375 943.5938,821.4375 Q944.4844,821.4375 945.1563,821.625 Q945.8281,821.7969 946.5156,822.1406 L945.7031,824.1563 Q945.0781,823.8438 944.5313,823.7188 Q944,823.5938 943.5156,823.5938 Q942.3438,823.5938 941.6406,824.125 Q940.9375,824.6563 940.6406,825.6094 Q940.3438,826.5625 940.3438,827.8281 Q940.3438,829.8438 941.0625,830.8125 Q941.7813,831.7656 943.375,831.7656 Q943.9688,831.7656 944.5938,831.6094 Q945.2188,831.4531 946.0469,831.0781 L946.0469,833.2969 Q945.3125,833.6094 944.5156,833.7656 Q943.7344,833.9219 942.9688,833.9219 Z " fill="#000000"/><text fill="#000000" font-family="sans-serif" font-size="12" lengthAdjust="spacing" textLength="47" x="957.5" y="831.656">Quantity</text><line style="stroke:#A80036;stroke-width:1.5;" x1="929.5" x2="1006.5" y1="843" y2="843"/><text fill="#000000" font-family="sans-serif" font-size="11" lengthAdjust="spacing" textLength="61" x="934.5" y="858.7589">int quantity</text><line style="stroke:#A80036;stroke-width:1.5;" x1="929.5" x2="1006.5" y1="865.9819" y2="865.9819"/><!--MD5=[e0bd77868626c22cfc0c5aeed1b8d67f]
class Sale--><rect codeLine="35" fill="#FEFECE" filter="url(#fy3w5vearusjg)" height="77.9638" id="Sale" style="stroke:#A80036;stroke-width:1.5;" width="131" x="597" y="596.5"/><ellipse cx="646.25" cy="612.5" fill="#ADD1B2" rx="11" ry="11" style="stroke:#A80036;stroke-width:1.0;"/><path d="M645.7188,619.4219 Q643.9688,619.4219 642.8281,618.6875 Q641.7031,617.9375 641.1406,616.5938 Q640.5938,615.2344 640.5938,613.4375 Q640.5938,611.4063 641.25,609.9531 Q641.9063,608.5 643.1875,607.7188 Q644.4688,606.9375 646.3438,606.9375 Q647.2344,606.9375 647.9063,607.125 Q648.5781,607.2969 649.2656,607.6406 L648.4531,609.6563 Q647.8281,609.3438 647.2813,609.2188 Q646.75,609.0938 646.2656,609.0938 Q645.0938,609.0938 644.3906,609.625 Q643.6875,610.1563 643.3906,611.1094 Q643.0938,612.0625 643.0938,613.3281 Q643.0938,615.3438 643.8125,616.3125 Q644.5313,617.2656 646.125,617.2656 Q646.7188,617.2656 647.3438,617.1094 Q647.9688,616.9531 648.7969,616.5781 L648.7969,618.7969 Q648.0625,619.1094 647.2656,619.2656 Q646.4844,619.4219 645.7188,619.4219 Z " fill="#000000"/><text fill="#000000" font-family="sans-serif" font-size="12" lengthAdjust="spacing" textLength="24" x="666.75" y="617.156">Sale</text><line style="stroke:#A80036;stroke-width:1.5;" x1="598" x2="727" y1="628.5" y2="628.5"/><text fill="#000000" font-family="sans-serif" font-size="11" lengthAdjust="spacing" textLength="50" x="603" y="644.2589">Date date</text><text fill="#000000" font-family="sans-serif" font-size="11" lengthAdjust="spacing" textLength="119" x="603" y="659.2408">double invoiceAmount</text><line style="stroke:#A80036;stroke-width:1.5;" x1="598" x2="727" y1="666.4638" y2="666.4638"/><!--MD5=[6f82515434f0f9b0e492c125596c3d44]
class Commission--><rect codeLine="40" fill="#FEFECE" filter="url(#fy3w5vearusjg)" height="48" id="Commission" style="stroke:#A80036;stroke-width:1.5;" width="101" x="427.5" y="407"/><ellipse cx="442.5" cy="423" fill="#ADD1B2" rx="11" ry="11" style="stroke:#A80036;stroke-width:1.0;"/><path d="M441.9688,429.9219 Q440.2188,429.9219 439.0781,429.1875 Q437.9531,428.4375 437.3906,427.0938 Q436.8438,425.7344 436.8438,423.9375 Q436.8438,421.9063 437.5,420.4531 Q438.1563,419 439.4375,418.2188 Q440.7188,417.4375 442.5938,417.4375 Q443.4844,417.4375 444.1563,417.625 Q444.8281,417.7969 445.5156,418.1406 L444.7031,420.1563 Q444.0781,419.8438 443.5313,419.7188 Q443,419.5938 442.5156,419.5938 Q441.3438,419.5938 440.6406,420.125 Q439.9375,420.6563 439.6406,421.6094 Q439.3438,422.5625 439.3438,423.8281 Q439.3438,425.8438 440.0625,426.8125 Q440.7813,427.7656 442.375,427.7656 Q442.9688,427.7656 443.5938,427.6094 Q444.2188,427.4531 445.0469,427.0781 L445.0469,429.2969 Q444.3125,429.6094 443.5156,429.7656 Q442.7344,429.9219 441.9688,429.9219 Z " fill="#000000"/><text fill="#000000" font-family="sans-serif" font-size="12" lengthAdjust="spacing" textLength="69" x="456.5" y="427.656">Commission</text><line style="stroke:#A80036;stroke-width:1.5;" x1="428.5" x2="527.5" y1="439" y2="439"/><line style="stroke:#A80036;stroke-width:1.5;" x1="428.5" x2="527.5" y1="447" y2="447"/><!--MD5=[09ce52be0ee7de43c61b6e2d59bf108b]
class Person--><rect codeLine="42" fill="#FEFECE" filter="url(#fy3w5vearusjg)" height="107.9276" id="Person" style="stroke:#A80036;stroke-width:1.5;" width="101" x="251.5" y="377"/><ellipse cx="280" cy="393" fill="#ADD1B2" rx="11" ry="11" style="stroke:#A80036;stroke-width:1.0;"/><path d="M279.4688,399.9219 Q277.7188,399.9219 276.5781,399.1875 Q275.4531,398.4375 274.8906,397.0938 Q274.3438,395.7344 274.3438,393.9375 Q274.3438,391.9063 275,390.4531 Q275.6563,389 276.9375,388.2188 Q278.2188,387.4375 280.0938,387.4375 Q280.9844,387.4375 281.6563,387.625 Q282.3281,387.7969 283.0156,388.1406 L282.2031,390.1563 Q281.5781,389.8438 281.0313,389.7188 Q280.5,389.5938 280.0156,389.5938 Q278.8438,389.5938 278.1406,390.125 Q277.4375,390.6563 277.1406,391.6094 Q276.8438,392.5625 276.8438,393.8281 Q276.8438,395.8438 277.5625,396.8125 Q278.2813,397.7656 279.875,397.7656 Q280.4688,397.7656 281.0938,397.6094 Q281.7188,397.4531 282.5469,397.0781 L282.5469,399.2969 Q281.8125,399.6094 281.0156,399.7656 Q280.2344,399.9219 279.4688,399.9219 Z " fill="#000000"/><text fill="#000000" font-family="sans-serif" font-size="12" lengthAdjust="spacing" textLength="39" x="297" y="397.656">Person</text><line style="stroke:#A80036;stroke-width:1.5;" x1="252.5" x2="351.5" y1="409" y2="409"/><text fill="#000000" font-family="sans-serif" font-size="11" lengthAdjust="spacing" textLength="86" x="257.5" y="424.7589">String firstName</text><text fill="#000000" font-family="sans-serif" font-size="11" lengthAdjust="spacing" textLength="83" x="257.5" y="439.7408">String lastName</text><text fill="#000000" font-family="sans-serif" font-size="11" lengthAdjust="spacing" textLength="89" x="257.5" y="454.7227">Date dateOfBirth</text><text fill="#000000" font-family="sans-serif" font-size="11" lengthAdjust="spacing" textLength="86" x="257.5" y="469.7046">Address address</text><line style="stroke:#A80036;stroke-width:1.5;" x1="252.5" x2="351.5" y1="476.9276" y2="476.9276"/><!--MD5=[7421f545a0d8420c5bec41e74b387d9c]
class Employee--><rect codeLine="49" fill="#FEFECE" filter="url(#fy3w5vearusjg)" height="62.9819" id="Employee" style="stroke:#A80036;stroke-width:1.5;" width="113" x="796" y="189"/><ellipse cx="822.7" cy="205" fill="#ADD1B2" rx="11" ry="11" style="stroke:#A80036;stroke-width:1.0;"/><path d="M822.1688,211.9219 Q820.4188,211.9219 819.2781,211.1875 Q818.1531,210.4375 817.5906,209.0938 Q817.0438,207.7344 817.0438,205.9375 Q817.0438,203.9063 817.7,202.4531 Q818.3563,201 819.6375,200.2188 Q820.9188,199.4375 822.7938,199.4375 Q823.6844,199.4375 824.3563,199.625 Q825.0281,199.7969 825.7156,200.1406 L824.9031,202.1563 Q824.2781,201.8438 823.7313,201.7188 Q823.2,201.5938 822.7156,201.5938 Q821.5438,201.5938 820.8406,202.125 Q820.1375,202.6563 819.8406,203.6094 Q819.5438,204.5625 819.5438,205.8281 Q819.5438,207.8438 820.2625,208.8125 Q820.9813,209.7656 822.575,209.7656 Q823.1688,209.7656 823.7938,209.6094 Q824.4188,209.4531 825.2469,209.0781 L825.2469,211.2969 Q824.5125,211.6094 823.7156,211.7656 Q822.9344,211.9219 822.1688,211.9219 Z " fill="#000000"/><text fill="#000000" font-family="sans-serif" font-size="12" lengthAdjust="spacing" textLength="55" x="839.3" y="209.656">Employee</text><line style="stroke:#A80036;stroke-width:1.5;" x1="797" x2="908" y1="221" y2="221"/><text fill="#000000" font-family="sans-serif" font-size="11" lengthAdjust="spacing" textLength="101" x="802" y="236.7589">double grossSalary</text><line style="stroke:#A80036;stroke-width:1.5;" x1="797" x2="908" y1="243.9819" y2="243.9819"/><!--MD5=[4f126f465601d391fe0c3c00f8b450b3]
class Supervisor--><rect codeLine="53" fill="#FEFECE" filter="url(#fy3w5vearusjg)" height="48" id="Supervisor" style="stroke:#A80036;stroke-width:1.5;" width="92" x="807" y="7"/><ellipse cx="822" cy="23" fill="#ADD1B2" rx="11" ry="11" style="stroke:#A80036;stroke-width:1.0;"/><path d="M821.4688,29.9219 Q819.7188,29.9219 818.5781,29.1875 Q817.4531,28.4375 816.8906,27.0938 Q816.3438,25.7344 816.3438,23.9375 Q816.3438,21.9063 817,20.4531 Q817.6563,19 818.9375,18.2188 Q820.2188,17.4375 822.0938,17.4375 Q822.9844,17.4375 823.6563,17.625 Q824.3281,17.7969 825.0156,18.1406 L824.2031,20.1563 Q823.5781,19.8438 823.0313,19.7188 Q822.5,19.5938 822.0156,19.5938 Q820.8438,19.5938 820.1406,20.125 Q819.4375,20.6563 819.1406,21.6094 Q818.8438,22.5625 818.8438,23.8281 Q818.8438,25.8438 819.5625,26.8125 Q820.2813,27.7656 821.875,27.7656 Q822.4688,27.7656 823.0938,27.6094 Q823.7188,27.4531 824.5469,27.0781 L824.5469,29.2969 Q823.8125,29.6094 823.0156,29.7656 Q822.2344,29.9219 821.4688,29.9219 Z " fill="#000000"/><text fill="#000000" font-family="sans-serif" font-size="12" lengthAdjust="spacing" textLength="60" x="836" y="27.656">Supervisor</text><line style="stroke:#A80036;stroke-width:1.5;" x1="808" x2="898" y1="39" y2="39"/><line style="stroke:#A80036;stroke-width:1.5;" x1="808" x2="898" y1="47" y2="47"/><!--MD5=[4ed6547aebc3816e0d05d6d072e09e7c]
class EmployeeCard--><rect codeLine="55" fill="#FEFECE" filter="url(#fy3w5vearusjg)" height="92.9457" id="EmployeeCard" style="stroke:#A80036;stroke-width:1.5;" width="134" x="1386" y="385"/><ellipse cx="1410" cy="401" fill="#ADD1B2" rx="11" ry="11" style="stroke:#A80036;stroke-width:1.0;"/><path d="M1409.4688,407.9219 Q1407.7188,407.9219 1406.5781,407.1875 Q1405.4531,406.4375 1404.8906,405.0938 Q1404.3438,403.7344 1404.3438,401.9375 Q1404.3438,399.9063 1405,398.4531 Q1405.6563,397 1406.9375,396.2188 Q1408.2188,395.4375 1410.0938,395.4375 Q1410.9844,395.4375 1411.6563,395.625 Q1412.3281,395.7969 1413.0156,396.1406 L1412.2031,398.1563 Q1411.5781,397.8438 1411.0313,397.7188 Q1410.5,397.5938 1410.0156,397.5938 Q1408.8438,397.5938 1408.1406,398.125 Q1407.4375,398.6563 1407.1406,399.6094 Q1406.8438,400.5625 1406.8438,401.8281 Q1406.8438,403.8438 1407.5625,404.8125 Q1408.2813,405.7656 1409.875,405.7656 Q1410.4688,405.7656 1411.0938,405.6094 Q1411.7188,405.4531 1412.5469,405.0781 L1412.5469,407.2969 Q1411.8125,407.6094 1411.0156,407.7656 Q1410.2344,407.9219 1409.4688,407.9219 Z " fill="#000000"/><text fill="#000000" font-family="sans-serif" font-size="12" lengthAdjust="spacing" textLength="82" x="1426" y="405.656">EmployeeCard</text><line style="stroke:#A80036;stroke-width:1.5;" x1="1387" x2="1519" y1="417" y2="417"/><text fill="#000000" font-family="sans-serif" font-size="11" lengthAdjust="spacing" textLength="98" x="1392" y="432.7589">«PK» long number</text><text fill="#000000" font-family="sans-serif" font-size="11" lengthAdjust="spacing" textLength="122" x="1392" y="447.7408">Date authorizationDate</text><text fill="#000000" font-family="sans-serif" font-size="11" lengthAdjust="spacing" textLength="105" x="1392" y="462.7227">Date expirationDate</text><line style="stroke:#A80036;stroke-width:1.5;" x1="1387" x2="1519" y1="469.9457" y2="469.9457"/><!--MD5=[49a0d172aebbe27d10d20a2ec72aad04]
class CustomerCard--><rect codeLine="61" fill="#FEFECE" filter="url(#fy3w5vearusjg)" height="77.9638" id="CustomerCard" style="stroke:#A80036;stroke-width:1.5;" width="114" x="7" y="393"/><ellipse cx="22" cy="409" fill="#ADD1B2" rx="11" ry="11" style="stroke:#A80036;stroke-width:1.0;"/><path d="M21.4688,415.9219 Q19.7188,415.9219 18.5781,415.1875 Q17.4531,414.4375 16.8906,413.0938 Q16.3438,411.7344 16.3438,409.9375 Q16.3438,407.9063 17,406.4531 Q17.6563,405 18.9375,404.2188 Q20.2188,403.4375 22.0938,403.4375 Q22.9844,403.4375 23.6563,403.625 Q24.3281,403.7969 25.0156,404.1406 L24.2031,406.1563 Q23.5781,405.8438 23.0313,405.7188 Q22.5,405.5938 22.0156,405.5938 Q20.8438,405.5938 20.1406,406.125 Q19.4375,406.6563 19.1406,407.6094 Q18.8438,408.5625 18.8438,409.8281 Q18.8438,411.8438 19.5625,412.8125 Q20.2813,413.7656 21.875,413.7656 Q22.4688,413.7656 23.0938,413.6094 Q23.7188,413.4531 24.5469,413.0781 L24.5469,415.2969 Q23.8125,415.6094 23.0156,415.7656 Q22.2344,415.9219 21.4688,415.9219 Z " fill="#000000"/><text fill="#000000" font-family="sans-serif" font-size="12" lengthAdjust="spacing" textLength="82" x="36" y="413.656">CustomerCard</text><line style="stroke:#A80036;stroke-width:1.5;" x1="8" x2="120" y1="425" y2="425"/><text fill="#000000" font-family="sans-serif" font-size="11" lengthAdjust="spacing" textLength="98" x="13" y="440.7589">«PK» long number</text><text fill="#000000" font-family="sans-serif" font-size="11" lengthAdjust="spacing" textLength="93" x="13" y="455.7408">long bonusPoints</text><line style="stroke:#A80036;stroke-width:1.5;" x1="8" x2="120" y1="462.9638" y2="462.9638"/><!--MD5=[c881b25adf3665c6568c9693d41a70f3]
class Activity--><rect codeLine="66" fill="#FEFECE" filter="url(#fy3w5vearusjg)" height="62.9819" id="Activity" style="stroke:#A80036;stroke-width:1.5;" width="105" x="588" y="400"/><ellipse cx="617.85" cy="416" fill="#ADD1B2" rx="11" ry="11" style="stroke:#A80036;stroke-width:1.0;"/><path d="M617.3188,422.9219 Q615.5688,422.9219 614.4281,422.1875 Q613.3031,421.4375 612.7406,420.0938 Q612.1938,418.7344 612.1938,416.9375 Q612.1938,414.9063 612.85,413.4531 Q613.5063,412 614.7875,411.2188 Q616.0688,410.4375 617.9438,410.4375 Q618.8344,410.4375 619.5063,410.625 Q620.1781,410.7969 620.8656,411.1406 L620.0531,413.1563 Q619.4281,412.8438 618.8813,412.7188 Q618.35,412.5938 617.8656,412.5938 Q616.6938,412.5938 615.9906,413.125 Q615.2875,413.6563 614.9906,414.6094 Q614.6938,415.5625 614.6938,416.8281 Q614.6938,418.8438 615.4125,419.8125 Q616.1313,420.7656 617.725,420.7656 Q618.3188,420.7656 618.9438,420.6094 Q619.5688,420.4531 620.3969,420.0781 L620.3969,422.2969 Q619.6625,422.6094 618.8656,422.7656 Q618.0844,422.9219 617.3188,422.9219 Z " fill="#000000"/><text fill="#000000" font-family="sans-serif" font-size="12" lengthAdjust="spacing" textLength="40" x="635.15" y="420.656">Activity</text><line style="stroke:#A80036;stroke-width:1.5;" x1="589" x2="692" y1="432" y2="432"/><text fill="#000000" font-family="sans-serif" font-size="11" lengthAdjust="spacing" textLength="93" x="594" y="447.7589">«PK» String name</text><line style="stroke:#A80036;stroke-width:1.5;" x1="589" x2="692" y1="454.9819" y2="454.9819"/><!--MD5=[2ce0c9fb7f55b1e256ab28a8ea6b25ec]
class Customer--><rect codeLine="70" fill="#FEFECE" filter="url(#fy3w5vearusjg)" height="92.9457" id="Customer" style="stroke:#A80036;stroke-width:1.5;" width="139" x="128" y="174"/><ellipse cx="166.4" cy="190" fill="#ADD1B2" rx="11" ry="11" style="stroke:#A80036;stroke-width:1.0;"/><path d="M165.8688,196.9219 Q164.1188,196.9219 162.9781,196.1875 Q161.8531,195.4375 161.2906,194.0938 Q160.7438,192.7344 160.7438,190.9375 Q160.7438,188.9063 161.4,187.4531 Q162.0563,186 163.3375,185.2188 Q164.6188,184.4375 166.4938,184.4375 Q167.3844,184.4375 168.0563,184.625 Q168.7281,184.7969 169.4156,185.1406 L168.6031,187.1563 Q167.9781,186.8438 167.4313,186.7188 Q166.9,186.5938 166.4156,186.5938 Q165.2438,186.5938 164.5406,187.125 Q163.8375,187.6563 163.5406,188.6094 Q163.2438,189.5625 163.2438,190.8281 Q163.2438,192.8438 163.9625,193.8125 Q164.6813,194.7656 166.275,194.7656 Q166.8688,194.7656 167.4938,194.6094 Q168.1188,194.4531 168.9469,194.0781 L168.9469,196.2969 Q168.2125,196.6094 167.4156,196.7656 Q166.6344,196.9219 165.8688,196.9219 Z " fill="#000000"/><text fill="#000000" font-family="sans-serif" font-size="12" lengthAdjust="spacing" textLength="55" x="185.6" y="194.656">Customer</text><line style="stroke:#A80036;stroke-width:1.5;" x1="129" x2="266" y1="206" y2="206"/><text fill="#000000" font-family="sans-serif" font-size="11" lengthAdjust="spacing" textLength="63" x="134" y="221.7589">String eMail</text><text fill="#000000" font-family="sans-serif" font-size="11" lengthAdjust="spacing" textLength="61" x="134" y="236.7408">String telNr</text><text fill="#000000" font-family="sans-serif" font-size="11" lengthAdjust="spacing" textLength="127" x="134" y="251.7227">boolean sendNewsletter</text><line style="stroke:#A80036;stroke-width:1.5;" x1="129" x2="266" y1="258.9457" y2="258.9457"/><!--MD5=[6227baeea87027274151a641de874370]
class CellPhone--><rect codeLine="76" fill="#FEFECE" filter="url(#fy3w5vearusjg)" height="77.9638" id="CellPhone" style="stroke:#A80036;stroke-width:1.5;" width="153" x="776" y="393"/><ellipse cx="820.25" cy="409" fill="#ADD1B2" rx="11" ry="11" style="stroke:#A80036;stroke-width:1.0;"/><path d="M819.7188,415.9219 Q817.9688,415.9219 816.8281,415.1875 Q815.7031,414.4375 815.1406,413.0938 Q814.5938,411.7344 814.5938,409.9375 Q814.5938,407.9063 815.25,406.4531 Q815.9063,405 817.1875,404.2188 Q818.4688,403.4375 820.3438,403.4375 Q821.2344,403.4375 821.9063,403.625 Q822.5781,403.7969 823.2656,404.1406 L822.4531,406.1563 Q821.8281,405.8438 821.2813,405.7188 Q820.75,405.5938 820.2656,405.5938 Q819.0938,405.5938 818.3906,406.125 Q817.6875,406.6563 817.3906,407.6094 Q817.0938,408.5625 817.0938,409.8281 Q817.0938,411.8438 817.8125,412.8125 Q818.5313,413.7656 820.125,413.7656 Q820.7188,413.7656 821.3438,413.6094 Q821.9688,413.4531 822.7969,413.0781 L822.7969,415.2969 Q822.0625,415.6094 821.2656,415.7656 Q820.4844,415.9219 819.7188,415.9219 Z " fill="#000000"/><text fill="#000000" font-family="sans-serif" font-size="12" lengthAdjust="spacing" textLength="56" x="840.75" y="413.656">CellPhone</text><line style="stroke:#A80036;stroke-width:1.5;" x1="777" x2="928" y1="425" y2="425"/><text fill="#000000" font-family="sans-serif" font-size="11" lengthAdjust="spacing" textLength="141" x="782" y="440.7589">«PK» String phoneNumber</text><text fill="#000000" font-family="sans-serif" font-size="11" lengthAdjust="spacing" textLength="111" x="782" y="455.7408">String modelNumber</text><line style="stroke:#A80036;stroke-width:1.5;" x1="777" x2="928" y1="462.9638" y2="462.9638"/><ellipse cx="1090" cy="634.5" fill="#000000" rx="2" ry="2" style="stroke:none;stroke-width:1.0;"/><ellipse cx="1304" cy="634.5" fill="#000000" rx="2" ry="2" style="stroke:none;stroke-width:1.0;"/><ellipse cx="1051" cy="634.5" fill="#000000" rx="2" ry="2" style="stroke:none;stroke-width:1.0;"/><ellipse cx="390" cy="431" fill="#000000" rx="2" ry="2" style="stroke:none;stroke-width:1.0;"/><!--MD5=[af55f375173b73d4c4014e6557584672]
link Product to Ingredient--><path codeLine="81" d="M1136,911.64 C1136,945.64 1136,985.22 1136,1011.77 " fill="none" id="Product-Ingredient" style="stroke:#A80036;stroke-width:1.0;"/><text fill="#000000" font-family="sans-serif" font-size="13" lengthAdjust="spacing" textLength="20" x="1111.8438" y="934.8077">1..*</text><text fill="#000000" font-family="sans-serif" font-size="13" lengthAdjust="spacing" textLength="7" x="1128.3438" y="999.9459">*</text><!--MD5=[f4f95e323f3a06f9b86c93fdb0d68f6e]
link Ingredient to Allergen--><path codeLine="82" d="M1136,1074.28 C1136,1103.07 1136,1146.11 1136,1174.85 " fill="none" id="Ingredient-Allergen" style="stroke:#A80036;stroke-width:1.0;"/><text fill="#000000" font-family="sans-serif" font-size="13" lengthAdjust="spacing" textLength="7" x="1125.625" y="1096.6493">*</text><text fill="#000000" font-family="sans-serif" font-size="13" lengthAdjust="spacing" textLength="7" x="1128.3438" y="1163.0434">*</text><!--MD5=[1e90a0be23b1552bea1c56a79bf0a26e]
link Sale to Quantity--><path codeLine="87" d="M718.23,673.62 C772.91,710.38 856.23,766.37 911.38,803.45 " fill="none" id="Sale-to-Quantity" style="stroke:#A80036;stroke-width:1.0;"/><polygon fill="none" points="915.54,797.8,928.23,814.77,907.73,809.42,915.54,797.8" style="stroke:#A80036;stroke-width:1.0;"/><!--MD5=[f73a54e6bf40567faf80ce6950c30f84]
link Branch to apoint24--><path d="M1202.96,470.28 C1173.09,497.05 1134.93,535.44 1110,576 C1097.6,596.17 1091.59,625.07 1090.28,631.97 " fill="none" id="Branch-apoint24" style="stroke:#A80036;stroke-width:1.0;"/><polygon fill="#000000" points="1147.1413,540.9552,1154.724,535.2146,1149.9016,531.854,1147.1413,540.9552" style="stroke:#000000;stroke-width:1.0;"/><text fill="#000000" font-family="sans-serif" font-size="13" lengthAdjust="spacing" textLength="25" x="1159" y="541.897">sells</text><text fill="#000000" font-family="sans-serif" font-size="13" lengthAdjust="spacing" textLength="7" x="1178.0609" y="478.2952">*</text><!--MD5=[b5d0adeccc71c33c3ce94ee3ee1edcd8]
link apoint24 to Product--><path d="M1090.29,636.82 C1092.63,647.34 1108.45,718.53 1120.83,774.25 " fill="none" id="apoint24-Product" style="stroke:#A80036;stroke-width:1.0;"/><text fill="#000000" font-family="sans-serif" font-size="13" lengthAdjust="spacing" textLength="20" x="1098.1317" y="762.6877">1..*</text><!--MD5=[76fe0df2f03b654e4b73d5da23c3ce4d]
link Branch to apoint29--><path d="M1258.4,470.24 C1273.58,524.6 1300.38,620.53 1303.67,632.3 " fill="none" id="Branch-apoint29" style="stroke:#A80036;stroke-width:1.0;"/><text fill="#000000" font-family="sans-serif" font-size="13" lengthAdjust="spacing" textLength="37" x="1280" y="541.897">stores</text><text fill="#000000" font-family="sans-serif" font-size="13" lengthAdjust="spacing" textLength="7" x="1257.4375" y="493.4842">*</text><!--MD5=[21cf080555d379f177369521f8c0bfbb]
link apoint29 to Product--><path d="M1303.73,637.03 C1302.44,643.95 1296.53,672.91 1284,693 C1262.55,727.4 1231.88,760.08 1204.01,786.05 " fill="none" id="apoint29-Product" style="stroke:#A80036;stroke-width:1.0;"/><text fill="#000000" font-family="sans-serif" font-size="13" lengthAdjust="spacing" textLength="7" x="1212.0436" y="767.7903">*</text><!--MD5=[0f6a8f6e8f9c50a1733643e332740f73]
link Sale to apoint24--><path d="M717.92,596.35 C797.79,544.68 947.98,467.84 1053.5,536.5 C1088.5,559.28 1090.07,620.23 1090.03,632.38 " fill="none" id="Sale-apoint24" style="stroke:#A80036;stroke-width:1.0;stroke-dasharray:7.0,7.0;"/><!--MD5=[c2d6de4951c68a2413d580a517263ea1]
link apoint29 to Quantity--><path d="M1303.98,636.83 C1303.78,643.86 1301.9,676.86 1284,693 C1196.17,772.19 1121.77,686.02 1025,754 C1004.97,768.07 990.22,791.63 980.74,810.76 " fill="none" id="apoint29-Quantity" style="stroke:#A80036;stroke-width:1.0;stroke-dasharray:7.0,7.0;"/><!--MD5=[1f9e66414b772807731c45172464943a]
link apoint24 to apoint29--><!--MD5=[de96acf8ec3f490922830a93ad7a7fcd]
reverse link Branch to Room--><path codeLine="92" d="M1232.26,482.89 C1228.02,497.07 1223.61,512.58 1220,527 C1214.28,549.82 1208.96,575.64 1204.98,596.26 " fill="none" id="Branch-backto-Room" style="stroke:#A80036;stroke-width:1.0;"/><polygon fill="#A80036" points="1236.07,470.3,1230.5016,474.8818,1232.5892,481.7841,1238.1576,477.2023,1236.07,470.3" style="stroke:#A80036;stroke-width:1.0;"/><text fill="#000000" font-family="sans-serif" font-size="13" lengthAdjust="spacing" textLength="7" x="1215.5688" y="493.5967">1</text><text fill="#000000" font-family="sans-serif" font-size="13" lengthAdjust="spacing" textLength="20" x="1184.5311" y="584.7194">1..*</text><!--MD5=[4e4643b8441dcdcd73e2bdee93676b5c]
link GiftBasket to apoint38--><path d="M1059.14,470.24 C1056.43,524.6 1051.65,620.53 1051.06,632.3 " fill="none" id="GiftBasket-apoint38" style="stroke:#A80036;stroke-width:1.0;"/><text fill="#000000" font-family="sans-serif" font-size="13" lengthAdjust="spacing" textLength="7" x="1060.575" y="493.4842">*</text><!--MD5=[970fa6d27cadde6b0d2451b8a73f486d]
link apoint38 to Product--><path d="M1051.46,636.94 C1053.53,643.46 1062.39,670.95 1071,693 C1079.86,715.69 1090.11,740.02 1099.82,762.32 " fill="none" id="apoint38-to-Product" style="stroke:#A80036;stroke-width:1.0;"/><polygon fill="#A80036" points="1105.14,774.48,1106.4028,767.3803,1100.335,763.484,1099.0722,770.5837,1105.14,774.48" style="stroke:#A80036;stroke-width:1.0;"/><text fill="#000000" font-family="sans-serif" font-size="13" lengthAdjust="spacing" textLength="20" x="1067.4825" y="762.0777">5..*</text><!--MD5=[95b903783478993633d0f4b75acd1b4b]
link apoint38 to Quantity--><path d="M1050.47,636.82 C1045.21,649.87 1002.11,756.84 980.4,810.72 " fill="none" id="apoint38-Quantity" style="stroke:#A80036;stroke-width:1.0;stroke-dasharray:7.0,7.0;"/><!--MD5=[e0e966f0f2a1042cc0c2547dbe357593]
link Employee to Person--><path codeLine="97" d="M795.7,227.13 C713.88,237.43 560.17,262.57 440,316 C414.08,327.53 389.1,345.33 367.68,363.47 " fill="none" id="Employee-to-Person" style="stroke:#A80036;stroke-width:1.0;"/><polygon fill="none" points="372.02,368.97,352.4,376.97,362.75,358.48,372.02,368.97" style="stroke:#A80036;stroke-width:1.0;"/><!--MD5=[4e10aca132d4c719f393f13490bc5d74]
link Customer to Person--><path codeLine="98" d="M220.44,266.09 C233.9,293.15 251.33,328.17 266.61,358.88 " fill="none" id="Customer-to-Person" style="stroke:#A80036;stroke-width:1.0;"/><polygon fill="none" points="272.91,355.83,275.56,376.86,260.38,362.07,272.91,355.83" style="stroke:#A80036;stroke-width:1.0;"/><!--MD5=[085d8705ee596d9a6bd3a9846a00aabf]
link Employee to Activity--><path codeLine="101" d="M822.17,251.39 C781.86,291.13 711.68,360.32 671.52,399.91 " fill="none" id="Employee-Activity" style="stroke:#A80036;stroke-width:1.0;"/><text fill="#000000" font-family="sans-serif" font-size="13" lengthAdjust="spacing" textLength="7" x="780.4943" y="271.6079">*</text><text fill="#000000" font-family="sans-serif" font-size="13" lengthAdjust="spacing" textLength="7" x="670.54" y="388.1165">1</text><!--MD5=[df2423c8ead969905cdd2471a2cfeae3]
reverse link Employee to EmployeeCard--><path codeLine="102" d="M922.38,233.62 C1000.96,248.92 1132.23,277.5 1241,316 C1289.17,333.05 1299.94,340.91 1345,365 C1358.41,372.17 1372.5,380.24 1385.91,388.19 " fill="none" id="Employee-backto-EmployeeCard" style="stroke:#A80036;stroke-width:1.0;"/><polygon fill="#A80036" points="909.28,231.1,914.4162,236.1615,921.0639,233.3671,915.9277,228.3056,909.28,231.1" style="stroke:#A80036;stroke-width:1.0;"/><text fill="#000000" font-family="sans-serif" font-size="13" lengthAdjust="spacing" textLength="7" x="917.0034" y="228.3125">1</text><text fill="#000000" font-family="sans-serif" font-size="13" lengthAdjust="spacing" textLength="7" x="1371.1892" y="379.4619">1</text><!--MD5=[d458a1e609d20b4df6a1b1701aeabf58]
link Customer to Sale--><path codeLine="104" d="M190.36,266.13 C182.93,326.03 179.6,431.78 234,497 C324.42,605.41 500.61,629.3 596.66,633.96 " fill="none" id="Customer-Sale" style="stroke:#A80036;stroke-width:1.0;"/><text fill="#000000" font-family="sans-serif" font-size="13" lengthAdjust="spacing" textLength="20" x="158.5763" y="288.8153">0..1</text><text fill="#000000" font-family="sans-serif" font-size="13" lengthAdjust="spacing" textLength="7" x="582.0759" y="629.7995">*</text><!--MD5=[0d2d517f7991f5fec610006b2a34fd87]
reverse link Customer to CustomerCard--><path codeLine="105" d="M162.24,277.04 C138.91,313.6 109.07,360.36 88.43,392.71 " fill="none" id="Customer-backto-CustomerCard" style="stroke:#A80036;stroke-width:1.0;"/><polygon fill="#A80036" points="169.25,266.05,162.649,268.9528,162.7896,276.1625,169.3906,273.2597,169.25,266.05" style="stroke:#A80036;stroke-width:1.0;"/><text fill="#000000" font-family="sans-serif" font-size="13" lengthAdjust="spacing" textLength="7" x="140.4219" y="288.6803">1</text><text fill="#000000" font-family="sans-serif" font-size="13" lengthAdjust="spacing" textLength="7" x="85.1582" y="381.1605">1</text><!--MD5=[7a4d3cb2f39225ac59669630e58ab29c]
link Employee to Branch--><path codeLine="107" d="M886.13,251.05 C916.65,277.12 964.32,313.9 1012,335 C1070.19,360.75 1093.56,339.83 1152,365 C1168.72,372.2 1185.55,382.5 1200.34,392.82 " fill="none" id="Employee-Branch" style="stroke:#A80036;stroke-width:1.0;"/><polygon fill="#000000" points="1021.5576,327.9094,1014.5215,321.5105,1012.1042,326.8683,1021.5576,327.9094" style="stroke:#000000;stroke-width:1.0;"/><text fill="#000000" font-family="sans-serif" font-size="13" lengthAdjust="spacing" textLength="75" x="1026" y="330.897">is working in</text><text fill="#000000" font-family="sans-serif" font-size="13" lengthAdjust="spacing" textLength="20" x="893.8953" y="274.2812">1..*</text><text fill="#000000" font-family="sans-serif" font-size="13" lengthAdjust="spacing" textLength="7" x="1184.2271" y="381.2901">1</text><!--MD5=[7a4d3cb2f39225ac59669630e58ab29c]
link Employee to Branch--><path codeLine="108" d="M909.07,236.36 C961.91,252.14 1042.28,279.52 1106,316 C1143.3,337.36 1180.9,368.32 1208.03,392.74 " fill="none" id="Employee-Branch-1" style="stroke:#A80036;stroke-width:1.0;"/><polygon fill="#000000" points="1144.4305,328.1705,1137.7779,321.3739,1135.0535,326.5823,1144.4305,328.1705" style="stroke:#000000;stroke-width:1.0;"/><text fill="#000000" font-family="sans-serif" font-size="13" lengthAdjust="spacing" textLength="83" x="1149" y="330.897">has worked in</text><text fill="#000000" font-family="sans-serif" font-size="13" lengthAdjust="spacing" textLength="20" x="916.4299" y="237.7937">1..*</text><text fill="#000000" font-family="sans-serif" font-size="13" lengthAdjust="spacing" textLength="7" x="1193.2869" y="381.1959">*</text><!--MD5=[6ae28fb1e05c455850950581560b4957]
link Employee to apoint52--><path d="M795.79,223.34 C702.06,230.29 515.66,257.66 410,365 C390.78,384.52 389.97,422.04 389.99,428.91 " fill="none" id="Employee-apoint52" style="stroke:#A80036;stroke-width:1.0;"/><text fill="#000000" font-family="sans-serif" font-size="13" lengthAdjust="spacing" textLength="7" x="781.0756" y="219.5582">1</text><!--MD5=[97b629064f99ab71264de1ad41d804f2]
link apoint52 to Sale--><path d="M390.04,433.05 C390.32,439.64 392.65,475.8 410,497 C458.51,556.29 539.61,593.87 596.89,614.49 " fill="none" id="apoint52-Sale" style="stroke:#A80036;stroke-width:1.0;"/><text fill="#000000" font-family="sans-serif" font-size="13" lengthAdjust="spacing" textLength="7" x="581.8992" y="608.0178">*</text><!--MD5=[b77e1a676b0ed12cd7bb4c7e11259253]
link apoint52 to Commission--><path d="M392.06,431 C403.81,431 415.56,431 427.31,431 " fill="none" id="apoint52-Commission" style="stroke:#A80036;stroke-width:1.0;stroke-dasharray:7.0,7.0;"/><!--MD5=[5f9f81dc3f278a5966c3c6cfeeaf2def]
link Supervisor to Employee--><path codeLine="112" d="M850.19,55.3 C848.61,69.62 846.8,88.34 846,105 C845.01,125.8 846,148.72 847.53,168.52 " fill="none" id="Supervisor-to-Employee" style="stroke:#A80036;stroke-width:1.0;"/><polygon fill="none" points="854.51,167.98,849.32,188.53,840.57,169.23,854.51,167.98" style="stroke:#A80036;stroke-width:1.0;"/><!--MD5=[5f9f81dc3f278a5966c3c6cfeeaf2def]
link Supervisor to Employee--><path codeLine="113" d="M853,55.31 C853,89.08 853,151.67 853,188.9 " fill="none" id="Supervisor-Employee" style="stroke:#A80036;stroke-width:1.0;"/><polygon fill="#000000" points="858,119.853,860.9389,110.8079,855.0611,110.8079,858,119.853" style="stroke:#000000;stroke-width:1.0;"/><text fill="#000000" font-family="sans-serif" font-size="13" lengthAdjust="spacing" textLength="63" x="867" y="119.897">supervises</text><text fill="#000000" font-family="sans-serif" font-size="13" lengthAdjust="spacing" textLength="20" x="817.75" y="76.8556">0..1</text><text fill="#000000" font-family="sans-serif" font-size="13" lengthAdjust="spacing" textLength="7" x="845.3438" y="177.1043">*</text><!--MD5=[eabbd374f404583f3feed762d08bdc2c]
link Employee to CellPhone--><path codeLine="115" d="M853,251.09 C853,288.4 853,352.05 853,392.78 " fill="none" id="Employee-CellPhone" style="stroke:#A80036;stroke-width:1.0;"/><text fill="#000000" font-family="sans-serif" font-size="13" lengthAdjust="spacing" textLength="20" x="821.8375" y="274.3682">0..1</text><text fill="#000000" font-family="sans-serif" font-size="13" lengthAdjust="spacing" textLength="20" x="831.3078" y="381.243">0..1</text><!--MD5=[af4967f34d5219c3aa97b4151a738afa]
@startuml
class Product {
  <<PK>> String name
  String category
  int count
  double productionPrice
  double purchasePrice
  double grossSalePrice
}

class GiftBasket {
  double salePrice
  double weight
}

class Ingredient {
  <<PK>> String name
}
class Allergen {
  <<PK>> String name
}

class Branch {
  <<PK>> long number
  Address address
}
class Room {
  double size
  String purpose
}

class Quantity {
  int quantity
}

class Sale {
  Date date
  double invoiceAmount
}

class Commission {}

class Person {
  String firstName
  String lastName
  Date dateOfBirth
  Address address
}

class Employee {
  double grossSalary
}

class Supervisor {}

class EmployeeCard {
  <<PK>> long number
  Date authorizationDate
  Date expirationDate
}

class CustomerCard {
  <<PK>> long number
  long bonusPoints
}

class Activity {
  <<PK>> String name
}

class Customer {
  String eMail
  String telNr
  boolean sendNewsletter
}

class CellPhone {
  <<PK>> String phoneNumber
  String modelNumber
}
  
Product "1..*" - - "*" Ingredient
Ingredient "*" - - "*" Allergen

Branch "*" - - "*" Product : stores >
Branch "*" - - "1..*" Product : sells >

Sale - -|> Quantity

(Branch, Product) .. Sale
(Branch, Product) .. Quantity

Branch "1" *- - "1..*" Room

GiftBasket "*" - -* "5..*" Product
(GiftBasket, Product) .. Quantity

Employee - -|> Person
Customer - -|> Person

Employee "1" - - "*" Sale
Employee "*" - - "1" Activity
Employee "1" *- - "1" EmployeeCard

Customer "0..1" - - "*" Sale
Customer "1" *- - "1" CustomerCard

Employee "1..*" - - "1" Branch : is working in >
Employee "1..*" - - "*" Branch : has worked in >

(Employee, Sale) .. Commission

Supervisor - -|> Employee
Supervisor "0..1" - - "*" Employee : supervises >

Employee "0..1" - - "0..1" CellPhone
@enduml

PlantUML version 1.2021.16(Wed Dec 08 18:25:22 CET 2021)
(GPL source distribution)
Java Runtime: OpenJDK Runtime Environment
JVM: OpenJDK 64-Bit Server VM
Default Encoding: UTF-8
Language: en
Country: US
--></g></svg>