<?xml version="1.0" encoding="UTF-8" standalone="no"?><svg xmlns="http://www.w3.org/2000/svg" xmlns:xlink="http://www.w3.org/1999/xlink" contentScriptType="application/ecmascript" contentStyleType="text/css" height="482px" preserveAspectRatio="none" style="width:158px;height:482px;background:#FFFFFF;" version="1.1" viewBox="0 0 158 482" width="158px" zoomAndPan="magnify"><defs><filter height="300%" id="f1hmeoa7vtfn76" width="300%" x="-1" y="-1"><feGaussianBlur result="blurOut" stdDeviation="2.0"/><feColorMatrix in="blurOut" result="blurOut2" type="matrix" values="0 0 0 0 0 0 0 0 0 0 0 0 0 0 0 0 0 0 .4 0"/><feOffset dx="4.0" dy="4.0" in="blurOut2" result="blurOut3"/><feBlend in="SourceGraphic" in2="blurOut3" mode="normal"/></filter></defs><g><!--MD5=[72136138052d025cffdce3c22fbd185f]
class Product--><rect codeLine="1" fill="#FEFECE" filter="url(#f1hmeoa7vtfn76)" height="137.8913" id="Product" style="stroke:#A80036;stroke-width:1.5;" width="137" x="7" y="7"/><ellipse cx="49.9" cy="23" fill="#ADD1B2" rx="11" ry="11" style="stroke:#A80036;stroke-width:1.0;"/><path d="M49.3688,29.9219 Q47.6188,29.9219 46.4781,29.1875 Q45.3531,28.4375 44.7906,27.0938 Q44.2438,25.7344 44.2438,23.9375 Q44.2438,21.9063 44.9,20.4531 Q45.5563,19 46.8375,18.2188 Q48.1188,17.4375 49.9938,17.4375 Q50.8844,17.4375 51.5563,17.625 Q52.2281,17.7969 52.9156,18.1406 L52.1031,20.1563 Q51.4781,19.8438 50.9313,19.7188 Q50.4,19.5938 49.9156,19.5938 Q48.7438,19.5938 48.0406,20.125 Q47.3375,20.6563 47.0406,21.6094 Q46.7438,22.5625 46.7438,23.8281 Q46.7438,25.8438 47.4625,26.8125 Q48.1813,27.7656 49.775,27.7656 Q50.3688,27.7656 50.9938,27.6094 Q51.6188,27.4531 52.4469,27.0781 L52.4469,29.2969 Q51.7125,29.6094 50.9156,29.7656 Q50.1344,29.9219 49.3688,29.9219 Z " fill="#000000"/><text fill="#000000" font-family="sans-serif" font-size="12" lengthAdjust="spacing" textLength="43" x="70.1" y="27.656">Product</text><line style="stroke:#A80036;stroke-width:1.5;" x1="8" x2="143" y1="39" y2="39"/><text fill="#000000" font-family="sans-serif" font-size="11" lengthAdjust="spacing" textLength="93" x="13" y="54.7589">«PK» String name</text><text fill="#000000" font-family="sans-serif" font-size="11" lengthAdjust="spacing" textLength="81" x="13" y="69.7408">String category</text><text fill="#000000" font-family="sans-serif" font-size="11" lengthAdjust="spacing" textLength="47" x="13" y="84.7227">int count</text><text fill="#000000" font-family="sans-serif" font-size="11" lengthAdjust="spacing" textLength="125" x="13" y="99.7046">double productionPrice</text><text fill="#000000" font-family="sans-serif" font-size="11" lengthAdjust="spacing" textLength="114" x="13" y="114.6865">double purchasePrice</text><text fill="#000000" font-family="sans-serif" font-size="11" lengthAdjust="spacing" textLength="116" x="13" y="129.6684">double grossSalePrice</text><line style="stroke:#A80036;stroke-width:1.5;" x1="8" x2="143" y1="136.8913" y2="136.8913"/><!--MD5=[91ffdd76f1c8795364bfc7c752e5da6a]
class Ingredient--><rect codeLine="9" fill="#FEFECE" filter="url(#f1hmeoa7vtfn76)" height="62.9819" id="Ingredient" style="stroke:#A80036;stroke-width:1.5;" width="105" x="23" y="243.5"/><ellipse cx="44.75" cy="259.5" fill="#ADD1B2" rx="11" ry="11" style="stroke:#A80036;stroke-width:1.0;"/><path d="M44.2188,266.4219 Q42.4688,266.4219 41.3281,265.6875 Q40.2031,264.9375 39.6406,263.5938 Q39.0938,262.2344 39.0938,260.4375 Q39.0938,258.4063 39.75,256.9531 Q40.4063,255.5 41.6875,254.7188 Q42.9688,253.9375 44.8438,253.9375 Q45.7344,253.9375 46.4063,254.125 Q47.0781,254.2969 47.7656,254.6406 L46.9531,256.6563 Q46.3281,256.3438 45.7813,256.2188 Q45.25,256.0938 44.7656,256.0938 Q43.5938,256.0938 42.8906,256.625 Q42.1875,257.1563 41.8906,258.1094 Q41.5938,259.0625 41.5938,260.3281 Q41.5938,262.3438 42.3125,263.3125 Q43.0313,264.2656 44.625,264.2656 Q45.2188,264.2656 45.8438,264.1094 Q46.4688,263.9531 47.2969,263.5781 L47.2969,265.7969 Q46.5625,266.1094 45.7656,266.2656 Q44.9844,266.4219 44.2188,266.4219 Z " fill="#000000"/><text fill="#000000" font-family="sans-serif" font-size="12" lengthAdjust="spacing" textLength="58" x="60.25" y="264.156">Ingredient</text><line style="stroke:#A80036;stroke-width:1.5;" x1="24" x2="127" y1="275.5" y2="275.5"/><text fill="#000000" font-family="sans-serif" font-size="11" lengthAdjust="spacing" textLength="93" x="29" y="291.2589">«PK» String name</text><line style="stroke:#A80036;stroke-width:1.5;" x1="24" x2="127" y1="298.4819" y2="298.4819"/><!--MD5=[3ea633b366b7e3c88379499281652b08]
class Allergen--><rect codeLine="12" fill="#FEFECE" filter="url(#f1hmeoa7vtfn76)" height="62.9819" id="Allergen" style="stroke:#A80036;stroke-width:1.5;" width="105" x="23" y="405.5"/><ellipse cx="49.7" cy="421.5" fill="#ADD1B2" rx="11" ry="11" style="stroke:#A80036;stroke-width:1.0;"/><path d="M49.1688,428.4219 Q47.4188,428.4219 46.2781,427.6875 Q45.1531,426.9375 44.5906,425.5938 Q44.0438,424.2344 44.0438,422.4375 Q44.0438,420.4063 44.7,418.9531 Q45.3563,417.5 46.6375,416.7188 Q47.9188,415.9375 49.7938,415.9375 Q50.6844,415.9375 51.3563,416.125 Q52.0281,416.2969 52.7156,416.6406 L51.9031,418.6563 Q51.2781,418.3438 50.7313,418.2188 Q50.2,418.0938 49.7156,418.0938 Q48.5438,418.0938 47.8406,418.625 Q47.1375,419.1563 46.8406,420.1094 Q46.5438,421.0625 46.5438,422.3281 Q46.5438,424.3438 47.2625,425.3125 Q47.9813,426.2656 49.575,426.2656 Q50.1688,426.2656 50.7938,426.1094 Q51.4188,425.9531 52.2469,425.5781 L52.2469,427.7969 Q51.5125,428.1094 50.7156,428.2656 Q49.9344,428.4219 49.1688,428.4219 Z " fill="#000000"/><text fill="#000000" font-family="sans-serif" font-size="12" lengthAdjust="spacing" textLength="47" x="66.3" y="426.156">Allergen</text><line style="stroke:#A80036;stroke-width:1.5;" x1="24" x2="127" y1="437.5" y2="437.5"/><text fill="#000000" font-family="sans-serif" font-size="11" lengthAdjust="spacing" textLength="93" x="29" y="453.2589">«PK» String name</text><line style="stroke:#A80036;stroke-width:1.5;" x1="24" x2="127" y1="460.4819" y2="460.4819"/><!--MD5=[af55f375173b73d4c4014e6557584672]
link Product to Ingredient--><path codeLine="16" d="M76,144.07 C76,177.76 76,216.91 76,243.25 " fill="none" id="Product-Ingredient" style="stroke:#A80036;stroke-width:1.0;"/><text fill="#000000" font-family="sans-serif" font-size="13" lengthAdjust="spacing" textLength="20" x="51.8438" y="167.2071">1..*</text><text fill="#000000" font-family="sans-serif" font-size="13" lengthAdjust="spacing" textLength="7" x="76.7813" y="231.3981">*</text><!--MD5=[f4f95e323f3a06f9b86c93fdb0d68f6e]
link Ingredient to Allergen--><path codeLine="17" d="M76,305.59 C76,334.11 76,376.71 76,405.27 " fill="none" id="Ingredient-Allergen" style="stroke:#A80036;stroke-width:1.0;"/><text fill="#000000" font-family="sans-serif" font-size="13" lengthAdjust="spacing" textLength="7" x="74.7703" y="328.6103">*</text><text fill="#000000" font-family="sans-serif" font-size="13" lengthAdjust="spacing" textLength="7" x="76.7813" y="393.4406">*</text><!--MD5=[625f7501d8256c57d275b0400ff00c19]
@startuml
class Product {
  <<PK>> String name
  String category
  int count
  double productionPrice
  double purchasePrice
  double grossSalePrice
}
class Ingredient {
  <<PK>> String name
}
class Allergen {
  <<PK>> String name
}

Product "1..*" - - "*" Ingredient
Ingredient "*" - - "*" Allergen
@enduml

PlantUML version 1.2021.16(Wed Dec 08 18:25:22 CET 2021)
(GPL source distribution)
Java Runtime: OpenJDK Runtime Environment
JVM: OpenJDK 64-Bit Server VM
Default Encoding: UTF-8
Language: en
Country: US
--></g></svg>