<?xml version="1.0" encoding="UTF-8" standalone="no"?><svg xmlns="http://www.w3.org/2000/svg" xmlns:xlink="http://www.w3.org/1999/xlink" contentScriptType="application/ecmascript" contentStyleType="text/css" height="859px" preserveAspectRatio="none" style="width:394px;height:859px;background:#FFFFFF;" version="1.1" viewBox="0 0 394 859" width="394px" zoomAndPan="magnify"><defs><filter height="300%" id="fs2ku1uyrs6jr" width="300%" x="-1" y="-1"><feGaussianBlur result="blurOut" stdDeviation="2.0"/><feColorMatrix in="blurOut" result="blurOut2" type="matrix" values="0 0 0 0 0 0 0 0 0 0 0 0 0 0 0 0 0 0 .4 0"/><feOffset dx="4.0" dy="4.0" in="blurOut2" result="blurOut3"/><feBlend in="SourceGraphic" in2="blurOut3" mode="normal"/></filter></defs><g><!--MD5=[72136138052d025cffdce3c22fbd185f]
class Product--><rect codeLine="1" fill="#FEFECE" filter="url(#fs2ku1uyrs6jr)" height="137.8913" id="Product" style="stroke:#A80036;stroke-width:1.5;" width="137" x="30.5" y="382"/><ellipse cx="73.4" cy="398" fill="#ADD1B2" rx="11" ry="11" style="stroke:#A80036;stroke-width:1.0;"/><path d="M72.8688,404.9219 Q71.1188,404.9219 69.9781,404.1875 Q68.8531,403.4375 68.2906,402.0938 Q67.7438,400.7344 67.7438,398.9375 Q67.7438,396.9063 68.4,395.4531 Q69.0563,394 70.3375,393.2188 Q71.6188,392.4375 73.4938,392.4375 Q74.3844,392.4375 75.0563,392.625 Q75.7281,392.7969 76.4156,393.1406 L75.6031,395.1563 Q74.9781,394.8438 74.4313,394.7188 Q73.9,394.5938 73.4156,394.5938 Q72.2438,394.5938 71.5406,395.125 Q70.8375,395.6563 70.5406,396.6094 Q70.2438,397.5625 70.2438,398.8281 Q70.2438,400.8438 70.9625,401.8125 Q71.6813,402.7656 73.275,402.7656 Q73.8688,402.7656 74.4938,402.6094 Q75.1188,402.4531 75.9469,402.0781 L75.9469,404.2969 Q75.2125,404.6094 74.4156,404.7656 Q73.6344,404.9219 72.8688,404.9219 Z " fill="#000000"/><text fill="#000000" font-family="sans-serif" font-size="12" lengthAdjust="spacing" textLength="43" x="93.6" y="402.656">Product</text><line style="stroke:#A80036;stroke-width:1.5;" x1="31.5" x2="166.5" y1="414" y2="414"/><text fill="#000000" font-family="sans-serif" font-size="11" lengthAdjust="spacing" textLength="93" x="36.5" y="429.7589">«PK» String name</text><text fill="#000000" font-family="sans-serif" font-size="11" lengthAdjust="spacing" textLength="81" x="36.5" y="444.7408">String category</text><text fill="#000000" font-family="sans-serif" font-size="11" lengthAdjust="spacing" textLength="47" x="36.5" y="459.7227">int count</text><text fill="#000000" font-family="sans-serif" font-size="11" lengthAdjust="spacing" textLength="125" x="36.5" y="474.7046">double productionPrice</text><text fill="#000000" font-family="sans-serif" font-size="11" lengthAdjust="spacing" textLength="114" x="36.5" y="489.6865">double purchasePrice</text><text fill="#000000" font-family="sans-serif" font-size="11" lengthAdjust="spacing" textLength="116" x="36.5" y="504.6684">double grossSalePrice</text><line style="stroke:#A80036;stroke-width:1.5;" x1="31.5" x2="166.5" y1="511.8913" y2="511.8913"/><!--MD5=[91ffdd76f1c8795364bfc7c752e5da6a]
class Ingredient--><rect codeLine="9" fill="#FEFECE" filter="url(#fs2ku1uyrs6jr)" height="62.9819" id="Ingredient" style="stroke:#A80036;stroke-width:1.5;" width="105" x="46.5" y="619.5"/><ellipse cx="68.25" cy="635.5" fill="#ADD1B2" rx="11" ry="11" style="stroke:#A80036;stroke-width:1.0;"/><path d="M67.7188,642.4219 Q65.9688,642.4219 64.8281,641.6875 Q63.7031,640.9375 63.1406,639.5938 Q62.5938,638.2344 62.5938,636.4375 Q62.5938,634.4063 63.25,632.9531 Q63.9063,631.5 65.1875,630.7188 Q66.4688,629.9375 68.3438,629.9375 Q69.2344,629.9375 69.9063,630.125 Q70.5781,630.2969 71.2656,630.6406 L70.4531,632.6563 Q69.8281,632.3438 69.2813,632.2188 Q68.75,632.0938 68.2656,632.0938 Q67.0938,632.0938 66.3906,632.625 Q65.6875,633.1563 65.3906,634.1094 Q65.0938,635.0625 65.0938,636.3281 Q65.0938,638.3438 65.8125,639.3125 Q66.5313,640.2656 68.125,640.2656 Q68.7188,640.2656 69.3438,640.1094 Q69.9688,639.9531 70.7969,639.5781 L70.7969,641.7969 Q70.0625,642.1094 69.2656,642.2656 Q68.4844,642.4219 67.7188,642.4219 Z " fill="#000000"/><text fill="#000000" font-family="sans-serif" font-size="12" lengthAdjust="spacing" textLength="58" x="83.75" y="640.156">Ingredient</text><line style="stroke:#A80036;stroke-width:1.5;" x1="47.5" x2="150.5" y1="651.5" y2="651.5"/><text fill="#000000" font-family="sans-serif" font-size="11" lengthAdjust="spacing" textLength="93" x="52.5" y="667.2589">«PK» String name</text><line style="stroke:#A80036;stroke-width:1.5;" x1="47.5" x2="150.5" y1="674.4819" y2="674.4819"/><!--MD5=[3ea633b366b7e3c88379499281652b08]
class Allergen--><rect codeLine="12" fill="#FEFECE" filter="url(#fs2ku1uyrs6jr)" height="62.9819" id="Allergen" style="stroke:#A80036;stroke-width:1.5;" width="105" x="46.5" y="782.5"/><ellipse cx="73.2" cy="798.5" fill="#ADD1B2" rx="11" ry="11" style="stroke:#A80036;stroke-width:1.0;"/><path d="M72.6688,805.4219 Q70.9188,805.4219 69.7781,804.6875 Q68.6531,803.9375 68.0906,802.5938 Q67.5438,801.2344 67.5438,799.4375 Q67.5438,797.4063 68.2,795.9531 Q68.8563,794.5 70.1375,793.7188 Q71.4188,792.9375 73.2938,792.9375 Q74.1844,792.9375 74.8563,793.125 Q75.5281,793.2969 76.2156,793.6406 L75.4031,795.6563 Q74.7781,795.3438 74.2313,795.2188 Q73.7,795.0938 73.2156,795.0938 Q72.0438,795.0938 71.3406,795.625 Q70.6375,796.1563 70.3406,797.1094 Q70.0438,798.0625 70.0438,799.3281 Q70.0438,801.3438 70.7625,802.3125 Q71.4813,803.2656 73.075,803.2656 Q73.6688,803.2656 74.2938,803.1094 Q74.9188,802.9531 75.7469,802.5781 L75.7469,804.7969 Q75.0125,805.1094 74.2156,805.2656 Q73.4344,805.4219 72.6688,805.4219 Z " fill="#000000"/><text fill="#000000" font-family="sans-serif" font-size="12" lengthAdjust="spacing" textLength="47" x="89.8" y="803.156">Allergen</text><line style="stroke:#A80036;stroke-width:1.5;" x1="47.5" x2="150.5" y1="814.5" y2="814.5"/><text fill="#000000" font-family="sans-serif" font-size="11" lengthAdjust="spacing" textLength="93" x="52.5" y="830.2589">«PK» String name</text><line style="stroke:#A80036;stroke-width:1.5;" x1="47.5" x2="150.5" y1="837.4819" y2="837.4819"/><!--MD5=[6d7d587a021629470fd0d5f8ef3407c9]
class Branch--><rect codeLine="16" fill="#FEFECE" filter="url(#fs2ku1uyrs6jr)" height="77.9638" id="Branch" style="stroke:#A80036;stroke-width:1.5;" width="110" x="197.5" y="8"/><ellipse cx="229.6" cy="24" fill="#ADD1B2" rx="11" ry="11" style="stroke:#A80036;stroke-width:1.0;"/><path d="M229.0688,30.9219 Q227.3188,30.9219 226.1781,30.1875 Q225.0531,29.4375 224.4906,28.0938 Q223.9438,26.7344 223.9438,24.9375 Q223.9438,22.9063 224.6,21.4531 Q225.2563,20 226.5375,19.2188 Q227.8188,18.4375 229.6938,18.4375 Q230.5844,18.4375 231.2563,18.625 Q231.9281,18.7969 232.6156,19.1406 L231.8031,21.1563 Q231.1781,20.8438 230.6313,20.7188 Q230.1,20.5938 229.6156,20.5938 Q228.4438,20.5938 227.7406,21.125 Q227.0375,21.6563 226.7406,22.6094 Q226.4438,23.5625 226.4438,24.8281 Q226.4438,26.8438 227.1625,27.8125 Q227.8813,28.7656 229.475,28.7656 Q230.0688,28.7656 230.6938,28.6094 Q231.3188,28.4531 232.1469,28.0781 L232.1469,30.2969 Q231.4125,30.6094 230.6156,30.7656 Q229.8344,30.9219 229.0688,30.9219 Z " fill="#000000"/><text fill="#000000" font-family="sans-serif" font-size="12" lengthAdjust="spacing" textLength="40" x="247.4" y="28.656">Branch</text><line style="stroke:#A80036;stroke-width:1.5;" x1="198.5" x2="306.5" y1="40" y2="40"/><text fill="#000000" font-family="sans-serif" font-size="11" lengthAdjust="spacing" textLength="98" x="203.5" y="55.7589">«PK» long number</text><text fill="#000000" font-family="sans-serif" font-size="11" lengthAdjust="spacing" textLength="76" x="203.5" y="70.7408">String address</text><line style="stroke:#A80036;stroke-width:1.5;" x1="198.5" x2="306.5" y1="77.9638" y2="77.9638"/><!--MD5=[d218c48b946d362ff1ecd879cabebcad]
class Room--><rect codeLine="20" fill="#FEFECE" filter="url(#fs2ku1uyrs6jr)" height="77.9638" id="Room" style="stroke:#A80036;stroke-width:1.5;" width="91" x="289.5" y="204"/><ellipse cx="316.65" cy="220" fill="#ADD1B2" rx="11" ry="11" style="stroke:#A80036;stroke-width:1.0;"/><path d="M316.1188,226.9219 Q314.3688,226.9219 313.2281,226.1875 Q312.1031,225.4375 311.5406,224.0938 Q310.9938,222.7344 310.9938,220.9375 Q310.9938,218.9063 311.65,217.4531 Q312.3063,216 313.5875,215.2188 Q314.8688,214.4375 316.7438,214.4375 Q317.6344,214.4375 318.3063,214.625 Q318.9781,214.7969 319.6656,215.1406 L318.8531,217.1563 Q318.2281,216.8438 317.6813,216.7188 Q317.15,216.5938 316.6656,216.5938 Q315.4938,216.5938 314.7906,217.125 Q314.0875,217.6563 313.7906,218.6094 Q313.4938,219.5625 313.4938,220.8281 Q313.4938,222.8438 314.2125,223.8125 Q314.9313,224.7656 316.525,224.7656 Q317.1188,224.7656 317.7438,224.6094 Q318.3688,224.4531 319.1969,224.0781 L319.1969,226.2969 Q318.4625,226.6094 317.6656,226.7656 Q316.8844,226.9219 316.1188,226.9219 Z " fill="#000000"/><text fill="#000000" font-family="sans-serif" font-size="12" lengthAdjust="spacing" textLength="32" x="333.35" y="224.656">Room</text><line style="stroke:#A80036;stroke-width:1.5;" x1="290.5" x2="379.5" y1="236" y2="236"/><text fill="#000000" font-family="sans-serif" font-size="11" lengthAdjust="spacing" textLength="59" x="295.5" y="251.7589">double size</text><text fill="#000000" font-family="sans-serif" font-size="11" lengthAdjust="spacing" textLength="79" x="295.5" y="266.7408">String purpose</text><line style="stroke:#A80036;stroke-width:1.5;" x1="290.5" x2="379.5" y1="273.9638" y2="273.9638"/><!--MD5=[b4d3d50c0abf08df45181fececb9f04d]
class Store--><rect codeLine="25" fill="#FEFECE" filter="url(#fs2ku1uyrs6jr)" height="62.9819" id="Store" style="stroke:#A80036;stroke-width:1.5;" width="73" x="157" y="210.5"/><ellipse cx="176.95" cy="226.5" fill="#ADD1B2" rx="11" ry="11" style="stroke:#A80036;stroke-width:1.0;"/><path d="M176.4188,233.4219 Q174.6688,233.4219 173.5281,232.6875 Q172.4031,231.9375 171.8406,230.5938 Q171.2938,229.2344 171.2938,227.4375 Q171.2938,225.4063 171.95,223.9531 Q172.6063,222.5 173.8875,221.7188 Q175.1688,220.9375 177.0438,220.9375 Q177.9344,220.9375 178.6063,221.125 Q179.2781,221.2969 179.9656,221.6406 L179.1531,223.6563 Q178.5281,223.3438 177.9813,223.2188 Q177.45,223.0938 176.9656,223.0938 Q175.7938,223.0938 175.0906,223.625 Q174.3875,224.1563 174.0906,225.1094 Q173.7938,226.0625 173.7938,227.3281 Q173.7938,229.3438 174.5125,230.3125 Q175.2313,231.2656 176.825,231.2656 Q177.4188,231.2656 178.0438,231.1094 Q178.6688,230.9531 179.4969,230.5781 L179.4969,232.7969 Q178.7625,233.1094 177.9656,233.2656 Q177.1844,233.4219 176.4188,233.4219 Z " fill="#000000"/><text fill="#000000" font-family="sans-serif" font-size="12" lengthAdjust="spacing" textLength="30" x="192.05" y="231.156">Store</text><line style="stroke:#A80036;stroke-width:1.5;" x1="158" x2="229" y1="242.5" y2="242.5"/><text fill="#000000" font-family="sans-serif" font-size="11" lengthAdjust="spacing" textLength="61" x="163" y="258.2589">int quantity</text><line style="stroke:#A80036;stroke-width:1.5;" x1="158" x2="229" y1="265.4819" y2="265.4819"/><!--MD5=[e0bd77868626c22cfc0c5aeed1b8d67f]
class Sale--><rect codeLine="29" fill="#FEFECE" filter="url(#fs2ku1uyrs6jr)" height="77.9638" id="Sale" style="stroke:#A80036;stroke-width:1.5;" width="131" x="7" y="7"/><ellipse cx="56.25" cy="23" fill="#ADD1B2" rx="11" ry="11" style="stroke:#A80036;stroke-width:1.0;"/><path d="M55.7188,29.9219 Q53.9688,29.9219 52.8281,29.1875 Q51.7031,28.4375 51.1406,27.0938 Q50.5938,25.7344 50.5938,23.9375 Q50.5938,21.9063 51.25,20.4531 Q51.9063,19 53.1875,18.2188 Q54.4688,17.4375 56.3438,17.4375 Q57.2344,17.4375 57.9063,17.625 Q58.5781,17.7969 59.2656,18.1406 L58.4531,20.1563 Q57.8281,19.8438 57.2813,19.7188 Q56.75,19.5938 56.2656,19.5938 Q55.0938,19.5938 54.3906,20.125 Q53.6875,20.6563 53.3906,21.6094 Q53.0938,22.5625 53.0938,23.8281 Q53.0938,25.8438 53.8125,26.8125 Q54.5313,27.7656 56.125,27.7656 Q56.7188,27.7656 57.3438,27.6094 Q57.9688,27.4531 58.7969,27.0781 L58.7969,29.2969 Q58.0625,29.6094 57.2656,29.7656 Q56.4844,29.9219 55.7188,29.9219 Z " fill="#000000"/><text fill="#000000" font-family="sans-serif" font-size="12" lengthAdjust="spacing" textLength="24" x="76.75" y="27.656">Sale</text><line style="stroke:#A80036;stroke-width:1.5;" x1="8" x2="137" y1="39" y2="39"/><text fill="#000000" font-family="sans-serif" font-size="11" lengthAdjust="spacing" textLength="50" x="13" y="54.7589">Date date</text><text fill="#000000" font-family="sans-serif" font-size="11" lengthAdjust="spacing" textLength="119" x="13" y="69.7408">double invoiceAmount</text><line style="stroke:#A80036;stroke-width:1.5;" x1="8" x2="137" y1="76.9638" y2="76.9638"/><ellipse cx="80.5" cy="242" fill="#000000" rx="2" ry="2" style="stroke:none;stroke-width:1.0;"/><ellipse cx="119.5" cy="242" fill="#000000" rx="2" ry="2" style="stroke:none;stroke-width:1.0;"/><!--MD5=[af55f375173b73d4c4014e6557584672]
link Product to Ingredient--><path codeLine="34" d="M99.5,519.14 C99.5,553.14 99.5,592.72 99.5,619.27 " fill="none" id="Product-Ingredient" style="stroke:#A80036;stroke-width:1.0;"/><text fill="#000000" font-family="sans-serif" font-size="13" lengthAdjust="spacing" textLength="20" x="75.3438" y="542.3077">1..*</text><text fill="#000000" font-family="sans-serif" font-size="13" lengthAdjust="spacing" textLength="7" x="91.8438" y="607.4459">*</text><!--MD5=[f4f95e323f3a06f9b86c93fdb0d68f6e]
link Ingredient to Allergen--><path codeLine="35" d="M99.5,681.78 C99.5,710.57 99.5,753.61 99.5,782.35 " fill="none" id="Ingredient-Allergen" style="stroke:#A80036;stroke-width:1.0;"/><text fill="#000000" font-family="sans-serif" font-size="13" lengthAdjust="spacing" textLength="7" x="89.125" y="704.1493">*</text><text fill="#000000" font-family="sans-serif" font-size="13" lengthAdjust="spacing" textLength="7" x="91.8438" y="770.5434">*</text><!--MD5=[9c0f8b07bcbcad6e3986a75bebf1ddb4]
link Sale to Store--><path codeLine="40" d="M128.01,85.14 C144.29,98.91 160.63,115.75 171.5,134.5 C181.22,151.26 186.68,171.7 189.73,190.17 " fill="none" id="Sale-to-Store" style="stroke:#A80036;stroke-width:1.0;"/><polygon fill="none" points="196.71,189.53,192.3,210.25,182.82,191.3,196.71,189.53" style="stroke:#A80036;stroke-width:1.0;"/><!--MD5=[eebf5cd1648da7b578d8e45fc6ad5301]
link Branch to apoint14--><path d="M197.28,80.5 C174.99,95.24 149.98,113.97 130.5,134.5 C97.32,169.47 82.82,230.47 80.76,239.79 " fill="none" id="Branch-apoint14" style="stroke:#A80036;stroke-width:1.0;"/><polygon fill="#000000" points="132.548,148.3886,140.2603,142.8233,135.5162,139.353,132.548,148.3886" style="stroke:#000000;stroke-width:1.0;"/><text fill="#000000" font-family="sans-serif" font-size="13" lengthAdjust="spacing" textLength="25" x="144.5" y="149.397">sells</text><text fill="#000000" font-family="sans-serif" font-size="13" lengthAdjust="spacing" textLength="7" x="182.3895" y="80.8063">*</text><!--MD5=[f60633d6c1b517d504a2bcb6f7571097]
link apoint14 to Product--><path d="M80.62,244.32 C81.59,254.84 88.12,326.03 93.24,381.75 " fill="none" id="apoint14-Product" style="stroke:#A80036;stroke-width:1.0;"/><text fill="#000000" font-family="sans-serif" font-size="13" lengthAdjust="spacing" textLength="7" x="85.2272" y="370.1877">*</text><!--MD5=[bbf93b3512af7aa10810862167504bc1]
link Branch to apoint19--><path d="M230.35,85.23 C216.8,106.44 198.3,132.81 178.5,153.5 C163.38,169.3 152.29,165.76 139.5,183.5 C125.65,202.7 120.72,232.32 119.71,239.43 " fill="none" id="Branch-apoint19" style="stroke:#A80036;stroke-width:1.0;"/><text fill="#000000" font-family="sans-serif" font-size="13" lengthAdjust="spacing" textLength="37" x="196.5" y="149.397">stores</text><text fill="#000000" font-family="sans-serif" font-size="13" lengthAdjust="spacing" textLength="7" x="200.9063" y="108.4655">*</text><!--MD5=[2412d758ae7a377d156527c082ae3c37]
link apoint19 to Product--><path d="M119.37,244.32 C118.36,254.84 111.48,326.03 106.09,381.75 " fill="none" id="apoint19-Product" style="stroke:#A80036;stroke-width:1.0;"/><text fill="#000000" font-family="sans-serif" font-size="13" lengthAdjust="spacing" textLength="7" x="99.4827" y="370.1877">*</text><!--MD5=[7c70d297ae2febc4b06c8b7e96329f02]
link Sale to apoint14--><path d="M74.08,85.33 C76.27,138.33 80,228.77 80.45,239.87 " fill="none" id="Sale-apoint14" style="stroke:#A80036;stroke-width:1.0;stroke-dasharray:7.0,7.0;"/><!--MD5=[84f965f64e05b52d4ef35fc12c62fee0]
link apoint19 to Store--><path d="M121.52,242 C133.33,242 145.14,242 156.95,242 " fill="none" id="apoint19-Store" style="stroke:#A80036;stroke-width:1.0;stroke-dasharray:7.0,7.0;"/><!--MD5=[9516acb93df65b1b47dad77855c1fa54]
link apoint14 to apoint19--><!--MD5=[de96acf8ec3f490922830a93ad7a7fcd]
reverse link Branch to Room--><path codeLine="45" d="M280.99,96.89 C287.49,108.98 294.08,122.04 299.5,134.5 C309.24,156.88 317.99,182.8 324.42,203.58 " fill="none" id="Branch-backto-Room" style="stroke:#A80036;stroke-width:1.0;"/><polygon fill="#A80036" points="274.55,85.18,273.9411,92.3654,280.3396,95.691,280.9485,88.5056,274.55,85.18" style="stroke:#A80036;stroke-width:1.0;"/><text fill="#000000" font-family="sans-serif" font-size="13" lengthAdjust="spacing" textLength="7" x="283.7813" y="108.3717">1</text><text fill="#000000" font-family="sans-serif" font-size="13" lengthAdjust="spacing" textLength="20" x="300.8828" y="192.3045">1..*</text><!--MD5=[fab9f5c29d83a90bedf8ae897e2be787]
@startuml
class Product {
  <<PK>> String name
  String category
  int count
  double productionPrice
  double purchasePrice
  double grossSalePrice
}
class Ingredient {
  <<PK>> String name
}
class Allergen {
  <<PK>> String name
}

class Branch {
  <<PK>> long number
  String address
}
class Room {
  double size
  String purpose
}

class Store {
  int quantity
}

class Sale {
  Date date
  double invoiceAmount
}
  
Product "1..*" - - "*" Ingredient
Ingredient "*" - - "*" Allergen

Branch "*" - - "*" Product : stores >
Branch "*" - - "*" Product : sells >

Sale - -|> Store

(Branch, Product) .. Sale
(Branch, Product) .. Store

Branch "1" *- - "1..*" Room
@enduml

PlantUML version 1.2021.16(Wed Dec 08 18:25:22 CET 2021)
(GPL source distribution)
Java Runtime: OpenJDK Runtime Environment
JVM: OpenJDK 64-Bit Server VM
Default Encoding: UTF-8
Language: en
Country: US
--></g></svg>