<?xml version="1.0" encoding="UTF-8" standalone="no"?><svg xmlns="http://www.w3.org/2000/svg" xmlns:xlink="http://www.w3.org/1999/xlink" contentScriptType="application/ecmascript" contentStyleType="text/css" height="1066px" preserveAspectRatio="none" style="width:1266px;height:1066px;background:#FFFFFF;" version="1.1" viewBox="0 0 1266 1066" width="1266px" zoomAndPan="magnify"><defs><filter height="300%" id="f2zaubrblb9rt" width="300%" x="-1" y="-1"><feGaussianBlur result="blurOut" stdDeviation="2.0"/><feColorMatrix in="blurOut" result="blurOut2" type="matrix" values="0 0 0 0 0 0 0 0 0 0 0 0 0 0 0 0 0 0 .4 0"/><feOffset dx="4.0" dy="4.0" in="blurOut2" result="blurOut3"/><feBlend in="SourceGraphic" in2="blurOut3" mode="normal"/></filter></defs><g><!--MD5=[72136138052d025cffdce3c22fbd185f]
class Product--><rect codeLine="1" fill="#FEFECE" filter="url(#f2zaubrblb9rt)" height="137.8913" id="Product" style="stroke:#A80036;stroke-width:1.5;" width="137" x="277" y="589.5"/><ellipse cx="319.9" cy="605.5" fill="#ADD1B2" rx="11" ry="11" style="stroke:#A80036;stroke-width:1.0;"/><path d="M319.3688,612.4219 Q317.6188,612.4219 316.4781,611.6875 Q315.3531,610.9375 314.7906,609.5938 Q314.2438,608.2344 314.2438,606.4375 Q314.2438,604.4063 314.9,602.9531 Q315.5563,601.5 316.8375,600.7188 Q318.1188,599.9375 319.9938,599.9375 Q320.8844,599.9375 321.5563,600.125 Q322.2281,600.2969 322.9156,600.6406 L322.1031,602.6563 Q321.4781,602.3438 320.9313,602.2188 Q320.4,602.0938 319.9156,602.0938 Q318.7438,602.0938 318.0406,602.625 Q317.3375,603.1563 317.0406,604.1094 Q316.7438,605.0625 316.7438,606.3281 Q316.7438,608.3438 317.4625,609.3125 Q318.1813,610.2656 319.775,610.2656 Q320.3688,610.2656 320.9938,610.1094 Q321.6188,609.9531 322.4469,609.5781 L322.4469,611.7969 Q321.7125,612.1094 320.9156,612.2656 Q320.1344,612.4219 319.3688,612.4219 Z " fill="#000000"/><text fill="#000000" font-family="sans-serif" font-size="12" lengthAdjust="spacing" textLength="43" x="340.1" y="610.156">Product</text><line style="stroke:#A80036;stroke-width:1.5;" x1="278" x2="413" y1="621.5" y2="621.5"/><text fill="#000000" font-family="sans-serif" font-size="11" lengthAdjust="spacing" textLength="93" x="283" y="637.2589">«PK» String name</text><text fill="#000000" font-family="sans-serif" font-size="11" lengthAdjust="spacing" textLength="81" x="283" y="652.2408">String category</text><text fill="#000000" font-family="sans-serif" font-size="11" lengthAdjust="spacing" textLength="47" x="283" y="667.2227">int count</text><text fill="#000000" font-family="sans-serif" font-size="11" lengthAdjust="spacing" textLength="125" x="283" y="682.2046">double productionPrice</text><text fill="#000000" font-family="sans-serif" font-size="11" lengthAdjust="spacing" textLength="114" x="283" y="697.1865">double purchasePrice</text><text fill="#000000" font-family="sans-serif" font-size="11" lengthAdjust="spacing" textLength="116" x="283" y="712.1684">double grossSalePrice</text><line style="stroke:#A80036;stroke-width:1.5;" x1="278" x2="413" y1="719.3913" y2="719.3913"/><!--MD5=[e460c25590b156c4aeacdc7160c20043]
class GiftBasket--><rect codeLine="10" fill="#FEFECE" filter="url(#f2zaubrblb9rt)" height="77.9638" id="GiftBasket" style="stroke:#A80036;stroke-width:1.5;" width="98" x="748" y="208"/><ellipse cx="766.6" cy="224" fill="#ADD1B2" rx="11" ry="11" style="stroke:#A80036;stroke-width:1.0;"/><path d="M766.0688,230.9219 Q764.3188,230.9219 763.1781,230.1875 Q762.0531,229.4375 761.4906,228.0938 Q760.9438,226.7344 760.9438,224.9375 Q760.9438,222.9063 761.6,221.4531 Q762.2563,220 763.5375,219.2188 Q764.8188,218.4375 766.6938,218.4375 Q767.5844,218.4375 768.2563,218.625 Q768.9281,218.7969 769.6156,219.1406 L768.8031,221.1563 Q768.1781,220.8438 767.6313,220.7188 Q767.1,220.5938 766.6156,220.5938 Q765.4438,220.5938 764.7406,221.125 Q764.0375,221.6563 763.7406,222.6094 Q763.4438,223.5625 763.4438,224.8281 Q763.4438,226.8438 764.1625,227.8125 Q764.8813,228.7656 766.475,228.7656 Q767.0688,228.7656 767.6938,228.6094 Q768.3188,228.4531 769.1469,228.0781 L769.1469,230.2969 Q768.4125,230.6094 767.6156,230.7656 Q766.8344,230.9219 766.0688,230.9219 Z " fill="#000000"/><text fill="#000000" font-family="sans-serif" font-size="12" lengthAdjust="spacing" textLength="58" x="781.4" y="228.656">GiftBasket</text><line style="stroke:#A80036;stroke-width:1.5;" x1="749" x2="845" y1="240" y2="240"/><text fill="#000000" font-family="sans-serif" font-size="11" lengthAdjust="spacing" textLength="86" x="754" y="255.7589">double salePrice</text><text fill="#000000" font-family="sans-serif" font-size="11" lengthAdjust="spacing" textLength="76" x="754" y="270.7408">double weight</text><line style="stroke:#A80036;stroke-width:1.5;" x1="749" x2="845" y1="277.9638" y2="277.9638"/><!--MD5=[91ffdd76f1c8795364bfc7c752e5da6a]
class Ingredient--><rect codeLine="15" fill="#FEFECE" filter="url(#f2zaubrblb9rt)" height="62.9819" id="Ingredient" style="stroke:#A80036;stroke-width:1.5;" width="105" x="293" y="827"/><ellipse cx="314.75" cy="843" fill="#ADD1B2" rx="11" ry="11" style="stroke:#A80036;stroke-width:1.0;"/><path d="M314.2188,849.9219 Q312.4688,849.9219 311.3281,849.1875 Q310.2031,848.4375 309.6406,847.0938 Q309.0938,845.7344 309.0938,843.9375 Q309.0938,841.9063 309.75,840.4531 Q310.4063,839 311.6875,838.2188 Q312.9688,837.4375 314.8438,837.4375 Q315.7344,837.4375 316.4063,837.625 Q317.0781,837.7969 317.7656,838.1406 L316.9531,840.1563 Q316.3281,839.8438 315.7813,839.7188 Q315.25,839.5938 314.7656,839.5938 Q313.5938,839.5938 312.8906,840.125 Q312.1875,840.6563 311.8906,841.6094 Q311.5938,842.5625 311.5938,843.8281 Q311.5938,845.8438 312.3125,846.8125 Q313.0313,847.7656 314.625,847.7656 Q315.2188,847.7656 315.8438,847.6094 Q316.4688,847.4531 317.2969,847.0781 L317.2969,849.2969 Q316.5625,849.6094 315.7656,849.7656 Q314.9844,849.9219 314.2188,849.9219 Z " fill="#000000"/><text fill="#000000" font-family="sans-serif" font-size="12" lengthAdjust="spacing" textLength="58" x="330.25" y="847.656">Ingredient</text><line style="stroke:#A80036;stroke-width:1.5;" x1="294" x2="397" y1="859" y2="859"/><text fill="#000000" font-family="sans-serif" font-size="11" lengthAdjust="spacing" textLength="93" x="299" y="874.7589">«PK» String name</text><line style="stroke:#A80036;stroke-width:1.5;" x1="294" x2="397" y1="881.9819" y2="881.9819"/><!--MD5=[3ea633b366b7e3c88379499281652b08]
class Allergen--><rect codeLine="18" fill="#FEFECE" filter="url(#f2zaubrblb9rt)" height="62.9819" id="Allergen" style="stroke:#A80036;stroke-width:1.5;" width="105" x="293" y="990"/><ellipse cx="319.7" cy="1006" fill="#ADD1B2" rx="11" ry="11" style="stroke:#A80036;stroke-width:1.0;"/><path d="M319.1688,1012.9219 Q317.4188,1012.9219 316.2781,1012.1875 Q315.1531,1011.4375 314.5906,1010.0938 Q314.0438,1008.7344 314.0438,1006.9375 Q314.0438,1004.9063 314.7,1003.4531 Q315.3563,1002 316.6375,1001.2188 Q317.9188,1000.4375 319.7938,1000.4375 Q320.6844,1000.4375 321.3563,1000.625 Q322.0281,1000.7969 322.7156,1001.1406 L321.9031,1003.1563 Q321.2781,1002.8438 320.7313,1002.7188 Q320.2,1002.5938 319.7156,1002.5938 Q318.5438,1002.5938 317.8406,1003.125 Q317.1375,1003.6563 316.8406,1004.6094 Q316.5438,1005.5625 316.5438,1006.8281 Q316.5438,1008.8438 317.2625,1009.8125 Q317.9813,1010.7656 319.575,1010.7656 Q320.1688,1010.7656 320.7938,1010.6094 Q321.4188,1010.4531 322.2469,1010.0781 L322.2469,1012.2969 Q321.5125,1012.6094 320.7156,1012.7656 Q319.9344,1012.9219 319.1688,1012.9219 Z " fill="#000000"/><text fill="#000000" font-family="sans-serif" font-size="12" lengthAdjust="spacing" textLength="47" x="336.3" y="1010.656">Allergen</text><line style="stroke:#A80036;stroke-width:1.5;" x1="294" x2="397" y1="1022" y2="1022"/><text fill="#000000" font-family="sans-serif" font-size="11" lengthAdjust="spacing" textLength="93" x="299" y="1037.7589">«PK» String name</text><line style="stroke:#A80036;stroke-width:1.5;" x1="294" x2="397" y1="1044.9819" y2="1044.9819"/><!--MD5=[6d7d587a021629470fd0d5f8ef3407c9]
class Branch--><rect codeLine="22" fill="#FEFECE" filter="url(#f2zaubrblb9rt)" height="77.9638" id="Branch" style="stroke:#A80036;stroke-width:1.5;" width="110" x="7" y="208"/><ellipse cx="39.1" cy="224" fill="#ADD1B2" rx="11" ry="11" style="stroke:#A80036;stroke-width:1.0;"/><path d="M38.5688,230.9219 Q36.8188,230.9219 35.6781,230.1875 Q34.5531,229.4375 33.9906,228.0938 Q33.4438,226.7344 33.4438,224.9375 Q33.4438,222.9063 34.1,221.4531 Q34.7563,220 36.0375,219.2188 Q37.3188,218.4375 39.1938,218.4375 Q40.0844,218.4375 40.7563,218.625 Q41.4281,218.7969 42.1156,219.1406 L41.3031,221.1563 Q40.6781,220.8438 40.1313,220.7188 Q39.6,220.5938 39.1156,220.5938 Q37.9438,220.5938 37.2406,221.125 Q36.5375,221.6563 36.2406,222.6094 Q35.9438,223.5625 35.9438,224.8281 Q35.9438,226.8438 36.6625,227.8125 Q37.3813,228.7656 38.975,228.7656 Q39.5688,228.7656 40.1938,228.6094 Q40.8188,228.4531 41.6469,228.0781 L41.6469,230.2969 Q40.9125,230.6094 40.1156,230.7656 Q39.3344,230.9219 38.5688,230.9219 Z " fill="#000000"/><text fill="#000000" font-family="sans-serif" font-size="12" lengthAdjust="spacing" textLength="40" x="56.9" y="228.656">Branch</text><line style="stroke:#A80036;stroke-width:1.5;" x1="8" x2="116" y1="240" y2="240"/><text fill="#000000" font-family="sans-serif" font-size="11" lengthAdjust="spacing" textLength="98" x="13" y="255.7589">«PK» long number</text><text fill="#000000" font-family="sans-serif" font-size="11" lengthAdjust="spacing" textLength="86" x="13" y="270.7408">Address address</text><line style="stroke:#A80036;stroke-width:1.5;" x1="8" x2="116" y1="277.9638" y2="277.9638"/><!--MD5=[d218c48b946d362ff1ecd879cabebcad]
class Room--><rect codeLine="26" fill="#FEFECE" filter="url(#f2zaubrblb9rt)" height="77.9638" id="Room" style="stroke:#A80036;stroke-width:1.5;" width="91" x="16" y="411.5"/><ellipse cx="43.15" cy="427.5" fill="#ADD1B2" rx="11" ry="11" style="stroke:#A80036;stroke-width:1.0;"/><path d="M42.6188,434.4219 Q40.8688,434.4219 39.7281,433.6875 Q38.6031,432.9375 38.0406,431.5938 Q37.4938,430.2344 37.4938,428.4375 Q37.4938,426.4063 38.15,424.9531 Q38.8063,423.5 40.0875,422.7188 Q41.3688,421.9375 43.2438,421.9375 Q44.1344,421.9375 44.8063,422.125 Q45.4781,422.2969 46.1656,422.6406 L45.3531,424.6563 Q44.7281,424.3438 44.1813,424.2188 Q43.65,424.0938 43.1656,424.0938 Q41.9938,424.0938 41.2906,424.625 Q40.5875,425.1563 40.2906,426.1094 Q39.9938,427.0625 39.9938,428.3281 Q39.9938,430.3438 40.7125,431.3125 Q41.4313,432.2656 43.025,432.2656 Q43.6188,432.2656 44.2438,432.1094 Q44.8688,431.9531 45.6969,431.5781 L45.6969,433.7969 Q44.9625,434.1094 44.1656,434.2656 Q43.3844,434.4219 42.6188,434.4219 Z " fill="#000000"/><text fill="#000000" font-family="sans-serif" font-size="12" lengthAdjust="spacing" textLength="32" x="59.85" y="432.156">Room</text><line style="stroke:#A80036;stroke-width:1.5;" x1="17" x2="106" y1="443.5" y2="443.5"/><text fill="#000000" font-family="sans-serif" font-size="11" lengthAdjust="spacing" textLength="59" x="22" y="459.2589">double size</text><text fill="#000000" font-family="sans-serif" font-size="11" lengthAdjust="spacing" textLength="79" x="22" y="474.2408">String purpose</text><line style="stroke:#A80036;stroke-width:1.5;" x1="17" x2="106" y1="481.4638" y2="481.4638"/><!--MD5=[c10c36ce2c02dedc3d02a76c5154070d]
class Quantity--><rect codeLine="31" fill="#FEFECE" filter="url(#f2zaubrblb9rt)" height="62.9819" id="Quantity" style="stroke:#A80036;stroke-width:1.5;" width="79" x="424.5" y="418"/><ellipse cx="439.5" cy="434" fill="#ADD1B2" rx="11" ry="11" style="stroke:#A80036;stroke-width:1.0;"/><path d="M438.9688,440.9219 Q437.2188,440.9219 436.0781,440.1875 Q434.9531,439.4375 434.3906,438.0938 Q433.8438,436.7344 433.8438,434.9375 Q433.8438,432.9063 434.5,431.4531 Q435.1563,430 436.4375,429.2188 Q437.7188,428.4375 439.5938,428.4375 Q440.4844,428.4375 441.1563,428.625 Q441.8281,428.7969 442.5156,429.1406 L441.7031,431.1563 Q441.0781,430.8438 440.5313,430.7188 Q440,430.5938 439.5156,430.5938 Q438.3438,430.5938 437.6406,431.125 Q436.9375,431.6563 436.6406,432.6094 Q436.3438,433.5625 436.3438,434.8281 Q436.3438,436.8438 437.0625,437.8125 Q437.7813,438.7656 439.375,438.7656 Q439.9688,438.7656 440.5938,438.6094 Q441.2188,438.4531 442.0469,438.0781 L442.0469,440.2969 Q441.3125,440.6094 440.5156,440.7656 Q439.7344,440.9219 438.9688,440.9219 Z " fill="#000000"/><text fill="#000000" font-family="sans-serif" font-size="12" lengthAdjust="spacing" textLength="47" x="453.5" y="438.656">Quantity</text><line style="stroke:#A80036;stroke-width:1.5;" x1="425.5" x2="502.5" y1="450" y2="450"/><text fill="#000000" font-family="sans-serif" font-size="11" lengthAdjust="spacing" textLength="61" x="430.5" y="465.7589">int quantity</text><line style="stroke:#A80036;stroke-width:1.5;" x1="425.5" x2="502.5" y1="472.9819" y2="472.9819"/><!--MD5=[e0bd77868626c22cfc0c5aeed1b8d67f]
class Sale--><rect codeLine="35" fill="#FEFECE" filter="url(#f2zaubrblb9rt)" height="77.9638" id="Sale" style="stroke:#A80036;stroke-width:1.5;" width="131" x="398" y="208"/><ellipse cx="447.25" cy="224" fill="#ADD1B2" rx="11" ry="11" style="stroke:#A80036;stroke-width:1.0;"/><path d="M446.7188,230.9219 Q444.9688,230.9219 443.8281,230.1875 Q442.7031,229.4375 442.1406,228.0938 Q441.5938,226.7344 441.5938,224.9375 Q441.5938,222.9063 442.25,221.4531 Q442.9063,220 444.1875,219.2188 Q445.4688,218.4375 447.3438,218.4375 Q448.2344,218.4375 448.9063,218.625 Q449.5781,218.7969 450.2656,219.1406 L449.4531,221.1563 Q448.8281,220.8438 448.2813,220.7188 Q447.75,220.5938 447.2656,220.5938 Q446.0938,220.5938 445.3906,221.125 Q444.6875,221.6563 444.3906,222.6094 Q444.0938,223.5625 444.0938,224.8281 Q444.0938,226.8438 444.8125,227.8125 Q445.5313,228.7656 447.125,228.7656 Q447.7188,228.7656 448.3438,228.6094 Q448.9688,228.4531 449.7969,228.0781 L449.7969,230.2969 Q449.0625,230.6094 448.2656,230.7656 Q447.4844,230.9219 446.7188,230.9219 Z " fill="#000000"/><text fill="#000000" font-family="sans-serif" font-size="12" lengthAdjust="spacing" textLength="24" x="467.75" y="228.656">Sale</text><line style="stroke:#A80036;stroke-width:1.5;" x1="399" x2="528" y1="240" y2="240"/><text fill="#000000" font-family="sans-serif" font-size="11" lengthAdjust="spacing" textLength="50" x="404" y="255.7589">Date date</text><text fill="#000000" font-family="sans-serif" font-size="11" lengthAdjust="spacing" textLength="119" x="404" y="270.7408">double invoiceAmount</text><line style="stroke:#A80036;stroke-width:1.5;" x1="399" x2="528" y1="277.9638" y2="277.9638"/><!--MD5=[09ce52be0ee7de43c61b6e2d59bf108b]
class Person--><rect codeLine="40" fill="#FEFECE" filter="url(#f2zaubrblb9rt)" height="107.9276" id="Person" style="stroke:#A80036;stroke-width:1.5;" width="101" x="587.5" y="192"/><ellipse cx="616" cy="208" fill="#ADD1B2" rx="11" ry="11" style="stroke:#A80036;stroke-width:1.0;"/><path d="M615.4688,214.9219 Q613.7188,214.9219 612.5781,214.1875 Q611.4531,213.4375 610.8906,212.0938 Q610.3438,210.7344 610.3438,208.9375 Q610.3438,206.9063 611,205.4531 Q611.6563,204 612.9375,203.2188 Q614.2188,202.4375 616.0938,202.4375 Q616.9844,202.4375 617.6563,202.625 Q618.3281,202.7969 619.0156,203.1406 L618.2031,205.1563 Q617.5781,204.8438 617.0313,204.7188 Q616.5,204.5938 616.0156,204.5938 Q614.8438,204.5938 614.1406,205.125 Q613.4375,205.6563 613.1406,206.6094 Q612.8438,207.5625 612.8438,208.8281 Q612.8438,210.8438 613.5625,211.8125 Q614.2813,212.7656 615.875,212.7656 Q616.4688,212.7656 617.0938,212.6094 Q617.7188,212.4531 618.5469,212.0781 L618.5469,214.2969 Q617.8125,214.6094 617.0156,214.7656 Q616.2344,214.9219 615.4688,214.9219 Z " fill="#000000"/><text fill="#000000" font-family="sans-serif" font-size="12" lengthAdjust="spacing" textLength="39" x="633" y="212.656">Person</text><line style="stroke:#A80036;stroke-width:1.5;" x1="588.5" x2="687.5" y1="224" y2="224"/><text fill="#000000" font-family="sans-serif" font-size="11" lengthAdjust="spacing" textLength="86" x="593.5" y="239.7589">String firstName</text><text fill="#000000" font-family="sans-serif" font-size="11" lengthAdjust="spacing" textLength="83" x="593.5" y="254.7408">String lastName</text><text fill="#000000" font-family="sans-serif" font-size="11" lengthAdjust="spacing" textLength="89" x="593.5" y="269.7227">Date dateOfBirth</text><text fill="#000000" font-family="sans-serif" font-size="11" lengthAdjust="spacing" textLength="86" x="593.5" y="284.7046">Address address</text><line style="stroke:#A80036;stroke-width:1.5;" x1="588.5" x2="687.5" y1="291.9276" y2="291.9276"/><!--MD5=[7421f545a0d8420c5bec41e74b387d9c]
class Employee--><rect codeLine="47" fill="#FEFECE" filter="url(#f2zaubrblb9rt)" height="62.9819" id="Employee" style="stroke:#A80036;stroke-width:1.5;" width="113" x="771" y="22"/><ellipse cx="797.7" cy="38" fill="#ADD1B2" rx="11" ry="11" style="stroke:#A80036;stroke-width:1.0;"/><path d="M797.1688,44.9219 Q795.4188,44.9219 794.2781,44.1875 Q793.1531,43.4375 792.5906,42.0938 Q792.0438,40.7344 792.0438,38.9375 Q792.0438,36.9063 792.7,35.4531 Q793.3563,34 794.6375,33.2188 Q795.9188,32.4375 797.7938,32.4375 Q798.6844,32.4375 799.3563,32.625 Q800.0281,32.7969 800.7156,33.1406 L799.9031,35.1563 Q799.2781,34.8438 798.7313,34.7188 Q798.2,34.5938 797.7156,34.5938 Q796.5438,34.5938 795.8406,35.125 Q795.1375,35.6563 794.8406,36.6094 Q794.5438,37.5625 794.5438,38.8281 Q794.5438,40.8438 795.2625,41.8125 Q795.9813,42.7656 797.575,42.7656 Q798.1688,42.7656 798.7938,42.6094 Q799.4188,42.4531 800.2469,42.0781 L800.2469,44.2969 Q799.5125,44.6094 798.7156,44.7656 Q797.9344,44.9219 797.1688,44.9219 Z " fill="#000000"/><text fill="#000000" font-family="sans-serif" font-size="12" lengthAdjust="spacing" textLength="55" x="814.3" y="42.656">Employee</text><line style="stroke:#A80036;stroke-width:1.5;" x1="772" x2="883" y1="54" y2="54"/><text fill="#000000" font-family="sans-serif" font-size="11" lengthAdjust="spacing" textLength="101" x="777" y="69.7589">double grossSalary</text><line style="stroke:#A80036;stroke-width:1.5;" x1="772" x2="883" y1="76.9819" y2="76.9819"/><!--MD5=[4ed6547aebc3816e0d05d6d072e09e7c]
class EmployeeCard--><rect codeLine="51" fill="#FEFECE" filter="url(#f2zaubrblb9rt)" height="92.9457" id="EmployeeCard" style="stroke:#A80036;stroke-width:1.5;" width="134" x="1118" y="200"/><ellipse cx="1142" cy="216" fill="#ADD1B2" rx="11" ry="11" style="stroke:#A80036;stroke-width:1.0;"/><path d="M1141.4688,222.9219 Q1139.7188,222.9219 1138.5781,222.1875 Q1137.4531,221.4375 1136.8906,220.0938 Q1136.3438,218.7344 1136.3438,216.9375 Q1136.3438,214.9063 1137,213.4531 Q1137.6563,212 1138.9375,211.2188 Q1140.2188,210.4375 1142.0938,210.4375 Q1142.9844,210.4375 1143.6563,210.625 Q1144.3281,210.7969 1145.0156,211.1406 L1144.2031,213.1563 Q1143.5781,212.8438 1143.0313,212.7188 Q1142.5,212.5938 1142.0156,212.5938 Q1140.8438,212.5938 1140.1406,213.125 Q1139.4375,213.6563 1139.1406,214.6094 Q1138.8438,215.5625 1138.8438,216.8281 Q1138.8438,218.8438 1139.5625,219.8125 Q1140.2813,220.7656 1141.875,220.7656 Q1142.4688,220.7656 1143.0938,220.6094 Q1143.7188,220.4531 1144.5469,220.0781 L1144.5469,222.2969 Q1143.8125,222.6094 1143.0156,222.7656 Q1142.2344,222.9219 1141.4688,222.9219 Z " fill="#000000"/><text fill="#000000" font-family="sans-serif" font-size="12" lengthAdjust="spacing" textLength="82" x="1158" y="220.656">EmployeeCard</text><line style="stroke:#A80036;stroke-width:1.5;" x1="1119" x2="1251" y1="232" y2="232"/><text fill="#000000" font-family="sans-serif" font-size="11" lengthAdjust="spacing" textLength="98" x="1124" y="247.7589">«PK» long number</text><text fill="#000000" font-family="sans-serif" font-size="11" lengthAdjust="spacing" textLength="122" x="1124" y="262.7408">Date authorizationDate</text><text fill="#000000" font-family="sans-serif" font-size="11" lengthAdjust="spacing" textLength="105" x="1124" y="277.7227">Date expirationDate</text><line style="stroke:#A80036;stroke-width:1.5;" x1="1119" x2="1251" y1="284.9457" y2="284.9457"/><!--MD5=[49a0d172aebbe27d10d20a2ec72aad04]
class CustomerCard--><rect codeLine="57" fill="#FEFECE" filter="url(#f2zaubrblb9rt)" height="77.9638" id="CustomerCard" style="stroke:#A80036;stroke-width:1.5;" width="114" x="200" y="208"/><ellipse cx="215" cy="224" fill="#ADD1B2" rx="11" ry="11" style="stroke:#A80036;stroke-width:1.0;"/><path d="M214.4688,230.9219 Q212.7188,230.9219 211.5781,230.1875 Q210.4531,229.4375 209.8906,228.0938 Q209.3438,226.7344 209.3438,224.9375 Q209.3438,222.9063 210,221.4531 Q210.6563,220 211.9375,219.2188 Q213.2188,218.4375 215.0938,218.4375 Q215.9844,218.4375 216.6563,218.625 Q217.3281,218.7969 218.0156,219.1406 L217.2031,221.1563 Q216.5781,220.8438 216.0313,220.7188 Q215.5,220.5938 215.0156,220.5938 Q213.8438,220.5938 213.1406,221.125 Q212.4375,221.6563 212.1406,222.6094 Q211.8438,223.5625 211.8438,224.8281 Q211.8438,226.8438 212.5625,227.8125 Q213.2813,228.7656 214.875,228.7656 Q215.4688,228.7656 216.0938,228.6094 Q216.7188,228.4531 217.5469,228.0781 L217.5469,230.2969 Q216.8125,230.6094 216.0156,230.7656 Q215.2344,230.9219 214.4688,230.9219 Z " fill="#000000"/><text fill="#000000" font-family="sans-serif" font-size="12" lengthAdjust="spacing" textLength="82" x="229" y="228.656">CustomerCard</text><line style="stroke:#A80036;stroke-width:1.5;" x1="201" x2="313" y1="240" y2="240"/><text fill="#000000" font-family="sans-serif" font-size="11" lengthAdjust="spacing" textLength="98" x="206" y="255.7589">«PK» long number</text><text fill="#000000" font-family="sans-serif" font-size="11" lengthAdjust="spacing" textLength="93" x="206" y="270.7408">long bonusPoints</text><line style="stroke:#A80036;stroke-width:1.5;" x1="201" x2="313" y1="277.9638" y2="277.9638"/><!--MD5=[c881b25adf3665c6568c9693d41a70f3]
class Activity--><rect codeLine="62" fill="#FEFECE" filter="url(#f2zaubrblb9rt)" height="62.9819" id="Activity" style="stroke:#A80036;stroke-width:1.5;" width="105" x="930" y="215"/><ellipse cx="959.85" cy="231" fill="#ADD1B2" rx="11" ry="11" style="stroke:#A80036;stroke-width:1.0;"/><path d="M959.3188,237.9219 Q957.5688,237.9219 956.4281,237.1875 Q955.3031,236.4375 954.7406,235.0938 Q954.1938,233.7344 954.1938,231.9375 Q954.1938,229.9063 954.85,228.4531 Q955.5063,227 956.7875,226.2188 Q958.0688,225.4375 959.9438,225.4375 Q960.8344,225.4375 961.5063,225.625 Q962.1781,225.7969 962.8656,226.1406 L962.0531,228.1563 Q961.4281,227.8438 960.8813,227.7188 Q960.35,227.5938 959.8656,227.5938 Q958.6938,227.5938 957.9906,228.125 Q957.2875,228.6563 956.9906,229.6094 Q956.6938,230.5625 956.6938,231.8281 Q956.6938,233.8438 957.4125,234.8125 Q958.1313,235.7656 959.725,235.7656 Q960.3188,235.7656 960.9438,235.6094 Q961.5688,235.4531 962.3969,235.0781 L962.3969,237.2969 Q961.6625,237.6094 960.8656,237.7656 Q960.0844,237.9219 959.3188,237.9219 Z " fill="#000000"/><text fill="#000000" font-family="sans-serif" font-size="12" lengthAdjust="spacing" textLength="40" x="977.15" y="235.656">Activity</text><line style="stroke:#A80036;stroke-width:1.5;" x1="931" x2="1034" y1="247" y2="247"/><text fill="#000000" font-family="sans-serif" font-size="11" lengthAdjust="spacing" textLength="93" x="936" y="262.7589">«PK» String name</text><line style="stroke:#A80036;stroke-width:1.5;" x1="931" x2="1034" y1="269.9819" y2="269.9819"/><!--MD5=[2ce0c9fb7f55b1e256ab28a8ea6b25ec]
class Customer--><rect codeLine="66" fill="#FEFECE" filter="url(#f2zaubrblb9rt)" height="92.9457" id="Customer" style="stroke:#A80036;stroke-width:1.5;" width="139" x="394" y="7"/><ellipse cx="432.4" cy="23" fill="#ADD1B2" rx="11" ry="11" style="stroke:#A80036;stroke-width:1.0;"/><path d="M431.8688,29.9219 Q430.1188,29.9219 428.9781,29.1875 Q427.8531,28.4375 427.2906,27.0938 Q426.7438,25.7344 426.7438,23.9375 Q426.7438,21.9063 427.4,20.4531 Q428.0563,19 429.3375,18.2188 Q430.6188,17.4375 432.4938,17.4375 Q433.3844,17.4375 434.0563,17.625 Q434.7281,17.7969 435.4156,18.1406 L434.6031,20.1563 Q433.9781,19.8438 433.4313,19.7188 Q432.9,19.5938 432.4156,19.5938 Q431.2438,19.5938 430.5406,20.125 Q429.8375,20.6563 429.5406,21.6094 Q429.2438,22.5625 429.2438,23.8281 Q429.2438,25.8438 429.9625,26.8125 Q430.6813,27.7656 432.275,27.7656 Q432.8688,27.7656 433.4938,27.6094 Q434.1188,27.4531 434.9469,27.0781 L434.9469,29.2969 Q434.2125,29.6094 433.4156,29.7656 Q432.6344,29.9219 431.8688,29.9219 Z " fill="#000000"/><text fill="#000000" font-family="sans-serif" font-size="12" lengthAdjust="spacing" textLength="55" x="451.6" y="27.656">Customer</text><line style="stroke:#A80036;stroke-width:1.5;" x1="395" x2="532" y1="39" y2="39"/><text fill="#000000" font-family="sans-serif" font-size="11" lengthAdjust="spacing" textLength="63" x="400" y="54.7589">String eMail</text><text fill="#000000" font-family="sans-serif" font-size="11" lengthAdjust="spacing" textLength="61" x="400" y="69.7408">String telNr</text><text fill="#000000" font-family="sans-serif" font-size="11" lengthAdjust="spacing" textLength="127" x="400" y="84.7227">boolean sendNewsletter</text><line style="stroke:#A80036;stroke-width:1.5;" x1="395" x2="532" y1="91.9457" y2="91.9457"/><ellipse cx="306" cy="449.5" fill="#000000" rx="2" ry="2" style="stroke:none;stroke-width:1.0;"/><ellipse cx="346" cy="449.5" fill="#000000" rx="2" ry="2" style="stroke:none;stroke-width:1.0;"/><ellipse cx="387" cy="449.5" fill="#000000" rx="2" ry="2" style="stroke:none;stroke-width:1.0;"/><!--MD5=[af55f375173b73d4c4014e6557584672]
link Product to Ingredient--><path codeLine="72" d="M346,726.64 C346,760.64 346,800.22 346,826.77 " fill="none" id="Product-Ingredient" style="stroke:#A80036;stroke-width:1.0;"/><text fill="#000000" font-family="sans-serif" font-size="13" lengthAdjust="spacing" textLength="20" x="321.8438" y="749.8077">1..*</text><text fill="#000000" font-family="sans-serif" font-size="13" lengthAdjust="spacing" textLength="7" x="338.3438" y="814.9459">*</text><!--MD5=[f4f95e323f3a06f9b86c93fdb0d68f6e]
link Ingredient to Allergen--><path codeLine="73" d="M346,889.28 C346,918.07 346,961.11 346,989.85 " fill="none" id="Ingredient-Allergen" style="stroke:#A80036;stroke-width:1.0;"/><text fill="#000000" font-family="sans-serif" font-size="13" lengthAdjust="spacing" textLength="7" x="335.625" y="911.6493">*</text><text fill="#000000" font-family="sans-serif" font-size="13" lengthAdjust="spacing" textLength="7" x="338.3438" y="978.0434">*</text><!--MD5=[1e90a0be23b1552bea1c56a79bf0a26e]
link Sale to Quantity--><path codeLine="78" d="M464,285.24 C464,316.85 464,362.5 464,397.5 " fill="none" id="Sale-to-Quantity" style="stroke:#A80036;stroke-width:1.0;"/><polygon fill="none" points="471,397.7,464,417.7,457,397.7,471,397.7" style="stroke:#A80036;stroke-width:1.0;"/><!--MD5=[926daa3f596e831fde6cbe20fd303ed8]
link Branch to apoint21--><path d="M102.52,285.2 C127.36,307.65 160.04,336.53 190,361 C236.11,398.65 295.79,441.25 304.83,447.67 " fill="none" id="Branch-apoint21" style="stroke:#A80036;stroke-width:1.0;"/><polygon fill="#000000" points="198.8985,354.9838,193.6863,347.0287,190.0058,351.6116,198.8985,354.9838" style="stroke:#000000;stroke-width:1.0;"/><text fill="#000000" font-family="sans-serif" font-size="13" lengthAdjust="spacing" textLength="25" x="204" y="356.897">sells</text><text fill="#000000" font-family="sans-serif" font-size="13" lengthAdjust="spacing" textLength="7" x="124.6733" y="305.778">*</text><!--MD5=[cbc767a3373974c86b34fe4a06c7c6a5]
link apoint21 to Product--><path d="M306.26,451.82 C308.29,462.34 322.05,533.53 332.81,589.25 " fill="none" id="apoint21-Product" style="stroke:#A80036;stroke-width:1.0;"/><text fill="#000000" font-family="sans-serif" font-size="13" lengthAdjust="spacing" textLength="20" x="310.3283" y="577.6877">1..*</text><!--MD5=[0041d5a9452ba15baa988652dd08b82d]
link Branch to apoint26--><path d="M113.58,285.29 C127.63,294.63 143.09,304.2 158,312 C230.75,350.06 271.26,328.92 325,391 C340.86,409.32 345.13,440.62 345.87,447.24 " fill="none" id="Branch-apoint26" style="stroke:#A80036;stroke-width:1.0;"/><text fill="#000000" font-family="sans-serif" font-size="13" lengthAdjust="spacing" textLength="37" x="292" y="356.897">stores</text><text fill="#000000" font-family="sans-serif" font-size="13" lengthAdjust="spacing" textLength="7" x="124.9105" y="293.6859">*</text><!--MD5=[2b35b9fec777124195db806368b65bd2]
link apoint26 to Product--><path d="M346,451.82 C346,462.34 346,533.53 346,589.25 " fill="none" id="apoint26-Product" style="stroke:#A80036;stroke-width:1.0;"/><text fill="#000000" font-family="sans-serif" font-size="13" lengthAdjust="spacing" textLength="7" x="338.6719" y="577.6877">*</text><!--MD5=[eebdcae80488774c70f16a0c31522f80]
link Sale to apoint21--><path d="M418.96,285.28 C389.09,312.05 350.93,350.44 326,391 C313.6,411.17 307.59,440.07 306.28,446.97 " fill="none" id="Sale-apoint21" style="stroke:#A80036;stroke-width:1.0;stroke-dasharray:7.0,7.0;"/><!--MD5=[e8b5bcbc79cdd3ce60a5acf2786c6d36]
link apoint26 to Quantity--><path d="M346.02,447.38 C346.27,435.26 349.26,374.43 384.5,351.5 C415.99,331.01 440.97,381.95 454.03,417.82 " fill="none" id="apoint26-Quantity" style="stroke:#A80036;stroke-width:1.0;stroke-dasharray:7.0,7.0;"/><!--MD5=[2e0b7e5eada2ba60d9e1a8f5b26a7dfd]
link apoint21 to apoint26--><!--MD5=[de96acf8ec3f490922830a93ad7a7fcd]
reverse link Branch to Room--><path codeLine="83" d="M62,298.72 C62,333.66 62,379.35 62,411.24 " fill="none" id="Branch-backto-Room" style="stroke:#A80036;stroke-width:1.0;"/><polygon fill="#A80036" points="62,285.43,58,291.43,62,297.43,66,291.43,62,285.43" style="stroke:#A80036;stroke-width:1.0;"/><text fill="#000000" font-family="sans-serif" font-size="13" lengthAdjust="spacing" textLength="7" x="52.1125" y="307.3254">1</text><text fill="#000000" font-family="sans-serif" font-size="13" lengthAdjust="spacing" textLength="20" x="40.3078" y="399.6959">1..*</text><!--MD5=[d0cc3f175eee25f1d87ab9212bbd4d0d]
link GiftBasket to apoint35--><path d="M750.78,285.25 C736.98,295.02 721.41,304.83 706,312 C581.39,370 507.83,297.59 407,391 C389.32,407.38 387.27,440.19 387.03,447.17 " fill="none" id="GiftBasket-apoint35" style="stroke:#A80036;stroke-width:1.0;"/><text fill="#000000" font-family="sans-serif" font-size="13" lengthAdjust="spacing" textLength="7" x="732.9038" y="288.736">*</text><!--MD5=[f28739de15009e00d0c0527f9c77a660]
link apoint35 to Product--><path d="M386.74,451.82 C384.81,461.54 372.63,523.04 362.09,576.28 " fill="none" id="apoint35-to-Product" style="stroke:#A80036;stroke-width:1.0;"/><polygon fill="#A80036" points="359.52,589.25,364.6102,584.1422,361.8531,577.479,356.7629,582.5868,359.52,589.25" style="stroke:#A80036;stroke-width:1.0;"/><text fill="#000000" font-family="sans-serif" font-size="13" lengthAdjust="spacing" textLength="20" x="341.1783" y="578.2557">5..*</text><!--MD5=[1e754f1c7ff3a746ede85a5c1605d922]
link apoint35 to Quantity--><path d="M389.11,449.5 C400.81,449.5 412.51,449.5 424.21,449.5 " fill="none" id="apoint35-Quantity" style="stroke:#A80036;stroke-width:1.0;stroke-dasharray:7.0,7.0;"/><!--MD5=[e0e966f0f2a1042cc0c2547dbe357593]
link Employee to Person--><path codeLine="88" d="M797.89,84.26 C772.49,109.81 735.22,147.27 703.05,179.61 " fill="none" id="Employee-to-Person" style="stroke:#A80036;stroke-width:1.0;"/><polygon fill="none" points="707.76,184.8,688.69,194.04,697.83,174.93,707.76,184.8" style="stroke:#A80036;stroke-width:1.0;"/><!--MD5=[4e10aca132d4c719f393f13490bc5d74]
link Customer to Person--><path codeLine="89" d="M505.24,99.26 C526.41,122.5 552.63,151.29 576.17,177.12 " fill="none" id="Customer-to-Person" style="stroke:#A80036;stroke-width:1.0;"/><polygon fill="none" points="581.36,172.43,589.65,191.93,571.01,181.86,581.36,172.43" style="stroke:#A80036;stroke-width:1.0;"/><!--MD5=[ebd5b617384ba00a53f064cf9872e493]
link Employee to Sale--><path codeLine="91" d="M770.78,79.89 C717.92,104.28 637.6,142.58 570,180 C554.45,188.61 537.98,198.48 522.79,207.91 " fill="none" id="Employee-Sale" style="stroke:#A80036;stroke-width:1.0;"/><text fill="#000000" font-family="sans-serif" font-size="13" lengthAdjust="spacing" textLength="7" x="756.0643" y="79.1256">1</text><text fill="#000000" font-family="sans-serif" font-size="13" lengthAdjust="spacing" textLength="7" x="526.0763" y="196.101">*</text><!--MD5=[085d8705ee596d9a6bd3a9846a00aabf]
link Employee to Activity--><path codeLine="92" d="M852.56,84.26 C881.58,120.03 929.58,179.17 958.55,214.88 " fill="none" id="Employee-Activity" style="stroke:#A80036;stroke-width:1.0;"/><text fill="#000000" font-family="sans-serif" font-size="13" lengthAdjust="spacing" textLength="7" x="869.815" y="106.6068">*</text><text fill="#000000" font-family="sans-serif" font-size="13" lengthAdjust="spacing" textLength="7" x="945.5453" y="203.08">1</text><!--MD5=[df2423c8ead969905cdd2471a2cfeae3]
reverse link Employee to EmployeeCard--><path codeLine="93" d="M895.9,86.95 C946.11,111.69 1015.9,146.86 1076,180 C1089.7,187.55 1104.18,195.92 1117.96,204.06 " fill="none" id="Employee-backto-EmployeeCard" style="stroke:#A80036;stroke-width:1.0;"/><polygon fill="#A80036" points="884.21,81.21,887.8276,87.448,894.9772,86.5079,891.3596,80.2699,884.21,81.21" style="stroke:#A80036;stroke-width:1.0;"/><text fill="#000000" font-family="sans-serif" font-size="13" lengthAdjust="spacing" textLength="7" x="892.1753" y="83.6117">1</text><text fill="#000000" font-family="sans-serif" font-size="13" lengthAdjust="spacing" textLength="7" x="1102.8038" y="195.111">1</text><!--MD5=[d458a1e609d20b4df6a1b1701aeabf58]
link Customer to Sale--><path codeLine="95" d="M464,99.02 C464,132.05 464,176.42 464,207.74 " fill="none" id="Customer-Sale" style="stroke:#A80036;stroke-width:1.0;"/><text fill="#000000" font-family="sans-serif" font-size="13" lengthAdjust="spacing" textLength="20" x="437.4688" y="121.6296">0..1</text><text fill="#000000" font-family="sans-serif" font-size="13" lengthAdjust="spacing" textLength="7" x="456.4656" y="196.1959">*</text><!--MD5=[0d2d517f7991f5fec610006b2a34fd87]
reverse link Customer to CustomerCard--><path codeLine="96" d="M405.59,108.18 C371.37,139.91 328.98,179.23 298.25,207.74 " fill="none" id="Customer-backto-CustomerCard" style="stroke:#A80036;stroke-width:1.0;"/><polygon fill="#A80036" points="415.47,99.02,408.3511,100.1695,406.6741,107.1829,413.793,106.0334,415.47,99.02" style="stroke:#A80036;stroke-width:1.0;"/><text fill="#000000" font-family="sans-serif" font-size="13" lengthAdjust="spacing" textLength="7" x="379.4844" y="116.9546">1</text><text fill="#000000" font-family="sans-serif" font-size="13" lengthAdjust="spacing" textLength="7" x="297.9742" y="196.1959">1</text><!--MD5=[25329ddffdb73a9618f43b996d3b9678]
@startuml
class Product {
  <<PK>> String name
  String category
  int count
  double productionPrice
  double purchasePrice
  double grossSalePrice
}

class GiftBasket {
  double salePrice
  double weight
}

class Ingredient {
  <<PK>> String name
}
class Allergen {
  <<PK>> String name
}

class Branch {
  <<PK>> long number
  Address address
}
class Room {
  double size
  String purpose
}

class Quantity {
  int quantity
}

class Sale {
  Date date
  double invoiceAmount
}

class Person {
  String firstName
  String lastName
  Date dateOfBirth
  Address address
}

class Employee {
  double grossSalary
}

class EmployeeCard {
  <<PK>> long number
  Date authorizationDate
  Date expirationDate
}

class CustomerCard {
  <<PK>> long number
  long bonusPoints
}

class Activity {
  <<PK>> String name
}

class Customer {
  String eMail
  String telNr
  boolean sendNewsletter
}
  
Product "1..*" - - "*" Ingredient
Ingredient "*" - - "*" Allergen

Branch "*" - - "*" Product : stores >
Branch "*" - - "1..*" Product : sells >

Sale - -|> Quantity

(Branch, Product) .. Sale
(Branch, Product) .. Quantity

Branch "1" *- - "1..*" Room

GiftBasket "*" - -* "5..*" Product
(GiftBasket, Product) .. Quantity

Employee - -|> Person
Customer - -|> Person

Employee "1" - - "*" Sale
Employee "*" - - "1" Activity
Employee "1" *- - "1" EmployeeCard

Customer "0..1" - - "*" Sale
Customer "1" *- - "1" CustomerCard
@enduml

PlantUML version 1.2021.16(Wed Dec 08 18:25:22 CET 2021)
(GPL source distribution)
Java Runtime: OpenJDK Runtime Environment
JVM: OpenJDK 64-Bit Server VM
Default Encoding: UTF-8
Language: en
Country: US
--></g></svg>